<mxfile host="app.diagrams.net" agent="Mozilla/5.0 (Windows NT 10.0; Win64; x64) AppleWebKit/537.36 (KHTML, like Gecko) Chrome/133.0.0.0 Safari/537.36" version="26.0.16">
  <diagram name="Page-1" id="id7h1Rskfw296VROuOpZ">
    <mxGraphModel dx="2168" dy="1021" grid="1" gridSize="10" guides="1" tooltips="1" connect="1" arrows="1" fold="1" page="1" pageScale="1" pageWidth="900" pageHeight="1600" math="0" shadow="0">
      <root>
        <mxCell id="0" />
        <mxCell id="1" parent="0" />
        <mxCell id="fRJRQyjmohF1RWEmSn1R-5" value="" style="edgeStyle=orthogonalEdgeStyle;rounded=0;orthogonalLoop=1;jettySize=auto;html=1;" parent="1" source="fRJRQyjmohF1RWEmSn1R-2" target="fRJRQyjmohF1RWEmSn1R-3" edge="1">
          <mxGeometry relative="1" as="geometry">
            <Array as="points">
              <mxPoint x="-338" y="515" />
              <mxPoint x="-338" y="515" />
            </Array>
          </mxGeometry>
        </mxCell>
        <mxCell id="fRJRQyjmohF1RWEmSn1R-2" value="" style="image;html=1;image=img/lib/clip_art/computers/Server_128x128.png" parent="1" vertex="1">
          <mxGeometry x="-380.96" y="535" width="80" height="80" as="geometry" />
        </mxCell>
        <mxCell id="fRJRQyjmohF1RWEmSn1R-1" value="" style="shape=image;verticalLabelPosition=bottom;labelBackgroundColor=default;verticalAlign=top;aspect=fixed;imageAspect=0;image=data:image/png,iVBORw0KGgoAAAANSUhEUgAAAgAAAAIACAYAAAD0eNT6AAAD5npUWHRSYXcgcHJvZmlsZSB0eXBlIGV4aWYAAHja7VZZsuQoDPznFHMES0JIHEdsEXODOf4ktqve0m96ie6viTJRxiWwJGdCojT/+Xulv3AxSUlZzUst5cCVa64cePDjuup5pyOf98fFt/WDPT0HGCZBL9eAxdVTwK5vLzxiUPtoT36PsN+OHpFvh7Ij71DjfZKw82WnfDuq83oo1e19qu3K8+j3xDOV+7ceadnV7f/pvSEbUBqKQMI8heQ47/nKQK5fbPt5r5hHonjOUhM6Fr4zASAfPu8N4PcAfQafLrDp64HP4HPcdvmEZXmwVr4eIP0a/BPid4HlmRF/HGB+IPYFyGv4WvP6usgFiJZ7RZ1g08MNJjZALudrBc3wUzzb2SqaH3F0UD6OfjS0TpWwsI+VKNOgoEXz7Dt1pJh5sqFn7iynzcW4cpfNU96NFptUGeIgq/NMIjDzMxc649YzXidH5EGYygRntPn9r5a+N/grLa3VN0R0+BMr5MV7ZSGNzdy+YxYIoXXzpifAj/bctMc7YgUM6gmz4wPjaJeLpvS2tuTkWTBP0V9biJKN2wEgQmxFMiRg4ChY/VToMGYjAo4OggKZs2RuYIBUeSBJziKFk7Hzjo13jM65rFx4m6FNIEKliIGbKgGyclasH8uONRQqmlW1qKknrRpFSi5aSrGyRS5MLJtaMTO3auHi2dWLm7tXj8pVoIFaS7XqtdYIToFAAV+B+QFL4yYtN22lWfNWW3Qsn5679tKte689Bg8ZkIlRhg0fdcSkNKEUM0+dZdr0WWcsrLUlKy9dZdnyVVc8WbtZ/ab9Amt0s8YnU3uePVmDNZk9XNCWE92cgTHOBMZtM4AFzZuzwyln3sxtzo7K2BTKSFI3N2nQZgwU5kmsi57cvTH3U7wl9Z/ijX/EXNrU/QnmEqj7lrcvWBv7nOsnY9cu3Jgegt2H8emR2GMfavG7/cvRy9HL0dnPsHyso8nouR4DW3R2Kd5R+hUOL1N9QRdHhNXVizfsVxxMqBPEsbezLRSZY3EtNMd0bFZZDp3JkNLAEScJejA1r4IOFQv5zLWw9iiTckiHSiyFItogHQpZgWpBaErNLcaskB1HEGhLypheD5OOitCMFs6eGhOvUKysg6F6yyApebWQArnE5WOOYgMJHfuTcVyKpusRVdRv9j90JLbyhJTXhhKnTMkLBZMPljlxLHjpODG6rEjUa/TzrcGmxXDgQ0rnCBwSruydmpG2ObW66NEa9BcojSAIdxdBIQ4JP3Ki1VfYREUA4BglW225ijUqAXkHB6Nf5KMK+17y6Q/A83L0cvRy9H9xJKjPavoXTtP/GfYBsocAAABmelRYdFJhdyBwcm9maWxlIHR5cGUgaXB0YwAAeNo9iksOgEAIQ/ecwiMwLX44zoRx4c6F948MMZbQFF7lup+QpWSb8DCY21DL+QW0UHDP2AnqXAy2z71oJD3zWtlpQuesogr1ossL9k4Xbq+Qw44AAAGFaUNDUElDQyBwcm9maWxlAAB4nH2RPUjDQBiG37ZKpVQc2kHEIUMVBAtiRRy1CkWoEGqFVh1MLv2DJg1Jiouj4Fpw8Gex6uDirKuDqyAI/oA4OTopukiJ3yWFFjHecdzDe9/7cvcd4G9WmWr2TACqZhmZVFLI5VeF4CtCiNAcQ0Jipj4niml4jq97+Ph+F+dZ3nV/jn6lYDLAJxDPMt2wiDeIpzctnfM+cZSVJYX4nHjcoAsSP3JddvmNc8lhP8+MGtnMPHGUWCh1sdzFrGyoxFPEMUXVKN+fc1nhvMVZrdZZ+578heGCtrLMdVrDSGERSxAhQEYdFVRhIU67RoqJDJ0nPfxDjl8kl0yuChg5FlCDCsnxg//B796axcSkmxROAr0vtv0xAgR3gVbDtr+Pbbt1AgSegSut4681gZlP0hsdLXYEDGwDF9cdTd4DLneAwSddMiRHCtDyF4vA+xl9Ux6I3AKhNbdv7XOcPgBZ6lX6Bjg4BEZLlL3u8e6+7r79W9Pu3w/H23LJao8XXQAAD1lpVFh0WE1MOmNvbS5hZG9iZS54bXAAAAAAADw/eHBhY2tldCBiZWdpbj0i77u/IiBpZD0iVzVNME1wQ2VoaUh6cmVTek5UY3prYzlkIj8+Cjx4OnhtcG1ldGEgeG1sbnM6eD0iYWRvYmU6bnM6bWV0YS8iIHg6eG1wdGs9IlhNUCBDb3JlIDQuNC4wLUV4aXYyIj4KIDxyZGY6UkRGIHhtbG5zOnJkZj0iaHR0cDovL3d3dy53My5vcmcvMTk5OS8wMi8yMi1yZGYtc3ludGF4LW5zIyI+CiAgPHJkZjpEZXNjcmlwdGlvbiByZGY6YWJvdXQ9IiIKICAgIHhtbG5zOmlwdGNFeHQ9Imh0dHA6Ly9pcHRjLm9yZy9zdGQvSXB0YzR4bXBFeHQvMjAwOC0wMi0yOS8iCiAgICB4bWxuczp4bXBNTT0iaHR0cDovL25zLmFkb2JlLmNvbS94YXAvMS4wL21tLyIKICAgIHhtbG5zOnN0RXZ0PSJodHRwOi8vbnMuYWRvYmUuY29tL3hhcC8xLjAvc1R5cGUvUmVzb3VyY2VFdmVudCMiCiAgICB4bWxuczpwbHVzPSJodHRwOi8vbnMudXNlcGx1cy5vcmcvbGRmL3htcC8xLjAvIgogICAgeG1sbnM6R0lNUD0iaHR0cDovL3d3dy5naW1wLm9yZy94bXAvIgogICAgeG1sbnM6ZGM9Imh0dHA6Ly9wdXJsLm9yZy9kYy9lbGVtZW50cy8xLjEvIgogICAgeG1sbnM6eG1wPSJodHRwOi8vbnMuYWRvYmUuY29tL3hhcC8xLjAvIgogICB4bXBNTTpEb2N1bWVudElEPSJnaW1wOmRvY2lkOmdpbXA6M2Y3MTg1NGYtZTg4My00MDkyLTkwZjEtYmM2ODYwNDk3YWE5IgogICB4bXBNTTpJbnN0YW5jZUlEPSJ4bXAuaWlkOjU2YTI5N2I1LWIyYmEtNGUxZS1iZDJlLTJhYTY3ZmMxM2E2YyIKICAgeG1wTU06T3JpZ2luYWxEb2N1bWVudElEPSJ4bXAuZGlkOjU5MWE2ZDhjLTA0NjktNGUzOS05ZGJjLWJkZGIyMjcyMWYxNCIKICAgR0lNUDpBUEk9IjIuMCIKICAgR0lNUDpQbGF0Zm9ybT0iTWFjIE9TIgogICBHSU1QOlRpbWVTdGFtcD0iMTYwMzEzNjk2MjYzODE2NCIKICAgR0lNUDpWZXJzaW9uPSIyLjEwLjE0IgogICBkYzpGb3JtYXQ9ImltYWdlL3BuZyIKICAgeG1wOkNyZWF0b3JUb29sPSJHSU1QIDIuMTAiPgogICA8aXB0Y0V4dDpMb2NhdGlvbkNyZWF0ZWQ+CiAgICA8cmRmOkJhZy8+CiAgIDwvaXB0Y0V4dDpMb2NhdGlvbkNyZWF0ZWQ+CiAgIDxpcHRjRXh0OkxvY2F0aW9uU2hvd24+CiAgICA8cmRmOkJhZy8+CiAgIDwvaXB0Y0V4dDpMb2NhdGlvblNob3duPgogICA8aXB0Y0V4dDpBcnR3b3JrT3JPYmplY3Q+CiAgICA8cmRmOkJhZy8+CiAgIDwvaXB0Y0V4dDpBcnR3b3JrT3JPYmplY3Q+CiAgIDxpcHRjRXh0OlJlZ2lzdHJ5SWQ+CiAgICA8cmRmOkJhZy8+CiAgIDwvaXB0Y0V4dDpSZWdpc3RyeUlkPgogICA8eG1wTU06SGlzdG9yeT4KICAgIDxyZGY6U2VxPgogICAgIDxyZGY6bGkKICAgICAgc3RFdnQ6YWN0aW9uPSJzYXZlZCIKICAgICAgc3RFdnQ6Y2hhbmdlZD0iLyIKICAgICAgc3RFdnQ6aW5zdGFuY2VJRD0ieG1wLmlpZDpmNjc4NDcwMy01YTEyLTQyZmYtOWYyMi01NGNjYTAyMWQ4MDkiCiAgICAgIHN0RXZ0OnNvZnR3YXJlQWdlbnQ9IkdpbXAgMi4xMCAoTWFjIE9TKSIKICAgICAgc3RFdnQ6d2hlbj0iMjAyMC0xMC0xOVQxNTo0OToyMi0wNDowMCIvPgogICAgPC9yZGY6U2VxPgogICA8L3htcE1NOkhpc3Rvcnk+CiAgIDxwbHVzOkltYWdlU3VwcGxpZXI+CiAgICA8cmRmOlNlcS8+CiAgIDwvcGx1czpJbWFnZVN1cHBsaWVyPgogICA8cGx1czpJbWFnZUNyZWF0b3I+CiAgICA8cmRmOlNlcS8+CiAgIDwvcGx1czpJbWFnZUNyZWF0b3I+CiAgIDxwbHVzOkNvcHlyaWdodE93bmVyPgogICAgPHJkZjpTZXEvPgogICA8L3BsdXM6Q29weXJpZ2h0T3duZXI+CiAgIDxwbHVzOkxpY2Vuc29yPgogICAgPHJkZjpTZXEvPgogICA8L3BsdXM6TGljZW5zb3I+CiAgPC9yZGY6RGVzY3JpcHRpb24+CiA8L3JkZjpSREY+CjwveDp4bXBtZXRhPgogICAgICAgICAgICAgICAgICAgICAgICAgICAgICAgICAgICAgICAgICAgICAgICAgICAgICAgICAgICAgICAgICAgICAgICAgICAgICAgICAgICAgICAgICAgICAgICAgICAgCiAgICAgICAgICAgICAgICAgICAgICAgICAgICAgICAgICAgICAgICAgICAgICAgICAgICAgICAgICAgICAgICAgICAgICAgICAgICAgICAgICAgICAgICAgICAgICAgICAgICAKICAgICAgICAgICAgICAgICAgICAgICAgICAgICAgICAgICAgICAgICAgICAgICAgICAgICAgICAgICAgICAgICAgICAgICAgICAgICAgICAgICAgICAgICAgICAgICAgICAgIAogICAgICAgICAgICAgICAgICAgICAgICAgICAgICAgICAgICAgICAgICAgICAgICAgICAgICAgICAgICAgICAgICAgICAgICAgICAgICAgICAgICAgICAgICAgICAgICAgICAgCiAgICAgICAgICAgICAgICAgICAgICAgICAgICAgICAgICAgICAgICAgICAgICAgICAgICAgICAgICAgICAgICAgICAgICAgICAgICAgICAgICAgICAgICAgICAgICAgICAgICAKICAgICAgICAgICAgICAgICAgICAgICAgICAgICAgICAgICAgICAgICAgICAgICAgICAgICAgICAgICAgICAgICAgICAgICAgICAgICAgICAgICAgICAgICAgICAgICAgICAgIAogICAgICAgICAgICAgICAgICAgICAgICAgICAgICAgICAgICAgICAgICAgICAgICAgICAgICAgICAgICAgICAgICAgICAgICAgICAgICAgICAgICAgICAgICAgICAgICAgICAgCiAgICAgICAgICAgICAgICAgICAgICAgICAgICAgICAgICAgICAgICAgICAgICAgICAgICAgICAgICAgICAgICAgICAgICAgICAgICAgICAgICAgICAgICAgICAgICAgICAgICAKICAgICAgICAgICAgICAgICAgICAgICAgICAgICAgICAgICAgICAgICAgICAgICAgICAgICAgICAgICAgICAgICAgICAgICAgICAgICAgICAgICAgICAgICAgICAgICAgICAgIAogICAgICAgICAgICAgICAgICAgICAgICAgICAgICAgICAgICAgICAgICAgICAgICAgICAgICAgICAgICAgICAgICAgICAgICAgICAgICAgICAgICAgICAgICAgICAgICAgICAgCiAgICAgICAgICAgICAgICAgICAgICAgICAgICAgICAgICAgICAgICAgICAgICAgICAgICAgICAgICAgICAgICAgICAgICAgICAgICAgICAgICAgICAgICAgICAgICAgICAgICAKICAgICAgICAgICAgICAgICAgICAgICAgICAgICAgICAgICAgICAgICAgICAgICAgICAgICAgICAgICAgICAgICAgICAgICAgICAgICAgICAgICAgICAgICAgICAgICAgICAgIAogICAgICAgICAgICAgICAgICAgICAgICAgICAgICAgICAgICAgICAgICAgICAgICAgICAgICAgICAgICAgICAgICAgICAgICAgICAgICAgICAgICAgICAgICAgICAgICAgICAgCiAgICAgICAgICAgICAgICAgICAgICAgICAgICAgICAgICAgICAgICAgICAgICAgICAgICAgICAgICAgICAgICAgICAgICAgICAgICAgICAgICAgICAgICAgICAgICAgICAgICAKICAgICAgICAgICAgICAgICAgICAgICAgICAgICAgICAgICAgICAgICAgICAgICAgICAgICAgICAgICAgICAgICAgICAgICAgICAgICAgICAgICAgICAgICAgICAgICAgICAgIAogICAgICAgICAgICAgICAgICAgICAgICAgICAgICAgICAgICAgICAgICAgICAgICAgICAgICAgICAgICAgICAgICAgICAgICAgICAgICAgICAgICAgICAgICAgICAgICAgICAgCiAgICAgICAgICAgICAgICAgICAgICAgICAgICAgICAgICAgICAgICAgICAgICAgICAgICAgICAgICAgICAgICAgICAgICAgICAgICAgICAgICAgICAgICAgICAgICAgICAgICAKICAgICAgICAgICAgICAgICAgICAgICAgICAgICAgICAgICAgICAgICAgICAgICAgICAgICAgICAgICAgICAgICAgICAgICAgICAgICAgICAgICAgICAgICAgICAgICAgICAgIAogICAgICAgICAgICAgICAgICAgICAgICAgICAgICAgICAgICAgICAgICAgICAgICAgICAgICAgICAgICAgICAgICAgICAgICAgICAgICAgICAgICAgICAgICAgICAgICAgICAgCiAgICAgICAgICAgICAgICAgICAgICAgICAgICAgICAgICAgICAgICAgICAgICAgICAgICAgICAgICAgICAgICAgICAgICAgICAgICAgICAgICAgICAgICAgICAgICAgICAgICAKICAgICAgICAgICAgICAgICAgICAgICAgICAgCjw/eHBhY2tldCBlbmQ9InciPz40N7pLAAAABmJLR0QA/wD/AP+gvaeTAAAACXBIWXMAAA3XAAAN1wFCKJt4AAAAB3RJTUUH5AoTEzEWZfS8LgAAIABJREFUeNrt3XecrFV9P/DP7G2AUqWLiaCoVLEr/hQrdmLXaIwaTYyaWKLYMVETiTWWKJYYY0EsKDYUNEaJqFgpCiooUhQQ8F6KlHu5u/P74zwblrnnmZ2Znb13d+/7/XrNi8vM7JlnnnnK95zzPeckAAAAAAAAAAAAAAAAAAAAAAAAAAAAAAAAAAAAAAAAAAAAAAAAAAAAAAAAAAAAAAAAAAAAAAAAAAAAAAAAAAAAAAAAAAAAAAAAAAAAAAAAAAAAAAAAAAAAAAAAAAAAAAAAAAAAAAAAAAAAAAAAAAAAAAAAAAAAAAAAAAAAAAAAAAAAAAAAAAAAAAAAAAAAAAAAAAAAAAAAAAAAAAAAAAAAAAAAAAAAAAAAAAAAAAAAAAAAAAAAAAAAAAAAAAAAAAAAAAAAAAAAAAAAAAAAAAAAAAAAAAAAAAAAAAAAAAAAAAAAAAAAAAAAAAAAAAAAAAAAAAAAAAAAAAAAAAAAAAAAAAAAAAAAAAAAAAAAAAAAAAAAAAAAAAAAAAAAAAAAAAAAAAAAAAAAAAAAAAAAAAAAAAAAAAAAAAAAAAAAAAAAAAAAAAAAAAAAAAAAAAAAAAAAAAAAAAAAAAAAAAAAAAAAAAAAAAAAAAAAAAAAAAAAAAAAAAAAAAAAAAAAAAAAAAAAAAAAAAAAAAAAAAAAAAAAAAAAAAAAAAAAAAAAAMDmomMXAEvFDn/x7myx+yHpJJ3uxMTy7lR313S623a6STfdP3Q6ncu7U1mfTrqXvPNe6a69xk5DAACwWO360tMzlUwsm+gckOQpSR6Q5IAkq3reek2SHyX5WjedTy5f2Tm3s3JNLnztfexEBAAAi8lOh585sbwz+dAkRyS55xB/OpXkS0le3+l2f5LfnJOLjn28HYoAAGAh2+0VZyRT2TPJUUkeMoeiJpMclW5euXrl6j+u/Zf72bkIAAAWoj0OPzOTncnHJvnPJNv2eWs3yR+a/26XZEWf956V5PHpdn5+8VsOsJNZ8ibsAmAx+ZNXnJrJzuThST7dcvO/NslHusnD0+numuTW3eTWSXZLOvdN8rYkF1f+bt8kJ6fTvffuh59uR6MFAGCh2PXFZ6WzYv3LkxzZcv36SJJXTXQnLvrdW/bf4MWdX/j9LF+1ZZJs2U2emeR1SXbsedvVSR7S6Xa+d5GWAAQAAJvW7i87I93kz5N8PBu2Xv4xyV929z7vuLWfOy9rvvqCWcvb7fAz0k126nTyviSP7Xl5dZJ7XvLvh53TvfY8Ox8BAMCmsMvLfppl6e7TLUP4tup5+YpO8uCpqfzokrceOFzBq3bMLf/+vztTExOvTPKGnsDirE5yt4vec9i1uUYQwNIjBwBY4PbIRKe7olua93tv/muTPHKf3Q4Y/uafJGsvz+/eelB3/YqJNyZ5XsrQwGn7dpN37PF3X/ITIAAA2Nh2PvyrSTd/neRulZdf0u1OfOcbL55bY+Zl/7J/bsiy9yd5Rc9Lz17f7T5wzyd81w/BkqMLAFgQtn/hT7LlVstXdSdzl6TzgzUnv2/99WefmN3/6ritu+n+KsnOPX/yjU5n+YMvetO+3XFtw32P7+ack3760SRPm/H0md3koEvefOB6vxJaAADGbItVy3fvTubUJN9Jum/Y7n7PyG5/9dl0031W5eY/1UledNH7HtMd5zZc9LWvp9PtPD/Jb2Y8vV8nedqfvORnfiQEAADzYI8k+zT/flln/ar/t3xy+USS51bee9xEd9nPcuUvx7oBv3rnoVnRWXd1khf1vPSKyZVTy/xECAAAxmz9VSt+kDLEb/ra9F/rl00ekuR2lbe/c93y+WmRP//Nd8nydVd/MckpM56+3dRkHnSrl/3ED4UAAGCc1q3+btLJ4UmubJ66TZJja/fodHPKpUfecd625ZqffyFJ3t7z9NPXZ7kfCgEAwDhd+elnpTs5dUmSd854eofKW7+RTm6Yz21ZfeKbk8mpLya5asbTD0iypV8KAQDAmF3y1oPS7ebdSa7p87aTJien5n1bup3la5OcMOOpXZLc1q+EAABgPnQmLk+96X/aaZe+7aDZSnlUkmcnufPowcj+010S708ZFbA+yW5+IAQAAPPRCvDm/ZOSDFgb4tdNuhfPUsR+Sb6Q5IPNY2SrT/y3C5LO3665ZP1e6WavzuTk1/1CLBUyWoAFZ9nyqW9Nrp+4Osk2PS9d1Uln7Sx/frfcOMnZqXPZjrWnfTgXn/bhJMnFyYV+GbQAAMyj9TdMrE/yncpLk91OZksAmDls8Lf2JggAgEWi2+0myQ8qL/2hUxYA6mf7Gf+WtQ8CAGCx+P1b75jcOBHPNUmOS/LMbnKPTK2fbQjguhn/PsjehDo5AMBCbQY4IZ3OHZLOeZ3u1NqL3jLwxD/nzfj3IUl2TXKJHQoAS9tdk0yljCLoJvlSkhV2CwCj6qSsSnfrJDe3Oxa002cEAN2UhMKDo9Wzn4mUeQ7+JHInAP7P7klOnFGzXJ3kiMijWagenDJxT7fncW6STyV5bZInpQwZvFWSrTfz/XWHJN+bsZ9+l+RZDiNgc7c8yQ8rN5NukhfYPQvWC5NMtvxuMx+TSf6Q5BdJPpvk5Unuk+Rmm8l+unmS8yv7ZSrJIxxGwObs3n1uHufZPQu+JeCMAYKA2mN1ypTEj8nSziF4Wp99YOZDNosI+DZJDmwe+yTZyW6h8Rd9LpDrcuOscyxMy5M8MMkHmoBtlGDgd0lekaWZ+/GaPt/7HIfP0rW5Xri2TvLYJA9NSQzaPRv25U4luT7JmUm+m+S/m8c6h81m505JftLy2s+T7GsXzUtQfnBKH/1+TYA+3Ve/IqXZfk2SS5ub1C9Tumm+l+TyPuVOJLllknsmuXvKiIG7ZPAcgMuSvDrJh5prxFLwuLQvvvSFJI92OLIU7JXkP5JcN2ItYE2St8SKYJubiSTHp95H+ud2z9jsnJJT8a0kN4x4jk6lzCB4RJI9B6zkTDRB3kuSfLMJ8mf7nJOT7L1E9vvKJKdVvuMNTaAEi9ryJC9ravTdMTyuTfKPMVRmc7J1kqNS+oWvaWqcTxkyiNgiyQ4p3UyPThlOuLnrNLX8z8zhpt/v8c0kh2W44X+7JnlRkrNnKfvqJE9eIr/DLkk+meTK5vj+cUq3CSxqW6Zk9nbn4fGLlOZDNq/WgGH7ge+X5Gcpzcczj59lm/m+PKilZWU+Hj9L8qgMN2yzkzJU8BezlP36LJ3u1OVJtnKas1QO5i/NcvKuT+lDPD7JR5Mck9LvdWpKX+JsF5brkzzTrqaPx7ccOys30/2xVUpX2iBN7eN+fD3JbYfc3pUp/f79ug7fJ6CDheWNfU7YS1P6Cffq8/c3S0kSenPz/n79ji+yuxEAzGrfjDYsb3XK7H7HJzm6CdY/neTbTQA/TDBxTZLnjdhi8cs+5R4VI0JgQTgw7X2KH0npix3GNk3AcHWlvEuydBKCEADMl0OTXDHEjfqHKZPyHJj+3S7LkuyY5AFJ3j7LTXrm45gMn8ezfcpooLYy/8nhDpvesS0n6NvnGKXvmeR/Z5R3RSw5igBgNo9OsjaDzcr30eacGnWa5WUpM/l9OjddFKj2+G4TPAxjVUo3YVtr4JMc8rDp7Jx6f91pGc+MXsuT/FvKaID72N0IAGat+Q8yAucbKXPSj9O+Sb48y+eekeQWQ5a7MmVtiLbRAbd32MOm8YSWE3PcY7b/1K5GANDX7VKGls02rPbZ87wdj0n/PJ4fZvjRHTdP8tOW8k6JlQdhk6gl/12XxTGBz0QWxgpzkpkEAHO1Mhsuy9v7OD/JARtpe3ZLclKfbfnUCOfebfoEOP+wkc7TxbIi5fS2LrRry0Q201U9l2qEunvluWtSxmEvNDsneUhKV8Ltk2zXHIzXNdt7Tspa5ic1NZj5MD3t6v1Tmkx3bS7ekynNmRc0F/KTUsZTr+1T1raVG9vaJFfNcRsHLffm2TCxa03KcM/ei9E+KX3Td2u+8/KUpuqLmprdF1Oah5PS77tNZbumh4omZXhbbQW5bVq+044piar9XNfUkGtN1OPYr722bKkJXzHAtvZ6dUoCX5szUxbruXgjnWsXp3RHfCjJUyuvPzFlhr93D1Hmr5P8XUreQq/XpSQaXjxLkLRt5Vp1bcv7t06ZV+L+SfZPWbNkRXPc/r45Xk9ImRJ53Rx/96mUVRJHtVOznfdJ6drZsfm+a5vv+JvmevI/zXaPOs36DrnpEMzJlFEjbUHIHZI8LGUq6Fs35+xUcy79urneHt9cB1iEPlqJxi/Pwhqnu3/KzFuDTkt8XZLjmpvVuOzZXOwuz+CZ2ec3F7a2PtMTmpNp5uNTY9jWr1TK/WTlfe/pec9kkv/X854Dm+2c7bu+dcbfTHcrzSy72wQG015T2caZ760ljM32eG3KDIIXV177xTwcl++tfM61KTPFDWOv9O/3P7sJujZVje8jaR8iOGz/fac5Pmvl/ccsf/ugyrHwpsr79mjO1dUDnqfnpKzyN2jN9qWV3/33I+7fe6ZMvjbMlOvnJXnDCMfZsuam3bvdW1Te98SUaaIH2Z61zX1kd7fTxeffU0/M2WEBbNvKJP+awTKi27Kk35+5rUq2Msk/Z/Q1EaYDqudVLjC1G+unxxQA1JpsawFA7/sOnfH6czL4lNBPqgQAvY/eAGDcE9dM5628r+X1A8d8bF6Y8SwJe0z6j+kfd5Lc1ilN/IMG+cv6BIEnZvhm6tu1nNNr03/K5wdV/uaDPcHF85ra6SjHz7GVm2FbAFCbK2UYu2SwkRezrbfy90MELsuSnJsNJ2eb2RK3d8r6EqNszx9ShpeyiPxDy495yCberm2b5q5x3BhOz2g5DbukDH0a1w3qqz2B1UIMAB7TvPbcJoAa9LvtuQACgOmppu+d9mlox+Xgls8YdqbLvdN/Yp7HjLEm/6SUrqkrm4D2wuYGMojtKzeP6ceDRmw9qZX1tiEDgOmV+bZqjvG5HkNfHOCGOtcA4O4pSyaP67g/LvXutEECgG7z2yali++qOW7LNUnu5ba6eNyn5Yf8xCbcpq1TMoNnm1b47JT+53Mz++xmZ6S9fzktzYhnD3jQ35DSbz7Ie09Y4AHAXzTB3zCzxV2em+bIbKoAYOsZtfPfVF7/5RiP0X9rOSa3H7Kcd/T5Pv81pm09KCVzv+1zBk3Au39LjfWbI7QC7NnSunR5n1p4LQD4RnPz65eweHXKEtX/m+T7TbN3v+PoJfMYANw39QnSeh8XNcfw7zLYwk/fHKD1oi0A2CvJs2a5hp2TkvPx7ZRlvftVDn6TwZeMZhNbkfqQn8mUta83tokkn+9zcH2huRBskRszUpc1N5eDm+bfti6Dzw4RgPSbgvWylCmP79MEFSuaxw4pfehHJDmrJTref4EHAC9M6SesHQ9fS/LKJE9varqvSJlq9uiecgcJAB6Q5MjK43Npn5TqyD6Pf+zZhre1fIcDxnTO/KpS/peGLGdVSr5CW9P/LmPY1udl9m6cPw4RuBzdUsZ+I2xb2wRkjx0iADg99TkGbkjpl75PExB2ZnQTLG9q4W0tjFek/1wHowYA+6T/7I4nNN992+aatmzGte3OTQvWJek/MmOUAOBNLTf/nyX565SExJkjEiaa547oc2wd4da6eLypTy37ydm4Q1Fe0KeW+ZABy7hDStb0KDOPdfpc5CabGtsg0W2nab6decI9vec9CzEAqN3YftATuMxmkACgTdswwG2G3Ad3yfxNP3unlrKfOmQ5D+pzMX/1HLdx2SytC72PQecWuG1LjfTIEbbx0JZt+fgI+2vm48wBA71lac+/ePGYA4AtWq5J3aaW/+AB99nNc2Pybq2svxkhAOh9rGtahQbJEXlgS4Xrtxksn4IFYMeUBI5+keXtNsJ23LKleWx1ypC7Yb9TrQn/3FluRIf1OSmeMsJ3ulmSjyX5QOW1hRgA1JLahj2RF0IAMJH60rRnjWH/Hpn6yJNhmz3f1qcGuv0ctm8i7YmQbY+PDVH+58e0X1el3hx/SerDrgcJAE4c8ljZJhsuPT09OdE4A4DXp32Exx4j7LsXtQQBq1OGFI4aAKxpburjOI7N/LqIPCH9+3Ummya7+2X+hgi23ZAeOWJ5d0u9L/sv+zTtti2O8twxNBsvtgDgvBFvRAshAEjKEMzaktb7zWHfLku9e+ezI5R1Wst3/eAcf/9X9Qlij0ny/Gw4K9+Phyj/0S3ljzJU8RMtLXX7jRAAfGXAY6zX2ytlXdnn2B82ANg1pfuv9hlzGeHxrpb98I4RA4A1GW3o9G1a7h26ARaZwzNY5vfPm6bU/TK+WaG2SxlDPe4bYm2egx+0vPeJac8Mno9ukIUeADxqDsHkQggA9ku9b/M1c9i3+7Rs3xOGLGeb5oI77hE492k5hy9IyZGZtlfPTWn1EJ+xfUrewDhGLDy7ZR88fcgA4IcZfrXCaQ9rKXPfMQUAbbX/v5/jeb5V6vk6V6aew9AvAFjbVO5GdW6Gz0lgAXpqhhsKcnbKJDD3nuNN8jktNYG5jt2+c+WCuK65APaqJQXdkPlbvnghBwDfnmNr0kIIAJL69LpnzOG7/WPqWeY3G7KcvdOe/DfqIlwrmuC8t8xfJ7lV5f0f7nnfMLOdfrvyOa8b8fysNWW/ZYgA4PKU7sNR7dUSND14DAHAsib4GrYrclDPbNknzxkyAHjeHLfjS5Uyv7OUboyby/zHR6ckOX11iAvZS1KGiPwyJUt85xE+94mV5344x4t1Uob//Lpyobx/z3O7t0TAX0gZArO5edMSOp577ZvRVtLrpDR/9/pyU5seRlu/748z/DTCM28Gvd/r6iQPTxnz3+sTlVaJQf2w8txtR6w5Xj/Hsp6Xkkg3qsubIKTXOIayHdzyW38w/acJH9QnU5+CeJh8pRNSckbm4pKWFgoBwCL06ySPSEkGOWnIWs0bU8aBfrCllp2WE+3eleePG9P3+e/Kc73NrIe1tGB8eDO8+Z+fm85XsJgdmw3XNliW0Zqr90oZU9/rmBHK2qVPADCKTlMz7fXytM9/8KOUpvxpw7Ri1KZWHmUq2CtSEih7DVOj/585HiPTQ9l6jWP9l0dUriuTGS1npOa6lBa/Xgdl8Pyd77UEQMPuwyVtc1sBqducWPdPma/6Yy0naloiv2enNEe+J6V/f7YoedWAN+5RWwF63bHn/2vNfVc3LRubm09VbpqL1bnNja7XE0YoqzYvxpoRj9Mt+gRfo7hXNuyq+lXKYj5t1vR83jCjPWqL9mw34rbXarDbbuRr3XypXVcuSOk6HZevVZ7bJsMN3V3I+1AAsIkDge+nZM7vnNLMeEIGa75amdI897P0nx7yri0333PH2KLRa7fctInq4Mp7zkpJqNncfu8vLLHvdHRLADhsbkctAPhy2lejG+V6snrE73hY5bkPZ/ZV486c8e9hcg9qlYFRRwfVriUrlsBxt03qXRnfH/Pn/LilBn9QEACM0R9Tpid9WMrQlqc2F8DZgoFbNq0JD295vTZpx+VzuBj2uqxygmydGxcJ2iX1sbOnb4a/8WXpPwZ6MTo2G/arT2S4boBbpT5EatQps9tyBiZHLO+QAWuGtdrotGFyD2qtBaM2A69cojXKW6WeV3HmmD/n16m32O0bBADz5Irm4veolL7RV6d/Is4WST7TUtuv1cTGub70NZULyha5sc9zr5bfd3NM/vtt5t4fuNBcknouy+OHKOOx2bAv99KU+eVHcWmfWuMoei/265rfcpCALykT8gzT4lbr7//DiNu+/YAtDIvNn7Y8f+6YP2ddy/G0Rxib5XZBq4tSkv/enuQZKeOsa0k8W6Vkrd6xpwZ0y5ZawaMHCLwmBvhtdkg9wW+65rFry+sX+WmXjE9kw1Xr7pqyKM1vBvj7WrAwavN/Us/Knz4Wh7VNNsy4XpvBuumOThlq+8khWx9qrXbnjbDt26W+XPeFS+CY23XI4G8uLqvc8Hd12gsANqbrU4aTHJPk3UmeVnnPbVKylV/XExj0ulvGNwqgzcoZF6Ga1X7SJeNzSY7KTZNNO03N/m2z/O1uKYmwtaBiVL9PScLrrf3uM0JZy1quV4P0o/8uZQXIYXRSn+b1pyNs+96pdyecuwSOubZExqvn4bNqZZqLf4x0AQzuypSZvI5qef35ubH5fXk27mJDM93QEwikUoti6RyTX22p2c92/B1WqQBcnLlNdHJ16l1M9xihrOlZ+WbaMmU9jPlw+2w4iiYZLXfk7i37/7QlcMzVArNuRp/noZ9asueKTXhtFQBs5qaXlq1NGLJTykpgyabtb75ugO/A0lGrsd8zs/eV1oYMfjFzH/v8zcpzt05733G/QLbW/37wPO3Hf6g8d2mSU0co66Etz/94CRxvtcS8zjzdlGvBxqRrmABgU7ohyb+0vPaIGQHApggCrp8RALT1fa7yEy4px+emE99Me1yfv9kp9UmqjhnT9tRqbY8YoayzBgxc5uqAlDyfXp8e4WazbZL7Vp6/LGXo8GLXFiCunIfPWtVy/WVM5ACM5sSU5tfe/rC79tTEe7OfT0kZpjVfKw9OpQw1TNr75Lb38y0p16bMcfDUnucfn+SdLTewh2XDvtTfZTzznJ/SlNWbBPvMJO8dsqzvJ3lAz3MPTBkdcNaY9t8WKcOAa7kFo6xgeFjqox7+N7PPX7AYXNXy/Hbz8Fm1xX/WOOUFAAshCj4rG04EtHMTCa9L6U/dpXLzvWQjbePvW56XRbv0HF0JAO6dkuhXG/VRW6PicxnPTIk3NNvzsp7n75LSfP/dIcr6aso6HDMtS1nT4c8y91a25Skra9655bOHTQDspH01vE8ukWOtbRTRLvPwWbVr1cVO9/HRBTC62vwAK2fUJC6ovL5j6sOD5sP5qXcD7O2nW3K+mRvHvs9U6wbYPhtOsDPuZU4/UKntdpK8dshyTk59GuFHJvnbOW7jls1NudalMJWy7vuwzf8PTH1ipTUZfCGyhe7ilv1y2zF/zk6pr+NwrtNdALAQ1GpLM0+M2sxYt8jclvgcxm9Sn5ntjn66Jef6JJ+vPF+7uT2oEoReOGTNfDa/Tn2460NSuh8G1U3pxqh5Z0tLxiD2bYKLtjyJD2X4hL1lSY5see3DGX5lxYXqt6lPJT7uKXr3S72F+gynuwBgIagtqzlzopK2IT8Hb8Rt/EHluf0z+sxsLFwfrzx372zYjPqkyvs+k/FnVh+Rep/3e4Y8/t6femva8pSuhiMyeFfmDikJvD9Kvdl/uoZ5+Ajf9zmpzwi6Lsm/L6Hj7JrU1yG5S8bbpXxwS0D4E6e6AGAh2K/y3O9ntAycnHoT/GEbcRtrK7ptu5GDkGQ8Q4SM/e3vlMqNcqKnlrtNNkyq66Zku4/bOamvx75nkncNUc61KYtvpSUIeH0TbD8j9TkCtkzp8nhvc+N6VfNczR9TJlEadrGsvZP8a8tr/5nBZmVcTL5ReW7XPkHVKGrXyfOX4L4UACxC+6YsitFr5hKtF6U+7OfQlGTBjeGLLc8/ax4/s1bru9kcy9wr9VnauOl+/1zl+ZnN5Idkw1Eg56XeUjQOr009V+bpSV48RDnHp715fToY/3BKV8Y5Sb7V3KTOTMmN+FaS56Z/pvp1KdN0D7tY1pYp+RO1FsGrctPZQZeK41NvMfrLMZV/+6ZFoddXMvrCUmxGAcDylGzc+Vp+8+9SH8rXm+hTW7J1qz41mnH7eepdEY9Ocod5+szaMJ1bzfEY/cAYgohNqe2iNe6x07VJgQ7Ojd0Ateb/+cxOvzKlabzmrU1te1BHJPmPWd6zRUoy2iFNS8e+Ax43f0jJT/jGkN+vkzKK4E4tr786G2/Uz8Z0cktg97TUVyAd1otS7074uFs2g5yUH2wi1G/PQ237bk1tq9vzuKxysdkppQmz971/TJkdbWMEcc+pfH43ZVnV+QgA/6nyWddk9NEPr2vZ/rbM9fdU3jeOGdie0LINg0ysdGjL3447CFuW5OzK5/xtE3heWnltYySFvrvl+6/LcMsXT6Q0+a/vc0wM+zhlxHOxkzIteFu5/5PB5vt4UMvfz3XK4xUt16m2xMmXVt7bb4GfV7Vs91Fz3O4DU5Jae8v9YZ9j/tzK+187huP2XZVyTw0LWu8N4/cpw4bG0Yd865R+1tqB/8YhDqJuyiQnW80x0Hl2U2vp19KxZROtd8d8kmyXepPfYS2f9bgRPuPpKUOyFnsAsE/L3z55Ho7/f658zjebGnHv8z/fSOfkquZ4bwsCnjlkeQ9otn0uN/7LU1oJR5mUa/mMSka3pTIw6LK1izUA2CFlYbHev5lMaWEcxTYpWf69ZU71KVMAwP/56z43jM9lbmPgH5rSr18r+/dpn2HvFilNjG21hFFm5rttbuyH6yZ58yzvf2qfi9U/jXARfEhK3/FUNpz3fOemxl87cQZt8u4kecEANb3FEgBs1bJPBl0ZcpiurANz43zp04/rUvJBar/9xrJ7c8y0/ZZHZrgs8hVNAPr9lMmHBrnpTyb5ZUqW/6gjYXZI6epr+4y1Se4/RHmLNQBIyroo3ZYWzoeNsF9Painv67O0egkASJI8OKXfsduntvHxlD7CQS7cnZSVzD4/y0Vltoj3yX3+/vzm7wdpjt+raU69rqeM9c1Nud/3+GyfbfhWZl+xrZOyyMyXe/72kmw4C9gXWj7nM6knS/V+x9q2XreIA4CkdLnUajZP6/M32zY3q5+lfRnWmp8OeEO8/UY+P/fvEwx3m9asPUYo97Ypia3vb4Lqn6YkA56RMhLmqKa1bJ85bv8hKVnobds/1VRChrGYA4BlKVMc17Z/fcrIiG0HuK48os9+XZP+C0kJALiJg2apaUw/Lm5qRa9LaWp+TEpXwZ+l9Jsf1dQWZivniAG36x2zlHNmsy2HNhfKfVL6Zx+ekkx0UlO7aPv7U9O/m2PblAznfhevHzVNyH8+Y1/8TXNT7dfk+pUrZrnXAAAGtUlEQVSeAOYelVro9OOCZp/dO8ltmpP7gJT12z+bev/flU1z7WIOAJ7UJ4A8tgkC79G0qDy/+W5rZrzvrUNs6ysHOG5Py6YZWnmXWYKA1SlD+hbSsM9bNMfVbC1SLx2h7MUcACQlwffi9O9qeX9KF+AdU/Je9kuZNfE1s1yT1jXXv9mCEAEAGzQnHZvxJQr1u/kPeqFaljJUaT624+QBa067DlE7HOZxTKWZ+r0D/N36lovUzMe1zcXiXos8AFjRbMeo+/i6JLcbokY8W7P4qzbh+XnnpuWoO0ur1J028XVk6yQvnyVgmQ7iXjDiZyz2ACAp3U6XjPmackNTKRjkuioAoNq09LhZmuzmkkD02BG2aVlKv+u4spivb2p7w/QRb5d6f/Con//iliBoVdP8OpfyL86NCy7daZEHAGlqPlfMYX8MM2HPD2Ypa69NfH7uOUAL2/TCQvtu5G27Q9PisnqA3+SazG2J4qUQACQlQfqMMV1XLs2GuUUCAEayKmUSkLPHcGBe2xwUcz05754ypeWo27E+JZdhzzkER89Me1LjII/jMntS5RYpY7eHLXsqZUz7Tj0X5cUeAEwHMueNsD+OS/InQ3zOC/qU94MsjDlABg1G16ck8d4/89c1sE+SVzTn5eSAv8svM/c58JdKAJCUEUdvSH3o86BJmkdnuKHbAgAGvulNTwl63oC18KmUfveTUib/2WHM2/OwplZ3dfoPd5u+CJ6Tki2955i2YVVK8tTJAzQZT6YMJ3zXCDWyQ5KcmNmb+69O+/Ksu6cswXz6jMdbKu97dUq+wi9Spn49N+NZie3QlO6TmZ9/RkabzGeblASpNbMce1cm+Ujqc8zP5pZ9amQvXWDn5cvTP7+lN4fkHSlJrzcfIZDpNDfH/VNyfT6WssDNsDeq92U8k1Pds/mdZh5XZ6X/rIWDWN4EvjPL/Wnak4Wf0fPe01O6YUaxSxNM/WKA6+xk09L3zhFbeiZScpB6t/05Y/htXlEp99NZQjbn+dVvlZJ8dpuUvvGtm4NpsrnwXtgcwD/J/K/ktaK56e2TkhS3dXNjuT6lb+3XzXZcOI/bsGPTMrFPcwJv1VyU1zQ30dOaC9Nc7JzSpH+Hpna/RVNb+G1zETyl+c6bi62aWu2dm30z3aR8QbM/fpj61MrDBC0n9jy3PqX5/8IFti8OSsmRGaZGPZkyQuKsJjj+bcoY/Gua77m8uZFOr8K5Z0oexX4ZfQ6O05rWlW+rUw18nb1zSl7KjjOuK1cm+VXz+51pNwGMV615/WsLeHuXNTfXQfreN/bj7JR5B5Y5rABYyPZJvfn1kYtg23dM6SK5ahPf9KeSfCdlCOcKhxQAi8GnKje0szLeNdvn204po1zO3QS1/Tel5AkAwKJx35ba/1MX6fdZ2XynD6XkLoz7hn9VypDVl6WMaV/uEGJz0LELYEnZJWV+/N7pU09NWclysa+nvjIlifQBKTMnHpiSYDboaIw1uTH57CdJvpuS7HutQwcBALBY7ZEy5LG36XoqZTbFby3B7zyRkpi3a8pQ0Z1Shgcuz42TVV2ZMqb9/JQRAtPj/AFgUVuW0rx/WepN3G+ziwBg6dgmZUbHflOwfjUy2AFg0dsuyfNSpgaebZjciRnPbHUAwCZ2xww2fv09GW2aYgBgAdo5JZGt7eb/s5Q1JgCAJaa29vr3kjwl+vuBAZnwAhafC1L69n+UMoHN51NWQJyyawBg6dpZTR8AAAAAAAAAAAAAAAAAAAAAAAAAAAAAAAAAAAAAAAAAAAAAAAAAAAAAAAAAAAAAAAAAAAAAAAAAAAAAAAAAAAAAAAAAAAAAAAAAAAAAAAAAAAAAAAAAAAAAAAAAAAAAAAAAAAAAAAAAAAAAAAAAAAAAAAAAAAAAAAAAAAAAAAAAAAAAAAAAAAAAAAAAAAAAAAAAAAAAAAAAAAAAAAAAAAAAAAAAAAAAAAAAAAAAAAAAAAAAAAAAAAAAAAAAAAAAAAAAAAAAAAAAAAAAAAAAAAAAAAAAAAAAAAAAAAAAAAAAAAAAAAAAAAAAAAAAAAAAAAAAAAAAAAAAAAAAAAAAAAAAAAAAAAAAAAAAAAAAAAAAAAAAAAAAAAAAAAAAAAAAAAAAAAAAAAAAAAAAAAAAAAAAAAAAAAAAAAAAAAAAAAAAAAAAAAAAAAAAAAAAAAAAAAAAAAAAAAAAAAAAAAAAAAAAAAAAAAAAAAAAAAAAAAAAAAAAAAAAAAAAAAAAAAAAAAAAAAAAAAAAAAAAAAAAAAAAAAAAAAAAAAAAAAAAABjU/wf76RB9/t+K1gAAAABJRU5ErkJggg==;" parent="1" vertex="1">
          <mxGeometry x="-419.46" y="545" width="162" height="162" as="geometry" />
        </mxCell>
        <mxCell id="fRJRQyjmohF1RWEmSn1R-4" value="" style="image;html=1;image=img/lib/clip_art/networking/Firewall_02_128x128.png" parent="1" vertex="1">
          <mxGeometry x="-375.96" y="340" width="75" height="70" as="geometry" />
        </mxCell>
        <mxCell id="fRJRQyjmohF1RWEmSn1R-3" value="" style="shape=image;verticalLabelPosition=bottom;labelBackgroundColor=default;verticalAlign=top;aspect=fixed;imageAspect=0;image=data:image/png,iVBORw0KGgoAAAANSUhEUgAABAAAAAEtCAYAAACWFxLMAAAABGdBTUEAALGPC/xhBQAAACBjSFJNAAB6JgAAgIQAAPoAAACA6AAAdTAAAOpgAAA6mAAAF3CculE8AAAABmJLR0QAAAAAAAD5Q7t/AAAAB3RJTUUH4gkQFC0LZoatDAAAbpVJREFUeNrt3XecXUX5x/HPbja9bwIksPSeQ1t699D5eVUsCKiAKCpFRfTnWlAUu3hBsFIUREWqdI6ACl4JvSWUk4QW2gIpm03vye7vj2f2xxqTsHf3lplzv+/Xa18KpJw7Z+45M8888wyIiIiIiIiIiIiIiIiIiIiIiIiIiIiIiIiIiIiIiIiIiIiIiIiIiIiIiIiIiIiIiIiIiIiIiIiIiIiIiIiIiIiIiIiIiIiIiNSQumr9xWNbJg0EBgMDgH66FSJB6ABWAkvb8s1L1RwiIiIiIgoArG3CPxzYFtgV2AXYCtgIGOGCAHW6HSLeWwUsAGYDrwHPAZOAaW355nY1j4iIiIhIjQYAxrZM6gfsAOSAo4GdgTGa7ItkyjzgeeBe4HZgclu+ebmaRURERESkBgIAY1sm1QG7A58G3g9sqqYWqQltwN+BK4CJbfnmlWoSEREREZGMBgDGtkzaGDgd+BTQpCYWqUntwPXAL9ryzc+rOUREREREMhQAcKv+MfA94ECU5i8ikALfB25RNoCIiIiISAYCAGNbJvUHTgHOAzZWs4pIN/OBnwM/b8s3L1JziIiIiIgEGgAY2zJpEHA2cA4wXE0qImuxAvgdcG5bvnmumkNEREREJLAAwNiWSQOArwDnAkPUnCKyHquBy4BvtOWbF6o5REREREQqq74Pk/864JPYyr8m/yLybvoBnwVaXPBQRERERERCCABgBf/OQ2n/ItJz/bEtQ8eNbZmk1hARERER8T0A4I76+z4q+CcixRsOfAfYWU0hIiIiIuJxAGBsy6R+wOnA/mo+EemlbbGtAIPVFCIiIiIingYAgF2BT9O37QMiIh8EDlcziIiIiIh4GAAY2zKpwU3+N1HTiUgfDQdOG9syaZiaQkRERETEswAAsD1wjJpNRErkYLSdSERERETErwCAq9idQ6v/IlI6w4EPu9oiIiIiIiLiQwDADdSPBurUbCJSQoegwKKIiIiISNk1FPFrtwF2UpOJyFp0AKuA1e6nw/10rvHr6rDAYz3Qz/00AbsBr6sZRURERET8CADsBoxRk4nU5OR+CbAQmA3MAWa5n9nAXGABsMj9uqXAcmClCwZ0up+uif8A9zMYGAIMBV5SM4uIiIiIeBAAcPv/d0FH/4nUwmR/HvAG8DIwDXgReBV42/23BcCKtnzzajWXiIiIiEjGAgDYat2Wai6RTJrrJvlPAI8Dz2Hp+HPb8s0r1TwiIiIiIrUVABgCbKTmEsmMWcCTwH3Ag8DzQHtbvlktIyIiIiJS4wGAAcBINZdI0JYAk4E7gb8DU9vyzUvULCIiIiIiCgB011W4S0TCMxP4J3AD8EBbvrldTSIiIiIiogCAiGTHG8DNwDXA5LZ88wo1iYiIiIiIAgAikh1vAdcBfwSea8s3d6hJREREREREAQCR7JiPrfj/FnhKE38REREREVEAQCRbOoAHgAuAv7flm5erSURERERERAEAkWyZCVwCXNqWb56p5hAREREREQUARLLnAeA84F9K9xcREREREQUARLJnGVbg70dt+eY31BwiIiIiIqIAgEj2tAE/Bi5ryzcvUXOIiIiIiIgCACLZ8yrQAtyslH8REREREVEAQCSbpgJfbMs336umEBERERERBQBEsuk54LS2fPNDagoREREREemtejWBiNemaPIvIiIiIiIKAIhk23Tg85r8i4iIiIiIAgAi2TUD+HJbvrmgphAREREREQUARLJpEfAd4E41hYiIiIiIKAAgkk2rgF8Cf9RRfyIiIiIiogCASHbdBlzQlm9eoaYQEREREREFAESy6Tng3LZ881w1hYiIiIiIKAAgkk3zge+15ZunqilEREREREQBAJFs6gSuAm5XU4iIiIiIiAIAItk1CbhI+/5FREREREQBAJHsWgz8rC3f/JqaQkREREREFAAQya7bgTvUDCIiIiIiogCASHbNAH7Zlm9eoqYQEREREREFAESyqRO4FnhCTSEiIiIiIgoAiGTX68AVbfnmVWoKERERERFRAEAkmzqB64GpagoREREREVEAQCS73gL+0pZv7lBTiIiIiIhIpTSoCUQq7g5gShY/WFNjS717rgwABrr/XwesBlYBy4CVre15bX0QEREREVEAQCTT2rHV/+AnwE2NLXXAGGALYHtgG2AzYBwwEhjcLQDQAawAFgOzmhpbXgOmAc8CL7W25+eqa4iIiIiIKAAgkiX/IvDK/02NLRsB+wFHAPsAWwIjevE86QDmAc83NbbcC/yqtT0/S11EREREREQBAJHQLQOubcs3Lwt04r8NcBzwEWACMKiPf2Q90IgFE3YF7gQUABARERERUQBAJHiTgEKAE/8xwMnA54AdyvTXqCCiiIiIiIgCACKZ0AHcDMwJbPK/J/B9LN1fzwsREREREQUARORdtAJJW745lIk/wHuBi4DtdPtERERERBQAEJGe+SfwYkDXexRwCVbVX0REREREMqBeTSBSdkuBW0M5+q+psWU3bOVfk38REREREQUARKQIzwIPBzL5Hwv8GNhRt01ERERERAEAESnO3QRQ/K+psaUeq/R/pG6ZiIiIiIgCACJSnHbgrrZ8c2cA19oMnAH0020TEREREVEAQESK8yTwnO8X2dTYMhD4AtCkWyYiIiIiogCAiBSnE7inLd+8KIBr3Q84RrdMREREREQBABEp3mzgPt8vsqmxZQDwKWC0bpmIiIiIiAIAIlK8p4DnA7jOXYCjdbtERERERBQAEJHidQL3Akt8vsimxpY64MPAhrplIiIiIiIKAIhI8dqBf7flm32/zvHA+3S7REREREQUABCR3kkJI/3/QGB73S4REREREQUARKR37gcW+nyBTY0tDUAOGKDbJSIiIiKiAICIFG8JcH9bvrnT8+vcFDhAt0tERERERAEAEemdV4DnArjOvYHNdLtERERERBQAEJHeeRKY7fMFNjW21AMx0F+3S0REREREAQARKd5qYGJbvnmV59c5BthXt0tERERERAEAEemdOcDjAVznBGBr3S4REREREQUARKR3pgLTA7jO/YHhul0iIiIiIgoAiEjvPAQs8vkCmxpbBgMH6laJiIiIiCgAICK9swx4MIDj/zYDdtHtEhERERFRAEBEeud14JkArnMPYJxul4iIiIiIAgAi0juTgBk+X6A7/u8goEG3S0REREREAQARKV4HdvzfSs+vsxHYW7dLREREREQBABHpnXnAYwFc547ANrpdIiIiIiIKAIhI7zwPvBjAde4PjNDtEhERERFRAEBEeudhYL7PF9jU2DIIHf8nIiIiIqIAgIj02grCOP5vU3T8n4iIiIiIAgAi0mtvApMDuM7dgfG6XSIiIiIiCgCISO9MdkEAbzU1ttQBBwP9dbtERERERBQAEJHidQIPAss9v85GYB/dLhERERERBQBEpHcWAA+35Zt9v84d0PF/IiIiIiIKAIhIr72IHQHou/3Q8X8iIiIiIjWtQU1QczqwdPUVwGr3z13V6+uBfq5f9Hc/ChKt36PAXJ8vsKmxZSBwEFCn2xW2KE7qgQHuu9ngvq/13e5tR7eflcAqYGVayK1W69Vkf+nn+kvDOvpLp+srq7v6CrAiLeQ61HrSx75X5/rewDX6Xvd+1+H63SrX71ap5YK+1/27PWvqut3vjm73vOs5s1L3u6bHMf3XGMf0W2OM2v29pOeDAgBShMXAHOAN4HX30wrMws6rXwwscw/iTvfFa3AP8UHAEGzFeDSwEVY9fmP3Mw4YBQyu8TZeCTzQlm/2fbC8KbCrvhLBTNhGuO/XuG4/44EN3b8f4b6fg933tevl2elemKuxAN+Srp8oTtqBNmA2MAOY6X7agQVpIbdUrR9kfxnk+sOYbn1knHtmjwVGAsNdfxnULRjQfSK2CgsKL3XvhYVRnMxx/eOtbj8zgXnqK7KWwfwoNzbYHNjC/e94N34Y4Z5VA91zqnu/W+HGIUuARVGczO/2jHoLeNv9b9dzSoHM6k3wh7nnyYbu3m7k7vlG7j6PBIa658ygbhM7ur2XVrrnTNd7aV6399Ksbu+mNmx75aK0kOvUHQiuv/R3753R3d5HXf+7gfv3w9cYx/Tv1l9Yy/NhYRQnc10/6f5eehtbhFNfUQCgpif8rwFPA08AzwLT3YN0YSkmqWNbJg10X9ox7iW/g5tYRsDWWKG5WlplngE8FcB1NrsXtfg3cG50AZrtgAnuf7d0A6wRbtBV6ud0h3te/H+QMIqTV3lnO8vLrm8v0EqwV/1liBtAbQVsD+zonrubusn+MDegKnXW1nI3GJ8DvBbFyfPAM0Da9Y5RP6m5vjgC2BbY2/1EwGYuEDCwRH/NaveMmu8G+i9HcfKs63tTgbfSQm657kbZ7u/GWN2gCW6styXQ5O7x8BLeZ7oFhZYBi9w9b3XPm5fce+kl9+/mpYXcSt0lb/rKgG5zgu3ce2lb9zwY5/rK0DKMY1YBC4F52ALnS1GcPOfmPi8AM9NCboXu0Lr1aLI2tmXSOOABN9gQf8xznf3fwETgOWBWW765YmkyY1sm1WHRvK2APYH3AHthKwBZDzD9DTi2Ld/s7YqYO/7vV8DnPW/LRcDhre35RzP8osS9KLcD9nDfk526DZx9+L4sw1bbXneD7KewoOJLwGyl4FW0vwx2k/ud3SRrNzew2tANqKqps9vAa7IbHzwGvJQWckt09zLZH4cCuwBHAIe6Sf8YKh/0X4at+j3jxj33A1PSQm6x7lKv7+0wN8Fvdu+lXd14f0wZJvq9nezNwwJBL7j30iQXGHg7LeSW6S5WrK80uIn9BNdXdneT/vFYFki1FwEXu37yHPAQ8LB7PszV3ctWAGAZcAm2YuXTynMn8D7g6DJ17meAe4B/AGlbvnm+Lx98bMuk/m7QeoBrg4Pcg8E304DLsZS03n53JgMTfT4BoKmxpR+QwwIynWXo51sBZ9D37SCZDAC41MlNsODYocC+bhI3KqCPsQDbSvS0e6E+DryQFnLz9AoteX8Z7SZWBwEHusn/OCw90mcdWGrmZODvwH3AtKyt0EZxsgnwZSzbwkczgF+UarDrgpZbAkcBH3QD/kbPPvMc4EngdjcuelmpwD26t41YQOcQ97zZEQsuhlL3aanr7ynwiPuZgq38KiOptH1lCJYNsj9wsJv0b4plnPluHraY8S/3bpqUFnILdFfDDwA8Dxzalm9+y6eLGtsyqR9wHXBsCSdar7rOewvweFu+ud33zjW2ZdIALEp4jGuLHfnPPT7VdFFbvvkregT0OcCwIfBPN1FRAOA/B1d7Y0GwQ9yzc2BGbns7FkCbiAUhJ6WFXLu+Db3uKyOwFbcjeWdldWTgH2uGGzPcAvwrLeTezsi92hUo4G8A7yXgkLSQa+3j56x3z/QTgA9hQUvfJ4Yd2JaU24C/AE9rIvhf93Wwu6/vxYI6E8jO6UCL3f1/xL2XHgFaFQzqdV8ZiG01O9S9m5qxLWghb/NdgGWP3IZl8L5Uy8+I0FO0n8SKh/hmMyzFt69WYisqNwB3AC8GUHDu/7Xlm1e46588tmXSldgKwilYKms1BxMr3OBU+m4Otiq8c603hFvt39pN+o91/XxoBj9qI7YSsD+2teTZKE4S4E4s1U77M9+9rzS4SdXRwPuxFZWRGfqI49x34ANAGsXJjcBNwIuBD8i7itf5alUf+2Udti3p0+7+NQV0b+qxVcr/dYGLG6I4+V1ayE3V8ybZEDgMOA7LLBqbwY851I1DdgY+iQXD/hnFyW3AY2kht0hvnh71lU2wRYtjsEze8Rn6eCOAGNuq/EUgieLkWuDJWqwXEHIGQAfwhbZ88yW+NerYlkkfwjIABvTyj1iORS+vAu5qyzfPzEqHG9syaRPgY8Bnsb3Q1fAKcHhbvnm6Hvd919TYchxwNX1LUw42A8CtlkXAicCH3XOyFo9cfBtbebkGeEB7ctfaV4YB+7mB+JFYsLhWvAzcCPwJmJoWciHev12Aez2eQE0DjuhNBkAUJxsDp7rJ/xYZ6XMvAZcCf0wLubYafN5simVwfAILSA+g9izAFimuAe5JC7lZehP9Vz/p7wInH8EC0jvg/7azUpkN3AVcCTxUSwsYIQcA2oCj2vLNXlVhd0XxLsT2CRZrJVaw4vdAEkKafx/aaQfgC+7FNKrCf/0twAkuQ0H6HgDYEtsGsFWtBQCiONnBDZqPq7HJ3PosxPaAXwHcq6JwEMXJGDfhPxHbbzu8hptjOvBn4Kq0kHtVAYDqBgBcFe8c8DVs21J9xvrbavc8+hFwfy2khEdxshFwPBbM2TmD97Q3VmDp338AblUg4P+Pkd3fvZeOJlur/cWag20NuBTLCMj81oCQtwBMw6K7vhmJFfoqRidW0fQy4Oa2fHPmI9Vt+eZpY1smfRkr2vMtYJ8K/dWdwAOa/JdUK1YBfKta+cBugPVJLJNlG3WB/zAcSx88DLgripPfYBkBNXeGt6sF8X43EN+H7NSB6IutgO8CH4ri5NfADWkhN1/NUpX+2QR8FduaNzKjH7MfdnLBTsCFUZxcnhZyCzN6P4e4581Z7nnTT738/w1wY/M9gZPde+mOWtwa4Cb+B2OLF0cSVlHichnj3tNHAVe558TrCgD46WFspck322KFM3rqdWzF/6q2fPMbtfRta8s3rwTuGNsy6WngG25CVe6qovNd35FSzf7b8yubGlvuw1bBM73S4FLljsJWy/bXAGu9hgEfxfbc/TmKk1+nhdwrNTLAGoYV2jod20c5QN3hv+wC/Bp4XxQn5wMPq2BXRfvogcCPsYyUWjDefd6dozj5TtYG91GcNGPBnA8SRnX2as57DsDqrvwtipMLgUdqJDOkH7YF7Qws62ekusN/2QQ4Bzg6ipM8cFtWj5kMdbC+HFvF9fELuw8wuge/bhG2F/KDwA9rbfK/RiDgdaxwz1exfcTl9CJ2eoSU1sPAzCx/QLda9lMsffkgTf57bAPgK8DNUZwc76oLZ3aAFcXJe9yz/SqsmJIm/+s2ACsUeAPw1ShORqlJyt5HG6I4ORmrlH9QDfa3TwJ/iOJk54zcz2FRnJyJFdn8uCb/PTYY2/N+I/ANt00ry9/7HYCfd+snmvyvWx1WyP33wMVRnGQyuzXUAEDXmdReGdsyqb97ob5bbYUngc8Ap7Xlmyd5GsiodBBgKbb35lTszM5yeRSYi5Tay9iJD1l8cRLFSQxci9X20CSld3YDfgfkXTAla/1kS+B8N6D8kBtgSs9sgq3OXhHFyU5qjrL10cFYMO6X1HbNkkNdEGDvwO/nNsBv3cRuS/XwXj97fgD8KYqTPTP4nR8VxckXsP3tZwEb6pb32DDgNOD6KE7e6wo+KwBQZU8Bb3l4XeOxszLXZYF78R7blm++vi3fvEzfr/8IAnS25ZvvwvYjPlGGv2IlMFEBl9Jrbc8vBf6F1VjI0stzILbP/2rs+KQ63e0+GY4dv/OXKE72z0gfGRTFyQnAzVgm0wa6zb3SgJ2icV0UJ8dkbbDlQT8dgqW2nodW/8BW+H4Xxclegd7PQ7DK9ieh2iJ91Q/bsnVdFCcnuq1+oX/f69w79s9YgGg73eZe2xPL6PtKFCeZOdo5xBdsVxE3H49q2AXYdB3/7Vls1b+lLd/8qr5P6w0EPIZlAjxS4j/6LSx4JOUxEZiXoQHzcOBc9/LcRLe3pA4Gro7i5ONRnDQE3Ee2Ai7CMht2020tTbNiqZdnuRVr6Xs/Hewm/y0oM2XNMdtvoziJArqX/aI4+QTwR2Av3cKS2hr4DfDtKE5GBPx9H4UFo28A3kftHOlXThsAP8QKiY5TAKA65mJp3F4Z2zIJbIVw0Br/aSVwHXBcW775RlWf73EQ4BmsgFYpJ+zPYNtHpDymAmlGBsxjgDxW7G+Ybm1ZbIkVgfuSq0ocUv+oj+LkvcD17jmlPlLiVyq2JeD7UZxotbpvfbU/lvr7FbRSvDZ7AhdFcbJJAPdyAHAm8CvWvdgkfTMC+KbrE+MC/L7vjAVQf4IWLkptIPA54PIoTrZVAKDyngde8PShsd8a/64dS7c7vS3fPE3fnaKDAE9j6cIvluCP68ocWa6WLZsFwP0ZGDCPBS7EUv8VOS+v0dj+y3NDSa1zmSEtWErgnrqFZTMYOBtbcdG2it711TrgE25Co5X/dTsc+K7PzyA3+T8L+BE9KzQtvdcf+BSWHbJ5IN/1flGcfBhbcPwIYZ/y5rM67KjNK6I42UUBgMp6BDvKzTdbAzt2++cXsUjR+W35Zp1x3PsgwEPYKmxbH/+ohej4v7Jqbc93AgVgccAD5tHAz7B9ldqDXLmJ3lex1d4RnvePzbA6Lj9Ae/0rocENxC+K4mQjNUfR3uP6qrIo3n1QfxJwigua+PbcacBW/r+L1VGRyvSJDwGX+F4F3h0724JtRZugW1cRB7kgwO4KAFTGCvw9/m9vYEy3IMXJbfnmm9ryzav1PemzO9ykrC/bJ16ivKcLiHma0mRsVOMlOsQNsE7W5L/iula3znZnFfvYP3bDVv1PQZkhlR6nfBxlAhTbXzfH0oCb1Bo9MghbbNjTs/vYFZw4D201qob/AX7uFgd8/J6PwzIWvwc06nZV1J7AZVGc7KoAQPm9iYdHjY1tmdSARYPqgXuAT7Xlmx/Rd6M0XBDlUuz80t56DNuSIWW+XcCDAQ6WG7DtJqdhFYGl8mYD0/DwJIkoTg4F/gQcottUFXXAx4CfqCbAu+p06eJfA/ZRcxRlM+CbbpuPL47C0v7V76tjGVbE27vto+4YyMuw7YoDdKuqFgT4bRQn2ysAUF6TgVYPr2sj1wkS4DTt9y9LEGAhlsrYm7btOv6vQy1ZXq3t+Q7sOMDQil0e4wbMg3QXq+It4EvAjWkh58331B2l9EHgCmBn3aaqj1c+CXwrtKKRFdaBrVqeiI4t7Y3/AY715PkTYdmP43VbqmIpcD7wk7SQW+LZ5H9n9176gL7nVbc/cHEIhURDDQB0ukmcjxOLHV1w4sy2fPNr+i6UzVTgAiwiW4yZwJNqvop5Ang1lIt1L9IfovS5ankTS///a1rIdXrUL+qBE4DfAlvoNnmhAfgCcLqvW0U8mPxvhFX8H6Hm6JVBwBejOKnq1gmXcv5DFHis9uT/fA8n/3u4yf/Buk3eOAr4UUgZaiEFAOZT+nPhS+VZ4Ett+ebX9R0on7Z8M9i5pvcU+VufAXRvKudt7LSOECb/I7F9/zvotlVFq5v83+zZ5L/OTf4vRqtvvhkMfAs731r+0zDg8/z3iURSnF2AT1SrIKALPp4O5HQrqjb5/7Gb/C/1cPJ/ObCXbpNX6rBaNWe7o1cVACihF32dVLTlm2e25Ztnqv9XpK0XAr+guP38D7blm5eq9cqvqbGlHjgeK4rp++S/Div4937duap4A1vNvcXDyf+xwM+BDXWbvDQW+LHL3pF3bAqciopU9lU/bLvJFlX6+w/AAqO6j5W3BKu5cEFayC3z6cJcsblLgd11m7zUHzu69kMKAJTWI8A89S/Biszd1sNfuxB4SE1Wscn/SW7iFMKRXTu5h7WK51Te627yf5tPk3/n6ID6cC2bAPzA1+rcVVKH9gOXyvbARyudBRDFySjgG8A43YKKW4zVmvJx8r8d8Bs8O6VC/sso7EjjXRQAKI2V2PF/KuImuDoQVwJzevDLpwNT1Gpln/x3rZhcgK3OeS2Kk4Fu8r+V7l7FvYalKd+eFnK+9Yv9sLR/HZ0WhhxwpuoBSJnGxx+r5EQ8ihOwDLrD1fxVm/xflBZyXlX8j+JkPHARlhki/tseOM/3egChBADeAp5Sn5JuHgf+2YNf9xh2NJ2Uf/KfD2Hy77wH+LDuXsW96ib/d3o4+d/ODbK2020KRgOWKq1iWFKWxwJwRAX/vs3c81FZaZW1CDjP08n/CGxLwv/oNgUlB5zq6nkoANAHT+Pn8X9SJW355uXAtVixlnVZhTJHKjH5P9VN/scEMaKLkyFYgaVRuoMV9QpwBpB4OPkfA/wUnZseog2xowE3UFNIifUHjo3iZHAFnkFdRcQiNXtFLXST/1+mhZxXp4y5YnJnoyM9QzTA3Ttv6zWEEADoxPZ8L1N/kjU8gAWH1mUWdiSdlGfy3wB8xk2cQjpC70DgMN3BipoOnJkWcnd7OPkfAHwNO09ZwvQe4FM+r7ZIsPbD6sWU26Zuoqc+XNnJ/3d8nPw7H8GO9FQxyDBtCnwtipNhCgD0/gv6kDsCTqS7OcDf1vPfnyOg8+gDnPx/1k3+gynC5SLqn0BnZFfSy8DpaSF3t4f9AeA4LDNB+8jD1QCcic5Ml9IbAxzlnhXllMP2DktlLADOBX6TFnIrPXw3NQPfB0bqVgXtfcAHFQDonZeAaepDsiYXFPoHMHcdv+TBtnzzErVUySf//YHTsHNyRwV2+duj1f9KetFN/v/h6fXtBnwXGJ6xdu8ElmN7W+djx6bOwU7SWYhl1HVm7DNvDnzRFfgUKZU6rA5A2YLGUZwMx1Z7G9TcFTEf+JbHk/9GrCDhthls+5VYwcX5buw+x/3vAuwIxtUZ+7yDgS9FcbKJbxcWwsPmUYo7811qyxTgWf67CNRibOuIlH7yf7p7OYUYmT4SGK87WREvAGekhdx9Pl6cO27ru8A2GWjreVi20wvu53VgphtYLcLqoXRiWQ5DsC0744AtseP0dnAT6CGBt8OHgevoWYFYkZ7ayX1HHivTn78bOt6tks/Kc4FL00JulYfvpX5YNtNRGWjrJcAb2ELu81gdoBlu0r8QC1J3YkG2wW5MuRFWDHMH927aioCyTNehGTgpipPzfTr22PcAgIq4ybtZgNUCWDMA8AqQqnlKPvn/PPA9Akyhd8X/jiIbeyyXuYHMLCySvgzocM/0QcAwLDtjFDC0Cs/6593k/1+e9oV64FNY2m2o2tyE5J/Aw1idhfZiB7VuW8yGbpJzGBYkm0CY+05HY8cCPpwWcov11JYS9qsDyhEAcFsLDicbqd4r3ZhsNhZ8XOzG8Q1YUbSh7nM2uv9f6WydecA5wO98nPw7BwFfJNxskMXAM8C9wERskW52sacruHd0I5YFcTBwNLAHYWbr9XPjjZuwrEgFAHpgBvCk3j2yzhFwvpmxLZMedhOgQd3+0+PuJSSlmfwP6Db5DzVdehtg18AnfJOwzJYnsb317dgKb1caY52buA1x92kMsLWb0O2OVZjepMzP/mnAaWkhd7/HbdmMVegNcZL7MnCz+3kmLeT6tM3JpcC+6X7uieLkIixQ9klgf8I7kuwI4BDgTj25pUTqgAOiOPlNGYrFDceKWIZqkZvkPYhl7D7vxl7dV3i75huDseD0aCzjaAf3LN4F2ML993KZ6yb/v/d18u9Oo/kWFpANzWzgHux0rkfSQq5PmdtpIdfhxjxtwMNRnFyKFeQ8GTsScVRg7bMtcGIUJ99zn00BgHfxDJbKKLLeZwUWLNrC/fNqYGJbvnm1mqZkk/+zsGq5Ie+V3hMYG9g1d7rB1c1uQjMlLeQWvcvv6dr7PctNFh9zg4tBWGrdPsB7saj6xiW+3inYnv+JvjZoFCdDgRbXFiF5FfgTcA3wQrlSCdNC7m3gqihObsf2JZ9FZaqgl8ow7Pzl+/oaHBHpZmcsPfmNEv+5W2EB2tC8iRVhvgl4Ii3k5rzLr1+BpYTPAV4DJgO3RXHS4Nq1GQs8HuEmS6XM1GsHvgFcmRZyXo4L3TGQpwBxYP1gLnAr8HvXD8pymkJayM0H7o7ipODa6MvAoYSTKdF1zOefsS0RCgC8y8D3QdZ/zrsI2F7XF7oFAGaj4/9KNfkf2G3yPyzUz+HSyfYmrErvrwKXAtelhdxrJXiBLnPfkxeiOLneDTqPBY6nNPvgU2zl3/faGx8A3h9QP1iI7Wv/FfBspY5RdCs4v3MDrm+4wcugQNrsUCxl+x+IlMYmwHZlCADsSljH6M4H/uImfM/0dULtVuPfBN6M4iTBMgNy2JGIe5ZgnjLHPb/+4Ovkv2uYgmVZhjKhXQXcB1wIFCp1jKIbx9wdxcnjwOewTL5QMia2Ao6L4uQnPtQC8LmjLULH/0nPLHGTjyMBqKt7dlXzTi+qWfo8+R+ARVm/je3XC9kwwlrFfAD4alrIPVqml+gKbAVmchQnfwY+jaXWjevlH/kstvL/kM+NGsXJeDdgCKXY3TPAD4Hbi91DWcK+8mIUJ1909/gcYIMA2m0Elm75b0/P95bwDMFS1e8t4fOoDisAGEpg+jU3mb6pHNXz3aToVeA3UZz8FQtQn+Emx72d/H8N+KPPk/8oTgYAX8CKsoZgBnAxtp1iTjUuIC3k5kRxcj7wNPCzPvSRSqrHFlyuAt5SAGDdpmPppDXJvRi6inmNdAOaIdgeqQGuI3VgaVVLeedYjXnA4moNFqvB1QGYAnRSV1dXN3/BwmFf/NZhwxpbeptCtgR4uLU973X6aFNjS5MbPNSV4Y/vxPb/npWByT9YiuHmgVzrk8Dn0kJuaoVepM9HcXIOcAfwTSyQVsy74Vl3vY8E8Ew9ESsk5LvVwC3AuWkhV/VjcNNCbkkUJ790g5YLgaYA2vBINyicpLlrnyzHslDa3f8uduOOVW7iOpB3iruNcWOW/hlshzpg5yhO6ku4h3cg4aT/zwK+lBZyt1XomTPTBQL+jgVtT6K4LYiz3eT/z56v/INlK300oPHJN4F/VnsV230P/xbFyQzg11iNAN/tiBU0vFIBgHV7HCv+UCsT/oFYitk2btCyA5bSPt5N/oe5gECDexHVuUlap3sRL8WyJuYCb0Rx8oIbmE8Gpvdg33Dgr+a66cCS+pmzGxoefeooOjre14eJ8SNYmrC3AYCmxhaw/WLnljEA0L9Mf3Y1bEoYaZbzge9WavLf7UW6GnggipOTsQrEZ9Gzo3cmYyv/jwbQtlsBp+L/atty4LfAD/taSKnUg60oTm5w1/cb977y2UbAh6I4mezT0UsBWImdojPJDfanYrWYuqq6L8UWH7qO76rHFia6io5uhRUc3R9bMR+dobbZzgU7Fpboz2t07ybfrXbPpDuq8Nx5MYqTrwAPAefRs+1qs4GvAlf7UnBtPWP/IdixfyGMT+4CvuJDUHqNPvJUFCefBS53zx2f9ce2AdxQ7XmZrwGAVVgRt0wf/xfFyXA32T8YiwDujKXgFlsJtSsCP9YFDZq7PbTbgDSKk3+6L29ajtStqs//ly1/s/6V12Y0PJ1uVrdw8VDq+jRvfdJNxHw2BDsuZgDSE5sTxv7lv1PFM8xdWt0P3aD/J6w/JXEytuf/Md8b1dWAOMkN4H22DEtnPN/HAnZpIYcrDjgEW3HxedBah9V6+C2WsirrNwdLb7/FTbbeKqJa+lIsQ+A14Cngr1GcjMD2t38US+Uen4E22gTbAlOqAMAYwti//BKWRl+VMbnLaP2LW9i6gP8+9rm7WcD/Atf4Pvl3DsGKH/qs0z0XvpQWcq0+XmBayKVRnHweK5S7s+ftuS8WJK3qSUm+BgBmkdEibm4gui1Whft9WAp3uQZR/bBVkI2wokhnYcUzrgIeylIgYMCtd7XVLVkyn9Ud/fs4+V8BPNDanvd9xWhzwtrT7sPArd7za1wF3FHt7Ttu0H99FCcz3SRvbXvrnnKT/1Ce01sBn8DvjJaV2L7Kn6aFnLfFb9NCrtNlAjQBP6DyZ3kXY0fgQOCvegSud/J+B5bV8Wipnj9pIbcAmBjFyUNY0bivYwGZhoDbaowLZEwv0Z+3EWFssbsPD07kSgu5x6M4+RRwketLaz7PZ7rJ/7UhTP7d6v9n8P90pb/5PPnv1j8mR3Hyv8Af8TvgOBL4QBQnD1Szn/o6IH4OKwSSpYl/QxQn+7gB3t3Az92kvJIrKOOwtPGbgIuiONk2K+1bt2DhYjo6Z/Rx8g+2x3VyAB95D8I8K7Ya3706N9Dy3VysoI0vL9OCG5w8u8Z/6qpR8ERA9/94YGuPL7PTTZJ+4vPkv1vfWA1cAtzg+aUOBN4fxUkW96SXwgtY+vGn00Lu/nIEH9NCbrXbInQq8FNsq2KoBlPaWjIb4X+9hA7gcV8m1GkhN9312Vvdc7PLDKxWwLWBrPyDZf4e6vk1Po6l/bcG0qb3AudjW9V8dmS1x6W+BgAexOP918UOPqM42R07wul2bH/tFlW+rDHYcSM3RnFyTBQn/YJv6Pr65ZSmqubTgNcPuiYrbnggYa+kVPo5NyaA62zDs7onrrDf53nn3NrHgc+mhdyTAd3/TVwAwOfV/4ew2g8LQmlUt3/xx8A0zy/1IMIpAFopndh2oxPSQu6qtJBbXIH+MhfLGPk2sCDQdmso8fhtdADv8aWU/ujDvvalN4EvAfesMfm/PpTJv6v8fzJW48tXbwFfTwu5FwJ6L3VgBfbu9PxSt8O2AigA0M1iMnL8XxQnG2Pnp98KnI5/K7a7Yme5nuEeRsFyKft9nTx1Yun/vkcOx2Bn2kvPn3MjA7jOJXgYtU4LuYlYNeUES/sPrar6e7FUcF/NBs5LC7nXA/xuTQN+gW2d8tWm2EqbmA7gOmzVv6LfZXck42+woy2XBtp+m7msolIYEcDnXYmHWRtpIfcGlu5/pwsG3BBYsc9d6Dq62t/7fjHw79C+oGkhtxDIA297fJkDgSOruQDrYwDgFexM95An/g1RnOSAG4Hv4neV17HYKs6ZUZyEvqLc18J9C7ATAHy3A36nM/umH8UX1qyGBvytUH87cGJok39XiOw4/F1l68RWK/4V4hcrLeRw77lHPP9eHZ6B91up+tvNwNluFbUafWYVVlvk9y4YEZomSpe2PySAz1vv6/MzLeSmYMVd/xrS5N8FkD6M39s4/w1cGdB2ijU9AVzr+TUeWM0+UO/pTZsV8OR/DLbq/yfsOIoQjlEb7gIVx5cwsl0NfU1jfBn/01nBzjodjhQTAAhh8D8WGOXpQGt1WsjNC/De74nf2TLTgMsDOKd6fX1jjgti+JwFsDewsR6FPAS0pIXcrCr3maVYPYAHA2zDUhbuGxjA5x2Mx0d+poXcvAAnqeOxIuC+Wghc7J7tob6XVrt52FseX+bWWCF4BQCwY+smtuWbgxwMRXGyIxbVPocwzvTsbhS2P2/3gAc3fU2ffhQ7yshbTY0tA7GoYciBmmo850Koc7FB4N8/357H9cAx+Bss68CqFb+Sgea+B5ji8fVtjm15q2VvA+ekhdyrngzQ38KOGp0XWDuOpnRbykJ4j/cH9g98ccg3BwPbe3x9/yDQrLQ1TOGdOhE+GgwcWK3vlm8BgDasyFSIg833AFcDHwxksrE2WwLnRHES6uryqj7+3gda2/O+R5I3xfaOSc91Ekaq6QDgEwF//3wzHjjM4+t7BbgpsH2r6zLT84HWQOCAGp7ErAZ+Czzg2XXdi9VICslIwti7X0rvw7YeSt/nCv1de/pad2sJ8Ke0kAu+ELs76vw2YJnHl7kfVToK1LcAQEpgqyGuyv8HgT+QjdW792KrZrVmBna2ue+a8ft8U18Hv6FkFR0OnJqJkzmqb29gG4+v7y6ysfqPC2L8k75vwyqnvQhjz3U5TMLD/byuKOCVeJ55t4YhlO5UmZWBfOYtgW9GcTIS6avN8bso6dPAxAy19+Oev2d3oEqn1PgWAHiIgM6IdSmmJ2CR9S0z8mUZBJzmahmEpi/7vJ8DXvP5wzU1ttRh6f8DkGIDAMsD+v6dC5wexckg3bo+PZuPxN89touBO0Pe+7+2+Zznz9DtsAJutWYlcIVLufd1gB5SpfH+JQwAhHISQp0b6/44ipMNkb7Yz+PnUCdwN2EF5N7NLPxe3NsA2KnWAwBLgAdDOf7PpRIejx2TkbUV2b2AQwO87t4O9juxYkS+v4xHAfvo/Vm0DqyoTSgagZ8Bv4riZFc3mZXiX6r7e3x9L2KrslnSht91ADbE7+Mgy2UKdoqHl9JCbhlwC+GshjeUMACwKKB+1B87zvrqKE6OjOJkMFLsvKHBja19LUq8ALjPne6SCe7UEZ8DAA3AHtXYnubTwPI14NlAvsQAHwAuxO9jPPoykf5wFCehrTT3Nr1zMfBQa3ve98+3nfuR4qwG5gbYlz8D3AH8IoqTg6I4Gapb2fPHNH4flfkEMCdLDe72Wz7v8SUOoIoVl6uk002u3/b8OifieQZeN3WUrsjzPMI6CrEeOAK4HvhTFCcfiuJkrF43PbYBfp9KM50wTsIq1jT8zgLdGcv+rHjkwRdPYoWEQnAQ8HOyvRd7f2AL4IWArrm3xdNewe+Vqy774ukxcQEMgmcHeu2bAl8APgE8HMXJHVh13lfc/llZu6oV1umBDuDJjKX/d3+WduJvdfMoipMBNfTdmQMkARSabMVO4dkmkHYt1Xu4Dct8GBhYvxoFHAvkgKejOEmAvwNT0kJuEbIuE6jSfu8eepbwFkt64m0su2EDT69vG+wY6Dcq+Zf6kgHQgR3/t8r3XhTFyfbARcBWGX9QbUx4RQ1H9/L3PeH7BLGpsaU/Ov6vV1w621uBf4zRWIHO37iB1tVRnHwuipNdojgZprv8H8/ogfi9yrIUmJrR5p+J3wU3t6W2Krg/FUJfc2m6EwlnNXxEiVJ2Z+B3hfJ3MxhbmPgBkAA3R3HyjShODojiZIyODvwve+FvYBpgakYD03Pxu0DtRsBmlf5LfckAmAM8FsDAshH4MbBHDTyouvalXB/CMVVNjS396F1a3mpgYmt73veH3sbUXvpqKb2BpYANDPxz1LsXxWbAR7ACN1OiOHkEW0FLgbfSQm5pDd9r3/d6z3UD/yxaBKzA3z2u49yztK0GvgedWHG9xYFc7yRgPr0P5FfSSOy4574uWrW550EWquuPxbYHHIFtbXgReCyKk4eBZ4DXgQUZOfa0N/OH/p7PHVZhWwCyaAl+B9qGYlkAD9ZiAGAq8LLnX94G4Cxs73+t2BHbNxlCBfVB9K4wTxuWAeC7XanNCtal8pqbnAzM0GeqdxOacVhhoeVYqtsLUZxMcgPqKS74Mb+GBl5b4/f2rHmEuyXl3SzH7wyA0di2mmdq4HuwBHg0oIJer7pnVQgBgGGUJoO2DctO2yJjfW8Uttq9F3Ca+5zTse0CT2Gp5q8Cc1z2Ry0Yg9+B6RXAmxl+L/m87aueKtT38iUAEMLxf0cBX8TflY1yaML21YcQABhM7woypnh+Frc7/u8AqlAkJEPedi+3MRn+jAPdQHIL7Ai8VVh21SvAsy4o8Iz759muaFsWRfidZjkcODmKk2UZbPutsWrhvupP9rfvdXkLW4UNxVw3SdwlgGsdWqIAwCKsztL+Ge6HDbwTqN4f2+axAMsImOLeS0+7dpiR4ey1zbDsI5+9L4qTnTPY9kMpXeHOctkyipOGSgbEfJjMLgMeaMs3e7s6FcVJE/DtADpQqY10P22BXGtvJnchBJ+GY0XNpPfmYBXKd6mhz9yA7S3bCNun2Ykdh9jqBl6TgcmuXd5KC7klwc/8bc/pBPyulbE5VkdGKq8O2CKKE7J01NU6TMe2CAUhLeRWRnHyUiCXOwjbAtDXz9wRxcnT+F04s9TqsQyBUe59fAJWF+Vt4EX3Xspi9to2+L3VYwjwDb0iqmYzbCGzYkdW+xAAeB2P0/GiOOkHnInfRaXK+UAI5eix8RRf3GkpYRz/tzW1eX51KQeXq6I4eQyrXFyrhYnq3Hdkgvs5FgvAzgRecgPRp7CsmNeBeWkh1xHYZxxMOJXEpTqasEyAlRn/nC8SRvZed68Gcp0D3E8p6is8hS1CDK/h7+RgLDNnKyzbdiXQzjvZa13bBqYDbYFmr+2AX0evi182xAJENRUAeAq/CyLtC3y6Rr+4/d1LLpRBXbHV0F9zLxXf7U3tZZ+UwyNY6uFINcX/G4StSG8OHIZtG5jrvhtPu6DJU8BLaSE3L4DPM4IqVNOVoIx3/T7rAYBXA1w5neGeQb5vtWygBBkAzjSsBtZu+mr+x9hzbdlrb2DZa49jtZumArN8D1S7hcStdVtlPbqymFtrJQDQgaX/r/T0SzsEK/y3UY12yDrCWS3dluKDNL4Hn2hqbGkADkKR41JIsbRCbadY/zthA/ezJxb8bAemRXHyEHAf8FRayPmaWrwhCpbJ+o3FstsWZvgzriLMo0/bsawk3482bSjh+LkNOwJRAYD1j0VHYPVdIuCjWNbEdOykgXuxU3Be9/QYu6FY8VGRdRle6bFLtScVc92X1leHY2dv16rV+F3RuWuS3I/iK2h2AA+0tud9r0C7EbC7no0lMQ/4O7aaID0feI3BilC2ADcBd0dxcn4UJ++J4sS3tNVx1HYqrfRsoJX1LKAVhHnU5AL8rtbdpR8lygBwq9d3Ec5xjb4YhtUQ+AzwJ/duvzyKkw9FcbKhh9c6TrdM1mMAtvBSMwGAaXhapdYNbD+H/5HoclqO7ZMPYUC3bZG/px2/g09ddsLSs6XvA61O4A6yewRbJQwBmoGvAbcCf43i5HNRnPiyurEROi1D3r0PZz0AsIQwiveuaTFhbM2oL/H4+RGs8J30Tn+s9sungWuAJIqTc6M42cWl31dbI8XXqJLaUl/pAEC1twA8jEV8ffQeIK7xDrkY/yvkg+3pLHYC0rXvzltNjS1gK69D9GwsmWexlYIT1RR9Ngo7bvAwYGoUJzcCNwLTqrj3eDy1W+RReh4AyPpgfCFhrigvJYzChfUlfs7MBa7H9rs36CvaJ4Ow7Wt7Yot4SRQnVwOPpYVctbJLxmgcJ++ijhraArAcT4//i+JkEHAy4VTAL5f5+Bug6W47bF9nMR4J4LMNJdvnA1ecGwD8wQ24pDT6YZkq3wPuBH4UxUm1Tq3YULdD3kUD2d8msijQAMAKLHshhMF6yQIA7kjKWwijKHFImoDTXNv+LoqTg6M46V+F6xiNnXQgsj6jaiUA0Ao87elN2A04VH2RNwljC8CuFHdawXJs/7/ve8G3xAreSGk96AYEUnpbAd8Ebo/i5FuV3BoQxUmdG2iJvNu4J+tbABYFMpFe0yqsCGAIfajU4+c3gcsIowZCaMZii3o3Ab+O4qTZvS8qGQBQZoe8m+GV7JfVDABMwsMqta7xP4Kl7NS6V/B8P15TY8tAii+S53Pwqbs9qfCeoFqQFnLLgYuxCsJSHtsAPwBuieLkRHeiSrn1Q/sspWfjnqxn9y0NdCK5ijC2AJTjvQS2DeAf+oqWNRDwOax+zbeiOKlUYb5RanrpgSGVnJdXKwDQdfyfjy+ojYGj1Q/poLp7eXtqI4pfJZ+M50ckuZMNDqR0Zw3Lf3oOyBPGalOo6oA9sFWtS6I42aHMf19/tG1Lej7QyrLF7h2uAEBYQYB5wI+o4FngNWozbMvadVGcHB7FSbnnQjqZRnpiYCXH/NUKAMzH9mD76ACKP1IuqwOIKQFc5wRgkyJ+fSeW/u/76shYYC91w7INtDqBPwPXomMBKzHZOhm40R3RVK4XXD+0z1J6JusnRSwJ9LnWQRinAJTTI8BPUXC6EvOf9wBXA18t85G2KgAoPX0vZT4D4AX345UoThqw1f8B6oe8iecp0q5K/r5FDvp9Dj51NwHbTy3lCwIsBr4PPKTWqIidgN+7wVY5Vur76dktPZT1frI80ADA6loPALjg9B+Aq1BwuhI2wrar/TKKk6YyTuxE3s3AWggAPALM87DxN8YyAMRSpH0/L30IxVfJ9zL41J0LbOyH0pkrMdh6Ffhf4EW1RkU0YqmXP43ipNRH3tSjQkvSM1nfWrWacDMAVuu9lFvinpN/01e1IgYApwBXRHEyoQx/vt5L0tMxTKaLAK4AJvp4/B9WTG5z9UE6gYeqeGZqT22JrSoW41H8PwJuMBaI0nnmlRlsPQqcjfZdVspA4AzgoihOSnlsXx3VLWwrCgD4FAAIdeyxWt0T0kJuBvAV7NQaqYwjXRBgNwUApIrPwMwGAN7CirB5xVX/P9ANTmvdPODhAK5zb4o793slYRz/txmwi7phRd3lggBvqSkqNgE7CbgwipOxob04RTy3St+HTAQBXgDOxBYupDL2BS6P4qSUYzB9F8U71QgATMbPlbbhbkIpVvxvqs8X2NTY0gAcQnErOW9jx0/6bndsX5pUbqDVCdzsBluvqEUqog74OPDDEhVg0uqhSNi0BeC/303PAJ8F7ldrVMxewK+jONmmRH+e+rTUfACgEzv+z8djXjYFtlWXAOBeYIHn17gJFqktxjPAGz5/qKbGlnosE6W/umHlgwBpIXcbcCphBIqy8g76NFYYsK+F2TqxlU8RCZdWS//73fSse07eTJjHO4boIOCCKE42KMGftVLNKbUeAFiAv6nlOwJj1CWYB/zdrYj6bG+Kq9fQCTzY2p73/Wid0SgTpdqDrX8BJwK3osh9JfQHvgyc4LZi9dZqavgMcRHJ9HvpZeA04EJgoVqkIt4PnBPFSV+r+OtIR6n5AMCLwPO+NUIUJ2DHrmnVFR4Hnvb5ApsaW/pR/HGNiwjjuLcdUCaKD4OtKVgmwPeAmWqRshsOnAfs2Yc/YxWwVE0pIhl9L7UB3wZOB1K1SEXmSJ8FPtbH4PRiNaXUegDA1wrs/bAMgFq3Grg1LeQWeX6dmwIHF/l7XgamBXAP9gVGqCt6MdhqB34EfAy4GzvBRMpnS+B7UZz0NhNrpQZaIpLx99KKtJC7BvgIcBkwX61SVkOBbwG79uHPWKBmlFoOAKzEjv/r8PQLvqm6Ay8Txrmz7wG2KPL3PA60+fyhmhpbBmD7/3X8nz+DrQ63JeDjwBeBp9AezHI6Avh0L1dbVmswLCI18m56HjgLC1D/DWU/ldPWwDejOBnay98/T00otRwAeNsNnn00kuKOk8uqW4DXPZ8kDwQ+QHHnqq4CJra2532fuDXRtyizlG+wNTct5C53fe8rWJFA1QcovQbsJIaoF/cIYI6aUERq5L20Ii3k7nJBgJOBe4AlapmyeL97//fGXFQIUGo4AOBzBfbhLghQy94ErkkLOd8nyROAA4r8PbOAJwO4B7thpxuIvwOuN9NC7hduMPAF4AG08lJqWwCfieKkoRe/d5aaT0Rq7L20IC3k/gocj2Wr3QS0q2VKajBwRi+3qLWjwIzUaACg6/g/XythjgAG1nhfuBHPi8o0NbbUuYlXsdkaKfBqAJ/tAIorbCjVDQRcChwDfAK4DstyktL4CFYQs1hvoy0aIlKb76X57ijbk9y76RfACyhbrVT2wQpQF2uOAgBSqwGAhfh7/B9YDYCGGu4HrwNXpoWc7y+JDYEPUvwe+Qdb2/O+P3xHAvvpkRTcgKs9LeRuAT4J/A/wTeB+tBe9rzYBPtyLWgAzUUaGiNT2e2lpWsg9gB2vejR2fOCtKEjdVwOwEwGKrQUwFz8LoEsNq9Sk92Vgqsft0I/aLbzWAfyBMI6UOYzi9wYvJozj/7YFttcjKdgB1wrs+Mynozi5BNgFOMT9RMBYVNyxGF3ZPr+luOKdM7CKy0PVhLIe9WoCqYH3UifwCnBFFCdXuzHGwW4stTswHh1/Xaz93Pu9mEXNRVjwZYKaT97lvVSxcWKlAgCP4Xdxps4a7nCTgSt83/vf1NgyFCt0U2yK/GvAcwHch72BUXr+ZWLQNR+YCEyM4uQiYBt3f7sGDlu4e62AwPpNAPbAClv1VBsw2w1sfbUcq7mirQrVM1tNIDX2XlqO1eJ6JoqT3wGbA83A/u5/t8UC1Q1qrfVqBI6I4uRhV3i2J5bgeYFt9z56072fpDpaKzkuqMQXfRW2/9/nwc4yanOP1GLggrSQeyOAa90XOKgXv+8JPC8M1tTY0t99Nq1KZW/QtRA7MWCSG3SNAbYCdsJWYHbGjhjaAK3ErGkIcEgUJ/cUMdBagAX9dvH4c70JfBR4S7e4qu8+kVoOBrzgfq6P4mQEsBkWdN0dO41oe2Aj9xyW/xQDF2Hbm3vS3p1RnLzk+WdaCXwduA8tTlTLcjcfzUwAYKabhPlsPrCiBjvbddi+MK+5CfKJFH9Sw2rggdb2vO/BnXFYBF6yPejqwFYeZwOPYmmZI7DjH3dwfWA39//HozR2sMDf8J4OtNwL9EXPP9MGwLC0kJuh2ysiHrybFmCZks8BN0RxMthN/rdz76RmFxzYFGWv4dpiC+DZIn7PNDfJ9jXQPwDYNC3kZuobURsqEQB4FluR8T0AMB9bnasVTwPnp4VcCAWzmoH39uL3zcG2n/huFyz6LrU58Jrifm6O4mQQVuxyG2wVZneshsBmwGhqL0tkOzfonNLD9iSKk+ewNDpf22oYsG8UJ/cXkdkgIlKp99JS7OSkV4G/uyNZG4Etsay17tlrY6m97LWx7vMXEwB4GZiHBYB9VAfsF8XJQJchIgoA9NmD+F+VeS5WoGOrGrnvc4DvpIWc7ytlNDW2NGAV1jfsxW+fCkz3/PN1Hf83SI8jSQu5ZdhewdeB+6I46ecm/lu4QMDuWMBoWzeQyPqxkWNcEGBKEb9nGrYVYJTHA62DgF9SwXQ/EZFevpdWYVspZ2HZa3TLXtuRd7LXtgc2JvvbBvoBu0Zxck0RQdxW4A2PAwC4e7gp8JJ6vQIAfbUIeKgt73128yJsL9QBNXDPVwAXAH8L5Hp3AT7Uy9/7MD1PHa6WYej4P1n3wGs1VtiuDdtK9ccoToa7QdYEYC/sbOIJWJAsaxkCA7AtEcWY7gZbozz+XLtjq2epermIBPhu6p69dlO37LXtseKt+7jxWxPZDFTvAAyk50Xz5mFbLHb3+DNtgm27UwBAAYA+mx7CACct5DqiOHkcW2nOcoptJ/BH4Dcuous1t/p/Kr2r6L0MeLC1Pe/7x9wKHQ0jxT2vFgLPu59bojgZhqVm7gMc6l7gm2GrFFmwbRQnde5Iq56Yg6Vm7uTxZxrn7pUCACKShfdS9+y1f0RxMtBNKJux43APwrK5spLtuBlWn2Z5D9tndRQnTwAn4W8Nhf7Ae6M4ucEdbSwZVu7J7uMUd4ZzNT2K30cVlsIdWOr/wkCudw/gI738vW9gR974bi9qq/aElH7gtSgt5J5NC7nfY0HMI4HPAbcF9Pxdn02KGTS64OYj+H28az1wjMvmEBHJ2ntpeVrITU8LuZuALwJHAScAV2C1BUI/fnsDis8yewKrN+azg7FAjSgA0Gtdx/+Fcrze88CTGb7X9wJnh1J5uqmxZSBwOlaJtjeewuo6+PwZ+wEHkp2VWqn+oGtlWsi9lBZyV7rB1vux44qmB/yxNqD4PaWPYSmXPtsbbf8Rkey/lzrTQm5GWsjdBpwGHI0dOfekmyuEaCjF7+d/Af/T6zcGPhjFiY4CVACg12ZjGQChPKAWAzcH/DBan/uAM9NC7pWArvk9wAd7+Xs7sOP/Vnr+GTcE9tRjSMr0TFuWFnKPAP8L5ICfEObZ86OBwUX+nq4tEj4bDpzkUmVFRGrhvbQ6LeSeTwu5PBagPoswsjXXNNi9m4oxF6tN5bM64Dgs804UAOjd9xxL8wnJ38jensx7gNPTQu6FUC64qbFlhHspjOrlHzEPV6nWcxFW3V2knAOuzrSQmwZ8y73YC4F9hEHYakuxz4D7A/hs/4PVbsi0KE7GR3Gyub6NItLt3fR2WshdghV6/j1WpDoUA7AgbjGftwNbkPP9mL0JwHFRnGT9vTQsipMdazXboZwBgAeBxYG1x5vuIbQyA/e2A7gBOC2E4/7W8CHgsD78/ucBrz9zU2ML2KkTQxGpXCDgQeAUIKQ3e/9ivyeuYOA/A3gHjQE+H8VJZo/NcseF5YGbozjJRXFSr2+jiHR7Xk8HvgxcHND4u67YAIDzOPCy55+tH1aAO7NHo7v30OlYbbSzXDFlBQBKYDHwYADH/635EAK4Fvh34Pd1CXbG9JlpIfdaSBfe1NiyGfAl+lYp9hH8L7QyBNhfr/6gXyB7RHFydGhRcvdM+CrhZDs1YMctFeupQD5jDkuFzeJ3pD9WAOw47Pirq4BzojgZrSeISFm+c+OjODnBHcsX0ntpEfBj4NaALrs3bTyDMLLwdgTOjOKkIaNflfcCLdhxvOcDv4niZBsFAPruVey8y+Ckhdwc4AeEuVcWLIuhBTjHfZaQJv/9sIjcrn34Y1Zg+/99rzC7BX4fUybrH2TtAPwWuAyrVxHac24a8BvCWG2pp3eFMtuBuwL4fEOBr0VxskXGviNghSi/imVxAIwFvgtcEcXJznqSiJT0OzfKTaIvAz4TWrZNWsjNBy4EZgVyyf178RlXA3diC3U+q8OyBQ/N4PdkDywrbUP3rwYCJwPX1VKWWrk+5JMBfYHX5gHge8CigK65A4sqfhy4JC3klgbY7vsDn+5jv3wLmBzAZ92j28NHwnp5bAb8AqvivhnwiyhOdgvwo/yNcOq0FL1Hz20DuBMrSOu7ZuDrUZwMztBX5Sg3GRm1xr9vwLZ5XR/FyfEuS0BE+vZeGgKcC5wIjMACbSHu454ETMzqe8l5NJBx6hjgvChONs3Q92Rr7GSkHdYxLr+KGslSK0cAYDUwMaDj/9Y2cOxwneBHhFHHYAbwQ+BjaSF3vxv4BqWpsWUU8A16f+xfl8lYFoTPn7UeO/4vq6lVWR5kbQBcABzZ7V/viqWP7RjYx3kLeDaA6+zEApy98RxhFAOsw1YgTslCQaIoTg7EgmRN6/llO2IrlT+M4kTBUJHef98GAF8Bzuw2rhjr3lUfCCkIkBZyK7BtnCGMY3s7z2kHbunDe62S9gXOjeJkaAa+J5ti26MPWs8v68pS+33Ws9TKEQCYg53BHDT3ELoI+Lb7TD5aDPwVOBb4XlrIzQixrZsaW7pSjY4owUThgdb2vO8VVsdgq8cS1stjBBZo+8ha/vP+wGWBBQFWAq8HMsjq1VaFtJBbBlwHLAvgcw4BvoPtTQz5e7I/cCmwfQ9++Uhsi8DVUZzsg4gU+33rB3wG+Dr/vSd9E+BXwPsDywR4vQ+T60rq1VjT1Ru7HQihRldXcPqskLO1uk3+e/J+bQA+TMaz1MoRAEiB6VlonLSQW+4enp/B0pJ8mvjfBZwEnJIWcg+6rIVQ7YFVgO3rl2wBFjn23Y5kuLpqRgdZg4FzgE+t57l5ELa3OYjqp24QsjyAS10F9GVL033AE4F0tXHARVGcHBzo9+QQ4HfYEafFjEOOwPZffiZj2yBEyvl96zqz/fvAuqqYb4bVqzkuoL3Nywljdbwv+/hfBm4L5H4MxDJ0T3UBp9C+J1thNY8+2Iuxemaz1MrxMHiIsPbOv9sgeXVayN2KrbL/HEu3r5aZ2GrWx4Hj00LulrSQWxxy+7rU/3PdS6qvXsKOAPT58wLsR++Oj5HqvDy6KpmfxbsHqfYD/hjFyWG+r7i4wePIAG7Bir68U9JCrh242gUSQrAtcElIQYAoTuqiOOk6y3tCL/+YLbBtAxe6Ohsisn5HAz/DsgrXO/QAfg2cFsXJwAA+10h6V/i1klZhi069nlsA1xBOvbQR2LboT4d0MkAUJ7sCV9D7k3a6stT+HMVJpjJ3Sx0AWEqAx//18Ms6HfgacAyWFfAylYlQzsOKEn4bS105JS3kbk8LuYWht6nbC/854H9K9Ec+hr/bNboMAg6g98VjpLIvj3pse8q3gJ6uTO4M/MG9KH0ebA0BtgvgNiyg7xWTbwOeDqjrTcD2IOZ8rwngVuw/j62UbFWCPnkGcE0UJ4dkoR6CSJm+dwfw7nU2utsAq3z+/ShOxnj8ucBWXn0PACyj78dNTyacLACARizgdJbvx0y6oPRRwJ+AuARz5SOxLLVTQztis1IBgNcJo6hUb4MAq9NC7jHgbCzyehpwPfACpSkW2OkeKFOBm7CoUw54X1rI/Sgt5J5y2xKy4j2UJvUfbI/wxACO/9uUvh1zKJUdiHwYi3qP6MV9/gXw0yhONvb0I+4E7BLArWijb1sAwDK3riScLACwTIDfYat2gzz9jmyCFRr7mZtglMoBwF+As6M4UbaUyH9+73bBFqK2LfK3DnXjyquiONnd0483FjgkgNuwxL2b+jKnWOneSyGdmjYKOyr9x76mxbuChWdhxdxLOcbZEqsj8PMsnIxQ6jSOJ6luinylAgEdWLr5S1Gc/BHbt7kddqzEdsDm7iE2yj1wB2DBljosa2CVe3gsxKqBzsSKgbyIZRa8Asx2D4dMampsaXIPkXEl+iNnAk8F8NGbgfEawgThCOxM4t5ObIYBXwL2jOLkR8A/00LOiwmoW7U9zT2nfDeDPgZY00KOKE5uwuqm7BtQHxzv+uDOUZzk00LuVU/6Tz22qvJd4OAyfvafArtHcfKDtJB7QY8k0eQ/2cpNQnqbalsPvA/YMYqTC4Br0kJugSefDaymQQhpxPMoTcbpk9iC3xkBdcMhbmwzIYqT84BHXE0hH/rQDsA3geOx2gXl+OxnALtEcXIuUAjx5LVSBwA6sOP/VlFD3CT9Dfdzr+uA/V0nGYytbg/A0pnqeKei9Uqs0MkSYFmoHaiXk/+ugmr7l/CPfRbPK5q70w4OpDQZD1Lel8g+2Ap+X/cid93zv2CVzi9NC7mpVf5s/d0L7PhAbscrbr9kX5/VM6M4uQTYjf+ulu37YOtMYG83YL8jLeSWVLH/jMe2bp1B349tfTcDsHPNoyhOvgv8rRR9QSTQ99J47HSq95Tgj9vaveOOjuLkYuABDwLUR2HF5gYEcDvepA81ALrPIaI4uQwLyoS0qlzv7tcE4NdRnPwxLeRmVvG7MQzL2PwaxRWh7a2uLLWfRXFyRYjbsksZAGgnA8f/lTAoMJ++7w/K4uS/68i/UyjtPvgHW9vzSz3/+KMBHXXl/yBrApZeWcoj/RqxlLT3RnHyJ+Ba4OVKB/7cAPKLwBfcxNJ3HZS2sOdtLvAR4lF7e2LFjP7mBowPumMOK9V3xmBb0s4E9qI8RYTXpRmrq/HLKE5+lRZyc/Wkkhp7L43GMmLeX8I/dgBW1+oA4OYoTv4APOWOwa705O047BjUUCbBL1Oarb9gC1hXYgWx6wPrmpsCPwY+EMXJpcBdaSE3p4J9ZzC2yHIGtjW7kqfIjAfOB/aI4uT7aSH3Yq0GAKZiafEi63MIxRVU64lF2OkTvtuO4vfsSWUHIptj6ZV7lemv2AY7sukk4I4oTm4FJpczeuwq9m6OFbE5xU0kQxlkLCxlACAt5OZHcfJzbBtAY4BddCjwUWx7yr1RnFwHTCzXyos78mkLbKXnY8DeVG91boybIDRHcXJeWsg9jUhtvJeGYtttPk55CgiPxbJ6Pgj8I4qTvwIPl3NF16X7b+SCDye791NIR4A+W6oAflrIdURx0lWpfvcAu2g/dx/3BB5z76W/U6LsvXX0n42wo5dPAA6neicadc9S+44LgASRpVbKAMDDlCAdRrKrqbFlO6xY1CYl/qNfAaYE0AT7YnUhxM9B1obYfuvDKvDXbQt8Bfg0MCmKk38BD7rJbltfin26/dmj3KR/DyxddH/3z6Gd4fsGML3Ef+b9WGXgLxHuaRyjgI9gK/JTozi5DygAzwEz+pIZ4IrubeoGooe5QdaW+BE06ucmKTtEcfJ94KZKr1aKVPi9NAD4X+B0Sl+3a00bAp/AUqmnRnFyP/Bv91x5uy/HTrsJ/3BgY+yknIOw+iE7ENaWLLBFp2dK+QemhdwbUZxciBV+HRJodx3o7usBblw+MYqTe7H6XG/0ZaHDrfRvhBUvjoFDsSxNX/pOM1Z08BdRnPw6hCy1Uj1MlgEPZPH4PynZ5H8sLlWmDH/848Bszz//AHT8n8+DrJFYGtuHqjCRO8T9LML2FT4fxcnzWEbVm9j2qoVYuuFKrIhoPVZLYjBWbHA0VlBzSyzTZDts5XYM4aUUdjeZPlZaXstAa2UUJ790bR76iRyD3MCjGTuKr6v/TMWCSa1YoaoF2EkKK7FtFf3cYG2o64MbuP6ynRtUbeMGW74GjHYALsUKBF5Qzb2nImV8L/XDirV+jfIUNFuXwVgAcHcstXoGVvR6Glas+nX3XF7g3lsreOeElQb3XBrW7dmyORb03g6rPbARYddCeo3Sbk3rcit2LPaJgXfdeneft8ayHWcCL0ZxMsW122tuzD4Pq4O2AquPVo+tqA/BTl4agwWjt3Xvpe2xAJKvAaMxWKbO7lGcfDct5J7x+SaVKgDwBmGdsSyVnfwOwfY2vb8Mf/xq4IHW9nyH582wMWFUtq3FQdZgbFvKyVWeLA9zL7jtu/27Fe4FuazbS7IDCyT1c4Ooge6FOYhsBZg6gPvLUZgqLeReieLkJ8DvXbtnwaBug66uGgfLscDRMjf5X40dN1vv3v8D3GB/COVfXSy1EVgWzW5RnJybFnKP6GkmGXov1WHbbs7DAnXVMtBN4Dfnney4VVhAcal7xqx2P7j3UoP7fYPdT7+M3Z7HKMPRfWkhtySKk/OxWlFZ2S7az41/N+ad4pWr3HtpKe8Ejzq7jWu6v5cGBPh5P0gAWWqleuFPAt7WI1vWMvlvwIqOfa5ML4HZWAaA73YFmtQjvBtk9QfOdn3UxxWJAQG+AEvlbWxbRLnciqUrnkl2M3MGUtmVw0qrx/Z/buuO2rw6LeSWIhK+HJY16WOtkgYsnX94Dd6XldiRvuXa5/0c8BPg14S7FaAn/Wck1du3XwneZ6mVYrWr6/i/lYj85+S/Dkv/+SblS9mZgu018r0dDsj4QDzEyX89cGqZ+6f03oNYpeWycHUWfgZo5Th8mwMXAxe5Qp4iIb+bDsKO+9tYreGd6cADZXwvAVwH/BlbFZdwdWWpXR3Fyb5ZDADMAx7VfZa1OAbbV13OKN9DlO4olnIZDuyn7uDVAAusmvoPqM1VDN8tB27uSzHEHg62Xge+jTLYsmAItl/6mihODnMp1CKhvZt2w46h3Uat4aW7sNoq5XwvLXVj54fV3MHrylK7LoqTz7otp5kJADyPFQUR+X9NjS2HYxHscWX8a5YCD7a2531vjm2wdCDxx1FAHjv+SPwzGbivQn/Xv4AfueeJhG9/4GrgbJ8GWyI9mPxvgx1Du6taw0tzgBvSQq7sNadccPobWI01CV/3LLXxWQkAPAzM172VbpP/g4DfYFWly+k14NkAmmRvwjxzPKuDrP2AX2DVZcU/q7Bj+ipysoc7y/lK4HJsS5uEbxx2xNgANYUE8l7a2E0QDlJreCvBjrSrlAewAto6Yj0bhmDHF47OQgBgOXb8n/apSNfkf3/gEuy4l3J7EjtexOf2aAAOJOyj2LI0yNoJS6/cXq3hrSewyrkV+wtdyuWPsMKAEr6ngW+nhZwWJySE91IjVo/kvWoNb80GLi/3trQ13kudwLXAhVi1fAnbHKzm1NQsBADexFI1Rbom/5cBUQX+ug7s+L9VnjfLRsAe6h1eDLK2xNIrdT/8tQT4ZTUq5qaF3GygBZio2xC014Avp4VcqqaQAN5Lw4DvASeQ3dNIQteJbSt6rArvpRXAz4ErUIZa6GOb7wO3usBO8AGAyS4IIJr8H4yl0O5Uob+yvRoP417YGdv7I9UdZG3kXqKHqDW8djNwW7X+8rSQmw58ATvaVsLTFcT5l5pCAngvDXT9tVzHJEtpPAP8Oi3kqnLaWVrILQK+A1yPTgYI0QqsJtrlZTw+sqIBgE7s+D+lpWjyfwTwOyqz8t9lGvCS5+0CdvyfClFVd5A1CjtX9xi1htemAj9JC7kl1byItJB7BjgDO49ZwjEPOIcKbx8R6eV7qcE9Z/4X1arw2QLghy44XM33UhvwVaoYIJdeWYVlRv80LeSW+XRhfQkAzEfnJ9f6xL+uqbHlw27yv12F//qH8b8wylCsIrVUb5A1BCuicxJKr/R9kPU9YIoPF5MWco8CpysIEFT/ORe4qhIVukX6+F6qAz6BreoOVYt4qwO4FLjdk/fSW8BZvlyPvKvVWIHh77gsDq/0JQDwgvuR2pz89wdOBX5L5VPclxPG8X9bARPUW6o2yBoAfAU4E2hQi3hrFVaY8RafVm7TQu5BLDV3sm6R1+YD3wYuSwu5VWoOCcAHsKy00WoKr90FXOD24fvyXnoD26Z2E9oO4Pu45grgm2khN8/HC+xLAOARYK7ucU1O/ocBX8cqk25UhUtoxao8+25PYAP1mKpM/vu7ydvXgUFqEa/dCFzo0yCr22DrYSzQ+ZBuk5fa3Hf8kmrtzxUp4r1UF8XJoVg9mvFqEa9NBr7uisP69l7qCgL8GVtlFr+swE5D+3payLX7epH1ffhw3h//19TYMqipsWVD9cWStunGbuJ/LjCiig/mtzxvp37Y8X8q7FMdo4DjgWFqCq/dC3wjLeS8DSanhdxTwKexM6C14uKPVuBLwO+08i+B6IfVotlKTeG1V4CzfT5JJC3kZgBnYycbLdMt88YS7EjPc3xd+e9rAOBtwqiSfCBwUVNjywj1yZJMancD/gB8luoVrekEJra2530vPjkW2Eu9pmragG9g1XvFTw8DX0wLudd9v9C0kHvePfeuQOcxe3FLsMyMa7XnXwKyCltAuQUFE331pptY/zuA99Jc4FvYFqg5unXejDt/6OOe/1IFAJ4G3vB8sgpwEPAh4FD1yz61ZUNTY8tHgGuBI6luMbV5wKMBNNsEYEv1nqq9GDvdHu5TA+kvteZR4Iy0kJsaUJ96G6spcR52DKlUxz+Ak9JC7u++nKcs0sNnCC7g+XngGpS+7ePk/0vAHaGcJJIWckuBi4HTgOd1C6vmeWzb6W/SQm55CBfcmwBAJ5b+7/sH7KrAPhg4s6mxRcVWejf5H4NVqv0dsIMHl/QinhefdMGn/VH6uQ8vxyeATwF3qzW88W/gM2kh93SA/Wkhlt73GWwVWipnKVaR+5S0kJuk5pCA30tvu4nmr1H6ti9exQIzN4cWWEwLudVpIXcT8HGscKGyoiqnEwtKn5gWcreElJHWmwDAAix103dbAju5//8e4GNuYiY9n8juBfwRO1vZlwDKo/hffHIwcIB6kDcvx6lYJsDvsRMkpDo6gFuBU9NC7rmA+9PqtJC7BasxcQPaElAJr2PnpX/FHYUlEvp7aY4bW30bSx2W6nka+HRayN0WclaRq1dzCnA+KtJeCQux7IuT3WJTUHoTAHgJmBbAZ9uLdyqwdx0Htpv6a48m/sObGls+7wa3OfwpZLcSeKC1Pe/7A3ozYGf1JK9ejG8BX3aDrVlqkYpbgq12nZYWci9npE+lWF2Ar7sJqpTeauAe4ASs0v9SNYlk6L20xE0gPgM8pxapuE5sxfyktJD7V0b61Cwsa/cU4HHd4rJ5Dkv5/4YryBic3gQAHsPz/Y+uAvtBa0xctwZ+0NTYMlb9dp3tRlNjy57AldgxNVt4dolvA08F0JR7UJ3jEWX9L8ZFrl+fjB1jKpXxOhaA/bobnGSpTy1wA/hjsXOZlc5bOm+5geyJaSH3cCh7ckWKfIasTgu527CMoutRRlGlLHTjgU+lhdyzGetTq9JC7nbgo1jRSRUILJ1FWDHgY9NC7jofjy8uVwBgNTCxLd/s+x6HDVh7Bfb/Ac5tamwZoj78X5P/DYGvAX91g9kBHl7m09jRTz63Yz12+kR/9SovX4wdaSF3jxtsXYwVlZTyWIWtrpwAXJYWcssy2qdIC7nHsVoTX0AnT/TVMqxK+rHAT9JCTunRUgvvpinYiuJXgelqkbJ61rX1OWkhNzPDfeo1rCr9x7BMKgWXeq8TWwA/FfiCOxkoaA1FBgtmEsYKbMTaK7D3wyplzm1qbPlpa3u+5ldrmhpbBgNHYcee+H5u/YMB3LPRwN56Vnr/Ynw9ipOvYefQfzWAvh+aV4HfAle6va610KcWAldEcXIftjXgJKBJXaGoAdZTwK+wQlwL1SRSY++lBcCvojiZiNW8+CAqJlxK87DTrC5KC7kXa6RPrQL+EcXJE8BxwBnALlT3NK/QvIZlRl+ZFnJlXYSM4mQQlkE8Hhjh7tNCN/9+220bqkoA4BnXED5PaMEKsA1dxy8ZiK10NzQ1tpzf2p6vyUGG2yaxN3AmcAww3PNLDqX45A7ANnpeBvFiXAncGcXJo8AnsBWBHdUyfTIXuBnb7z+5FtO200LulShOvo1lU30W+DCwobrGer0A/AG4utwDLJEAniGTozj5HFY09YvYqULKKuy95UAB+AVwb8hp233oU3OBy6I4uRs4EdsKuZ26xnrNcu/xy4FnylkgMoqTrbAs9aOwRewNgK5s9WVYodBpUZzcCyTA1L5eTzEBgA7s+D/fV2CH8O4V2Ae7IMC4psaW77W259+ooYl/HRb9+zQWDRwXyKVPB0I4M3w/LGon4bwYZwMXR3Fyp3sxfgIFcYq1EDsK51Lg/lDOwS1jn+oAnori5IvYSSqfAj4Q0PO2Ul7CzkP/S1rIvaDmEPn/Z8hS4KYoTv4NfMiN2fZQIKAoK7FCeJcDt6WF3Dz1q9xrwI+iOLkR2573MWB7lBHQ3WzgDuzkqMddFkW5Jv7j3Pjgk+4+gAWsZvPOgvsIbBFhcxcg+DxwbRQnl6WF3KvlDgDUAfMJYwV2C945/m99+rsH6nZNjS3nAYXW9nxmz850e9N3xtJSP4pVqg/JY3heyKSpsWUgFnzSgzTMF+NLUZyc5yYkH8UCZBMoLlBaa9qxbRR/AP5dyvS0jPSpVcAjLv3yd27AdQxWlLZWnxOrgSlYwbMbgRdU4E9knc+QNuB3UZzcBrwPC1Dvw7qzXAWWujHjn4HbXZBf/rNfvQB8P4qTq7EA0/HArvhZ/6tS3gBuB64GnnRZomUTxck+wI+BQ92/eg64E/g38DK2sIL7rm+BFbfPAbtjtR0Oj+LkHOCfvckG6OnAth5bgZ0SwA3ck56nW9a5Br0WuKKpseXy1vb8q1nqzW5SujvwcWw/WYh7Uldhx//5HqDZxD1AJdyXIlg68o+iOLkKi7Z+xA24xqiFAMsGexUr8Hc98ISOZ+tRIOCJKE6exLIk3ucGXbtTO3t8F7pB+Q3A35TqL1LUM2QWcGUUJzdjNWuOdROHJrTo0GUWcD9wHXCfS3uX9fer6cCFUZz8GTgMW/w4kHeOUc+6FUCKbbe5GUutX13uvzSKkxi4BNs23IrVTPpLWsit60jhl4F7ozi51H33z3Lz3SuBs6I4ubXYIEAxGQCPYXsQfJ7sdh3/V+yK3YbAN4H3NTW2/AG4qbU9H/S5zu64w4OwqN5hQMjHH84CngjgOndzQQDJxovxTTfguh7bNnM0cDi2P2tkDTbJbOBJLEL+D2C6S3WXnvepTizt/eIoTv6I1WF5v3tGb0320ntXY4sH/8Qq+z/qCp2JrG+8Ket+hszDatfcDWzrnh1H887xw7XWfovcBO5v7ue5rJ44U+Z+NQtLK78VyxZ+r+tXEdkMUr8NPOjeS/9KC7m3K/UXR3ESAb90k/8nga+khdz9PbxPM4BfR3HyIHABFgT8uZsnPVjyB+3YlkkbANu25Zsf8nzSuxHwdzdY760ObK/5rW6g+1xrez6ItNamxpahWBGzo7EVpl2wegeh+zu2CuvzfahzX8az9Srp9Uv88Nb2/KM+X2QUJ6PdC/FA9xMBG5PNtLnVWOXZZ4B/Afdh0fHF6q4l7VN12Cre/sCR7n+3AAYF3G9agUewLJH7gdeyECyK4mQXF8zwOaBeh2WZnFnOolVlat9+WIbIh7FTIXxt3+nA4Wkh94on7TbYBQP2Aw4GmrFtnlndJtAOPA9MxILRk2rltJkK96sxWGDpCOA92B71kGtczQYmA3djWxenVbpeURQnw7DaAsdjKf+fTAu5p6I4aXLvlTWfeyux7Lm2NTMtozjZBrgK23p8H3B8Mcfm9jQA0AAMaMs3ez0RbmpsOcRN2ksVrWrDMh/udoOYl1rb84s9+8wjsUqeB7kv6R5kL3VnGhbZ8jmyXY9F4jZDMhsAWOPhO8hN3HbGtgjsjhUPHEeYgbeV2DFJ091L8mEs8+YV7e2vWJ+qxwJKze6Zvo8bdI3F72MqF2PbQh7HgkWPAK9mrdq2GxC/z/PgTB22IjoxtNoKLhh2BLCVxwEAsFOJ7vTxqMooThqwTIAdsAyjvdz/b8L/057WpsNNgN7AgtGPAY8CzyvFv6L9aixWE+kA97OTG+sM9PiyVwBvuvHMv4EHXL9ZVMV2PM5N2pcDp6SF3G3uufczrBBgXbd3fSe2BXoBljn4R+yI3BXd/rwDsa2YGwJfBn7d0+d+ZlKF3PF/3wa+X4bP1YmlVzwLPOQePtOAGZXMDnAV/IdhaeYRsK/72YGwU/xFggsArOXBPsS9ELfDsm8i9/+bsPoBgzx55nZix8rMw9LgXsXquzznnmuvA/NCWz3M6KBrBFb5d1cswLQLsKUb4A+pUn/qGpC/iWXLPeEm/lOBGdoWIuLVM2QAtii0pXt+7OTGjJu5ScMQ/AkuLndjgRluwj/NjbunAq9gq6CrdFer3qe6Fj8i917aDVv82NjNUapVOHmJ6zsvApOwYNEzQKsPJxO51f8bsSzt3wOfTwu5FS4AcAlwmptrvsg7AdDBbgww1gUCzgau6hqfuUWDH2Db2J8Ecm47R00FAAZjBRyOrsBft8wNnF/CIu3T3P9/G8saWASsaG3Pr+rlZ2nAUoqHuwf3Jm4iMcH9bOUGgDoORhQA8Pcl2c+9DMcBm7oB2FbuZ2MXFGh0v6a/e2nWl+CvXuV+lrsXxjz3XHrTDapecZP+N7EU/wXlrnYrJetTQ9yzf3Ms5XdbrHbAJm6AMNoNGPr3cRDWgWWELAfmYqmTb2AFMqfxTqBotvqOSFDPkDr3jNjQPTe6v5c2dc+RRizVe4B7lpQiQLDavZdWuPf9PCyV/233bHnV/bzu3kvttX6cbEB9aoDrN5u6QEDXe2lzN4dZc5zTl7ln13tpoXsvveUmzM93CxTN8LEwsVutv9O9X9+fFnIPdvtOdgUA/gyc7n5NHZZhsT22xfhAN8n/n+4nW0RxMgG4x7X18Wkhd1tPridLx1ttgaXiVsIg99DcEktX61pRm+seaLOBmU2NLbPdQ26+e+AtdZ13lfs9/dwXYrD7coxwX5QN3KRhQzdJGEW4+0FFapKrJDvf/Tzf7WHd4L7PI9x3u9F9z7sCAiOx4N8Q92wY4J7V/dxzo6PbQGqZe64sdM+Y+d2eQ3PcPy9wPysqUd1WytqnlrgBzitAwfWn/q6vjHY/Y907pOvdMcK9Xwa7ftfVl+rcoHyl60eLuwWM5mArETO69aVFmuyLBP8M6cRWSrsm3F2TkHo32Rjunhuj13gvdT1LhrpnyUD3LGnoNsHv6PZeWubeSQvdc2Wu+5njnjEL3PtpmVb1g+9TK9xE/C0sQ7prAWTQGn1pA94JVI/oNs4Z1C3Q1M+Nb1a7PrTE9aF53eZXM1w/6hrjLPd9u1MUJ2BbJ0ZidWQmr+OXrgaWdsvAXAo8GsXJlVh9oM2wBaTuR1u+iG1vOAGIozi5vScZnFkKAHRVQK2GrojqYHdj1qZr4N7Z7Z/ruv3U6zEiUhMvy1VuYLTIvTDX9cKoX+MZUbfG86MT6FTKdc33p5W8E2h6dR19qesd09WP1vpu0rYPkZp9jnS4ycZSLPhHEc+S7u+mrnFuR2g1KKSk/Wk1FlRejGUbrmtSXN+tP3XvS53d+lEW3kv9eKdA/eOuXdY6V1zH5x3l2maJGzv+xxggipNHXAAgcnPRd92enokAQFNjSz29O/6v0kGCfnosiEgRAzKRUvSlTmxlQUREzxLxoS+BBYxqYawzEKubAPDyeoJjo6I42YF3tgAMBfYEvuD++W5sy8yaXsUyJ8ZjWRW1EQDAUkr21tdJREREREREPNG13bsT2/6yLkdhp/90ZQEMwrZMrAJuAX6yjtN1FmLb+Yb0dG6flQDAjljBCREREREREREfdBXB7Crsty7LsVoHXRkDg4GngTyQpIXcvHX8voFYlvlKephREfy+c3f83/5YkSMRERERERERHyznncJ9Tev5dfcAhwOHAp8EXsZOU9iUddcNAEv974+d+LSsJgIAWHTkQDJ0pKGIiIiIiIgEbxV2TCFAszu9Z22WAbPSQq41LeRuBL7u5rffAk5whRP/gyvMubv7dS++S6AgUwGAzXinsqKIiIiIiIhI1bnimQ9jx2TuC2y1nl/efUH7duCPWJb7t4AJa/n147BC+B3AQz097jkLAYBqHv8nIiIiIiIisi6PAlOwdP6PuJX7dwscrAR+DUwDtge+GsXJ4DV+WQ6rhfc6UOjpxQQdAOh2/F9/9SsRERERERHxzEzgWqzC/6nATmuZj69tXv4icCm2wv8x4Jiu4EEUJ5sDZ7h58E3A9JoIAABjsOMSRERERERERLzitgH8BXgS2wLw/ShOxrp//zzwAFYnoHON3wdwDfBn4Ans2PvBUZwMA74NNLsgwRU9Tf/PQgBAx/+JiIiIiIiIz0GAN4EfAHOADwAXRHEyHrgYOAr4+ZoBAPf7ZgOfc7/mHGAQcB52UsAS4CfYNoEeCzYA4I7/2w8Yri4lIiIiIiIiHvsb8D2sWv8ngT9hp9mtSAu5FW7Ff23BgxXAUiACLgPOxrYFXAhc4zIJeqwh4AYchI7/ExEREREREc+lhdzqKE4uxU4E+A5wOLAbcFsUJzcCT2MZAqu6zdVHuon/h4BjgU2AduAC4BdpIbe82OsIOQCg4/9EREREREQklCDAyihOLsfS9r8GHIYVBvw48DLwEjAL2w4wFqsZsA2W9b4amAjkgbvSQm5Vb64h5ADA7sB4dSMREREREREJJAjQCfw7ipPJ2N7+44F9gQn85wkBXWZhhQJvBO50dQF6LcgAgI7/ExERERERkYADAfOBG6I4uR1b6Y+wAveN7pfMB14BngNeTgu5xaX4e0PNABiNjv8TERERERGRsAMBy4Ap7qfsQj0FYEdsL4SIiIiIiIiIZDEA0O34vxG6fSIiIiIiIiIZDQAAA9HxfyIiIiIiIiKZDwBsCuyqWyciIiIiIiKS7QDA7sDGunUiIiIiIiIiGQ0A6Pg/kczqBDrUDCIiIiIiCgB0GYWO/xPJolXASjWDiIiIiIgCAF12ALbVbRPJnMXAEjWDiIiIiIgCAF32A0bqtolkTjswT80gIiIiIqIAAE2NLTr+TyS7WoH5agYREREREQUAAJqA3XTLRDLpOWCFmkFERERERAEAgGZ0/J9IFq0AHmttz3eqKUREREREajwA4I7/OxAYoFsmkjlvAE+pGUREREREFAAAK/y3n26XSCb92wUBREREREREAQC2R8f/iWTRYuDm1vb8KjWFiIiIiIgCAGCr/6N0u0Qy5wFgoppBREREREQBAJoaWwag4/9EsmgxcHlre36BmkJERERERAEAgE3Q8X8iWXQ7cLeaQUREREREAYAuzUCTbpVIpkwHftbanl+iphARERERUQCApsaWOnT8n0jWLAZ+CDytphARERERUQCgi47/E8mWlcAvgWta2/Odag4REREREQUAumznfkQkfKuBK4HzW9vzy9UcIiIiIiIKAHS3LzBat0kkeCuBy4FzWtvz89UcIiIiIiKV1+Drhbnj/w5Cx/+JhG4+cDFwYWt7fqGaQ0REREREAYA1bYydACAi4ZoC/AC4qbU9v1LNISIiIiKiAMDa7IaO/xMJVTtwI3Bxa3t+mppDREREREQBgLXqdvzfQN0ikaC0Af8ArgDu16q/iIiIiIgCAO9mJHCAbo9IEOYBLwD/BO4AJqnKv4iIiIiIAgA9tbG7tum6RSJeWQksBGYBrwHPAZOBaa3t+XY1j4iIiIiIAgDFehn4gG6PiHc6gBXA0tb2/DI1h4iIiIiIiIiIiIiIiIiIiIiIiIiIiIiIiIiIiIiIiIiIiIiIiIiIiIiIiIiIiIiIiIiIiIiIiIiIiIiIiIiIiIiIiIiIiIiIiIiIiIh46f8ADlNnY/d4/PEAAAAldEVYdGRhdGU6Y3JlYXRlADIwMTgtMDktMTZUMjA6NDU6MTArMDA6MDCyejpAAAAAJXRFWHRkYXRlOm1vZGlmeQAyMDE4LTA5LTE2VDIwOjQ1OjEwKzAwOjAwwyeC/AAAABl0RVh0U29mdHdhcmUAQWRvYmUgSW1hZ2VSZWFkeXHJZTwAAAAASUVORK5CYII=;" parent="1" vertex="1">
          <mxGeometry x="-406.5" y="405" width="136.08" height="40" as="geometry" />
        </mxCell>
        <mxCell id="fRJRQyjmohF1RWEmSn1R-6" value="VMNet4" style="text;html=1;align=center;verticalAlign=middle;whiteSpace=wrap;rounded=0;" parent="1" vertex="1">
          <mxGeometry x="-409.99999999999994" y="475" width="60" height="30" as="geometry" />
        </mxCell>
        <mxCell id="fRJRQyjmohF1RWEmSn1R-10" value="" style="fontColor=#0066CC;verticalAlign=top;verticalLabelPosition=bottom;labelPosition=center;align=center;html=1;outlineConnect=0;fillColor=#CCCCCC;strokeColor=#6881B3;gradientColor=none;gradientDirection=north;strokeWidth=2;shape=mxgraph.networks.pc;" parent="1" vertex="1">
          <mxGeometry x="-820" y="332.5" width="200" height="160" as="geometry" />
        </mxCell>
        <mxCell id="fRJRQyjmohF1RWEmSn1R-12" style="edgeStyle=orthogonalEdgeStyle;rounded=0;orthogonalLoop=1;jettySize=auto;html=1;exitX=1;exitY=0.75;exitDx=0;exitDy=0;" parent="1" source="fRJRQyjmohF1RWEmSn1R-9" edge="1">
          <mxGeometry relative="1" as="geometry">
            <mxPoint x="-410" y="389" as="targetPoint" />
          </mxGeometry>
        </mxCell>
        <mxCell id="fRJRQyjmohF1RWEmSn1R-9" value="" style="shape=image;verticalLabelPosition=bottom;labelBackgroundColor=default;verticalAlign=top;aspect=fixed;imageAspect=0;image=data:image/png,iVBORw0KGgoAAAANSUhEUgAAAq0AAAIWCAYAAAB9UbQdAAAACXBIWXMAAC4jAAAuIwF4pT92AAAKT2lDQ1BQaG90b3Nob3AgSUNDIHByb2ZpbGUAAHjanVNnVFPpFj333vRCS4iAlEtvUhUIIFJCi4AUkSYqIQkQSoghodkVUcERRUUEG8igiAOOjoCMFVEsDIoK2AfkIaKOg6OIisr74Xuja9a89+bN/rXXPues852zzwfACAyWSDNRNYAMqUIeEeCDx8TG4eQuQIEKJHAAEAizZCFz/SMBAPh+PDwrIsAHvgABeNMLCADATZvAMByH/w/qQplcAYCEAcB0kThLCIAUAEB6jkKmAEBGAYCdmCZTAKAEAGDLY2LjAFAtAGAnf+bTAICd+Jl7AQBblCEVAaCRACATZYhEAGg7AKzPVopFAFgwABRmS8Q5ANgtADBJV2ZIALC3AMDOEAuyAAgMADBRiIUpAAR7AGDIIyN4AISZABRG8lc88SuuEOcqAAB4mbI8uSQ5RYFbCC1xB1dXLh4ozkkXKxQ2YQJhmkAuwnmZGTKBNA/g88wAAKCRFRHgg/P9eM4Ors7ONo62Dl8t6r8G/yJiYuP+5c+rcEAAAOF0ftH+LC+zGoA7BoBt/qIl7gRoXgugdfeLZrIPQLUAoOnaV/Nw+H48PEWhkLnZ2eXk5NhKxEJbYcpXff5nwl/AV/1s+X48/Pf14L7iJIEyXYFHBPjgwsz0TKUcz5IJhGLc5o9H/LcL//wd0yLESWK5WCoU41EScY5EmozzMqUiiUKSKcUl0v9k4t8s+wM+3zUAsGo+AXuRLahdYwP2SycQWHTA4vcAAPK7b8HUKAgDgGiD4c93/+8//UegJQCAZkmScQAAXkQkLlTKsz/HCAAARKCBKrBBG/TBGCzABhzBBdzBC/xgNoRCJMTCQhBCCmSAHHJgKayCQiiGzbAdKmAv1EAdNMBRaIaTcA4uwlW4Dj1wD/phCJ7BKLyBCQRByAgTYSHaiAFiilgjjggXmYX4IcFIBBKLJCDJiBRRIkuRNUgxUopUIFVIHfI9cgI5h1xGupE7yAAygvyGvEcxlIGyUT3UDLVDuag3GoRGogvQZHQxmo8WoJvQcrQaPYw2oefQq2gP2o8+Q8cwwOgYBzPEbDAuxsNCsTgsCZNjy7EirAyrxhqwVqwDu4n1Y8+xdwQSgUXACTYEd0IgYR5BSFhMWE7YSKggHCQ0EdoJNwkDhFHCJyKTqEu0JroR+cQYYjIxh1hILCPWEo8TLxB7iEPENyQSiUMyJ7mQAkmxpFTSEtJG0m5SI+ksqZs0SBojk8naZGuyBzmULCAryIXkneTD5DPkG+Qh8lsKnWJAcaT4U+IoUspqShnlEOU05QZlmDJBVaOaUt2ooVQRNY9aQq2htlKvUYeoEzR1mjnNgxZJS6WtopXTGmgXaPdpr+h0uhHdlR5Ol9BX0svpR+iX6AP0dwwNhhWDx4hnKBmbGAcYZxl3GK+YTKYZ04sZx1QwNzHrmOeZD5lvVVgqtip8FZHKCpVKlSaVGyovVKmqpqreqgtV81XLVI+pXlN9rkZVM1PjqQnUlqtVqp1Q61MbU2epO6iHqmeob1Q/pH5Z/YkGWcNMw09DpFGgsV/jvMYgC2MZs3gsIWsNq4Z1gTXEJrHN2Xx2KruY/R27iz2qqaE5QzNKM1ezUvOUZj8H45hx+Jx0TgnnKKeX836K3hTvKeIpG6Y0TLkxZVxrqpaXllirSKtRq0frvTau7aedpr1Fu1n7gQ5Bx0onXCdHZ4/OBZ3nU9lT3acKpxZNPTr1ri6qa6UbobtEd79up+6Ynr5egJ5Mb6feeb3n+hx9L/1U/W36p/VHDFgGswwkBtsMzhg8xTVxbzwdL8fb8VFDXcNAQ6VhlWGX4YSRudE8o9VGjUYPjGnGXOMk423GbcajJgYmISZLTepN7ppSTbmmKaY7TDtMx83MzaLN1pk1mz0x1zLnm+eb15vft2BaeFostqi2uGVJsuRaplnutrxuhVo5WaVYVVpds0atna0l1rutu6cRp7lOk06rntZnw7Dxtsm2qbcZsOXYBtuutm22fWFnYhdnt8Wuw+6TvZN9un2N/T0HDYfZDqsdWh1+c7RyFDpWOt6azpzuP33F9JbpL2dYzxDP2DPjthPLKcRpnVOb00dnF2e5c4PziIuJS4LLLpc+Lpsbxt3IveRKdPVxXeF60vWdm7Obwu2o26/uNu5p7ofcn8w0nymeWTNz0MPIQ+BR5dE/C5+VMGvfrH5PQ0+BZ7XnIy9jL5FXrdewt6V3qvdh7xc+9j5yn+M+4zw33jLeWV/MN8C3yLfLT8Nvnl+F30N/I/9k/3r/0QCngCUBZwOJgUGBWwL7+Hp8Ib+OPzrbZfay2e1BjKC5QRVBj4KtguXBrSFoyOyQrSH355jOkc5pDoVQfujW0Adh5mGLw34MJ4WHhVeGP45wiFga0TGXNXfR3ENz30T6RJZE3ptnMU85ry1KNSo+qi5qPNo3ujS6P8YuZlnM1VidWElsSxw5LiquNm5svt/87fOH4p3iC+N7F5gvyF1weaHOwvSFpxapLhIsOpZATIhOOJTwQRAqqBaMJfITdyWOCnnCHcJnIi/RNtGI2ENcKh5O8kgqTXqS7JG8NXkkxTOlLOW5hCepkLxMDUzdmzqeFpp2IG0yPTq9MYOSkZBxQqohTZO2Z+pn5mZ2y6xlhbL+xW6Lty8elQfJa7OQrAVZLQq2QqboVFoo1yoHsmdlV2a/zYnKOZarnivN7cyzytuQN5zvn//tEsIS4ZK2pYZLVy0dWOa9rGo5sjxxedsK4xUFK4ZWBqw8uIq2Km3VT6vtV5eufr0mek1rgV7ByoLBtQFr6wtVCuWFfevc1+1dT1gvWd+1YfqGnRs+FYmKrhTbF5cVf9go3HjlG4dvyr+Z3JS0qavEuWTPZtJm6ebeLZ5bDpaql+aXDm4N2dq0Dd9WtO319kXbL5fNKNu7g7ZDuaO/PLi8ZafJzs07P1SkVPRU+lQ27tLdtWHX+G7R7ht7vPY07NXbW7z3/T7JvttVAVVN1WbVZftJ+7P3P66Jqun4lvttXa1ObXHtxwPSA/0HIw6217nU1R3SPVRSj9Yr60cOxx++/p3vdy0NNg1VjZzG4iNwRHnk6fcJ3/ceDTradox7rOEH0x92HWcdL2pCmvKaRptTmvtbYlu6T8w+0dbq3nr8R9sfD5w0PFl5SvNUyWna6YLTk2fyz4ydlZ19fi753GDborZ752PO32oPb++6EHTh0kX/i+c7vDvOXPK4dPKy2+UTV7hXmq86X23qdOo8/pPTT8e7nLuarrlca7nuer21e2b36RueN87d9L158Rb/1tWeOT3dvfN6b/fF9/XfFt1+cif9zsu72Xcn7q28T7xf9EDtQdlD3YfVP1v+3Njv3H9qwHeg89HcR/cGhYPP/pH1jw9DBY+Zj8uGDYbrnjg+OTniP3L96fynQ89kzyaeF/6i/suuFxYvfvjV69fO0ZjRoZfyl5O/bXyl/erA6xmv28bCxh6+yXgzMV70VvvtwXfcdx3vo98PT+R8IH8o/2j5sfVT0Kf7kxmTk/8EA5jz/GMzLdsAAAAgY0hSTQAAeiUAAICDAAD5/wAAgOkAAHUwAADqYAAAOpgAABdvkl/FRgAAyWRJREFUeNrs/XucHGWZ9wH/qvowM8kkk9PkfD5CQkIgIRBOkXAUEEVhYXFx8cEH13310dVHX3x0dXXdldXVxdddXVldWVnZIGgUUQnISZBgSCAQAoQEcoCck0kmmWN3V9X7R1XN3H3Pfdepu2e6Z37fz6c+XX2uqq6u/vZV131dhuM4IIQQQgghpJoxuQkIIYQQQgillRBCCCGEEEorIYQQQgihtBJCCCGEEDLApAd6AT7wpX/npxDMRABT+vk9DwPYw01PCCGEEBU//+pfDT1pHWDGAJglXE8BWKp43BRPHmUaACwMeP2w+wcjFoDNMZ/TCmCH4vYcgC2a52z23ktmG4A2Hk4IIYSQwcVQkdalnpDO8kQ1Li0aae0EsCngecs0988F0DRIt3XKW++4rK7Q8hwAsDdAkFWSvcUTZp9Xvc+aEEIIIZTWiuJLyaYqX0458isLsApZxGUhXgg34jtUmaj4w1GKIO/wxBcAdnp/aOCJ8QFvXkyvaPEeRwghhBBK66ChRZAgmXIJ91K40VCgbzqEnM7Q5Emwz3QAzUP8M5ob4Y+Ejja46Qui/IpSu0khw4QQQggpRVrv/+NGbr3aZLN0fUPC1xEjvGJ0dwGARm/ej/I2ercPdRoF0Y0ivKLk+ikLfkS3E27agvgYQgghpF8QPfD685ZXt7SSIc9O9I0QRsEXXDGq6wuwf5tuQBwlV4+fkrDHm/cHpG3xBHczNychhJBahtJK+htxENQzER7vy9piAFn0RnJ90dVVdhhqNHtTkNz6UVlZcF8VrhNCCCGUVkISsEm61OHXs/UHs/kpCVlPeBm9LY7c6tgsCOwW70/GHqhLkhFCCCGU1qHGjZcvNyrxumvWbXSGyCY8gN7R+0H4UutHapehd8AZB5q5Yq+T+y2C0G6Gmx6yB8ypJYQQQmmtKhE0uA0CqZgcl1m8/QoNQZHbxZ7ILkRv+sFC77bFQ/h4sThg/TfBTTPYIlwy3YAQQgilNYaQGSWIaKmvX20i7FTJazlxHhfhc469LCEi7Hfh0uXcNsONys6FG61dCjdyOx1Dt0rCMvRNPfAHgm2RpLaVh15CCCFDQloDJMZIeFvU5yW5Pc579qfIVlI6k97vlPE5ga8VsA9F2S5HABxZs26jLlq70BPY6Z7I+fNDraVvI4CV3iSyw5PYDd7lJrD1LiGEkMEmrRrZCBLCqPfFEVmjTMJbDllOIrrliLg6JTwu6W1Bj3HK8HqxlkuxL/qPfc2bAOA/xAesWbdxviews+BGaH2hHUppB3O96QbhtlcFgfVlNsdDNCGEkJqU1gjCasQQTN39SSQ3TEbDXjOJzMYR3oEiTAKj3u9EFM1SH+eU6TW112+8fPl2ANtVj/nZo5vmOg6mA85cx8GZcCOzC1Hcpnew4q/rzcJtm+CmaDwDYD3cxgqEEEIorTVJkIQaER8T5XFx7jciimoSIVa9ZtS0gyjbsD8EOK4EJpHKKPeX8l5Bt8UR36L5P7t02VsA3gLwpHjfL5/Y3Nydt04FnAVDTGb9PNlPetf3ePL6DICn0Jt7TAghhNJaPSiirHFlNOy+JFIaRZDLJdBxxTeKeEaVY5ThPp2oJhHYJPIY5bJSjw1a5tB1et9FS4+iN+L4Q0Fmx+UL9kLbsU8FsNRxcOogl1k/lcJPK2gTtsvjntASQgihtFYtUWU06nwS0S1VcuNGiePKcphcxhHjqIJcjhH/YSKbVAhl+QyT0nI8L8rjYy3D+y5aekyQtp77fv2HLeO6uvOnOo6z0IFzuuPgdAArBuHxqxHAFd7kS+xT3vQ44rUXJoQQQmmtuKiqREsWPCPhfaUIcBIJLlWig5YhrqBGeY1SB6ZFIU5ebNhp/zAhtCMKp+7xToTrUcXWjijCfZ77ngsXHwPwLIA/iuv9wGMvLrct+0wHzpmOgxUAThuEEnuVNwFuPd6nPKl/EOzqRQghlNYqEtkkshZXoIyQ+ajCrZPAJFHeKKIbVVLNCM+PI9VRPo9SP5O4QhslchommvJtdshzo75eKY8PlOzrLj7jRQAvwk0xcF7ZsS/7xu6Dywu2fabjOMsdB8sAzB9Ex4QxAK71pm/BzYldC+BRb2J1AkIIobQOCI4gP45GNmXJFG93EC2CGyf6iYhyGfQaZoTHqd7DUawXpG0UVSTjSnPSQXFhfy7KJbYqYQ26TSWoYRJpxxTSJK9hRxBarUyfNneyc9rcyRvglpiyAeC5LTuH7z10fJll22c6Ds5yHOdMADMHyTFiOtxBXZ8E0OmJ68Nwo7CsTEAIIZTWigmqobmM8jyd1JUrRzWKlJVj0FhcoZWfEySdRgQhlv8EmIo/D0EiHDWyrNvGUUQ77n4Vd3BXVKm0S3isXabXDX38OYtn5dCbWuAAcB5/ftvY4yc7zrAs50zbcZZ7Iju5xo99DQCu8abvwa0TuxZuLuzj/GkghBBKazUIrKMQJPk5pVQBkMWrP6XWiCGGiCCrRszHJHkNCMIry6eD8uT/ImQ+yj6muy2uyEaRT1tz6c+rRDRMbINeP3CZVp+14ATcMlxP+Pf9/k+vTzrR3nVGwbKWehHZM+C2t61V/DJiX4CbC/s4gAe8y8P8qSCEEEprZNas2yi33lTllKrk04nw+CC5jCo+Seb7S2yjPDfKKX8xWhsms2aIwIbdH+V9VFLroLQyZ0FCG6X1qyqPNmrubBRxtRUiGvW+qM8NEmYHgH3J2accAfAIgHX+/Y8+99qME+1dp1uWvdwBzvREtqkGj4tjAFznTYA7kOtRuJFY1oYlhBBKayJ0IhrnuUG5sLpBU6UOMhpIwQWSV0owI0ht1MkMuG6i9KiuGSLk/j5gBny+cdIUouxv8nwpaQZRpdSSbrM1jw16nUiye+k5p+6Dmxv6kL+8v/vj1rntXbmltmUvtx1nOYBzavA4c743fQVuBYJ7AdwHN6WAEEJIP2E4TrI29Pf/cWNZFmDNunivE6GVK0KkIm5JplJfp1ztXqMIbjlFN8l8nLSCJJFYs8T7gt4XKE5TiBOBDpJZI6LIqmRWN4gqSlqBHSCrUSdfesNeK0xwe5bt+a27R7xz6Nj5+YJ1vm07q1HbZbde9eT1XrCcFiFkiHHj5ct75q8/bzmlNaa4RhWFSj2ulGWK2wSgEukLQZFYIPngsHJGY6OIqqm43QwR2zCpjRP51W2XoM9PvC1MZFXpBUG5qWEC699uae6Pe3sUse1Zvmc2vznm8LGT5+cL1mpPYmfW6PF7M9wc2HvgltYihBBKa5mpyfSANes2OiHyGidFoGTxr+BzSonyJhllX2pkNs5ALwgyGEdqo0ilGSKwUaXW1AitGUFmzYDt4CA8Yht1v41Sx1WXShAlGmsprlua+60IQluUrnD+0jknAfwGbkqB/cTGN6YeO9F+Yb5gX+I4zgUAJtTIYWmpN30NbgmxB+BGYFlKixBChrK0yvI6wEReBkGyS1nupBHdJC1dw6S2lNJgcQZ/lStHNqrAmprrQY9RSW6SXN2gPwdhn39QM4Wo1QWiCqyluNTNBwltUfrBRcvnHwLwMwBrADiPrH9tzomOrsstyz7fcZzzURsDu1Z40zcArEdvBJZVCAghpBQBqsX0ABIqxeUQ4LjR3CgR20qnHCRNJzBC5FW8LSXdn9I8Po4gV0pqdYO/4gz20uW42hFkVbxeiCC0YakHzkNPb1ne1Z1fZdnOeV4kNlsjX08LbkT5R96lxSMWIaTGnaNnnukBJMkfgLj/QJwA8Q17rVIHokXpHhZ0m05ukwwAC5NZ1XyQrIpCayqeF/Q6YTJrhoisvE3CPn9dakFYlQJdFFYnrqK86kRW9RpFEnv1BYtfgtuK9tvvHDyWfuH1t8/rzhfOs21nleM4Z1fx1zOF3mYGhwHc7QnsNh65CCEkYqSNkVZSpn9cSdIWolRWiJN6UI5Ug7DT+1EisiqhTcW8HiclIUmUNuhPjFi9QBeVVaUUWCEiGzaJEhs7Mvvi62+P2HOg5ZxcwTrfsuxLUBuVCdZ7AnsfgFYeSQghNfS73zPP6gGEghvtepzmCUD0wWFJ0gvChDYoEptKILPi/UFiG2WAmLxdw1ILoqQTqPJgdSJbiHhb1Kis8+zLb405ePTEefm8dYntOO9GdQ/q6oTbvOBHYBtZQgilVQnTA0i/EyGNwZEE10kgt0mrHkSJ0JoRpTYoxSAslSAVILOpmKIrR3916wKN2OtEVld6K4rEhkVhC4r5QojQFknsuUtm+5UJfg3g/zz09JazOrpyl9m2cy2A+VX2tWgAcJM37QBwlyewLTxiEEKI94PESCsZJP/4klRHKLXFbdwUA/kybl5sKuC6bj5KtDYozQCIn1qgSiUIy4dV5bkGiWshgsRqc2Of2PjG1KOt7e+1LPsSx3EurtLduhNu2ax/hVsHlhBCqul3t2eekVZC4v35cYJkKmCAWVypTSq0cWrJ6mRWF22V54NkNkhiU4ieL6vbLmESG6WsVlgKgUpcC4gWkbXhltY6CODfAXzvT6/satp36PhFuYL1PsdxVqN6ymo1ALjVm54B8H245bNy/MYTQoYilFZCqY0utXFTDqJWMohatSAsEptWyGvQ7UGpB1GisUFRWTOixOoisbpqBLroqz+fD5BYZeWCs0+b2QHgQQC/bDnRYTz9wvaLunOFy2zHeT+qJw/2fG+6E27qwHfAuq+EkCEG0wMIiYAm/SCO0CZJLwiS2SCBjRKFjZpaEKeyQZT0At0AL1Wzg6iVCGR5lSdLcV0rseLlg0+9fF5Xd/5q23GuR3UN5MrBrTrwbbBsFiFkYH4Xe+ZZPYCQwSu0UaKzOplVleAKE1lVHmxQFDZqNDYV4f2jlN+KUitWl0agE9h8iMhGzYntEdhfPvnSBblc4X1eBHZcFe2CDwD4Jtz2sYQQMmillekBhJT+x0v1z09MO4iSchA3KhtUPzZJiS2dtAalFpSaZiCupyqdQNe1y0Jxdy45CqvKbc0rLqNEY3um973r9PUA/gjgM7984qWLc/nClVUisNd501MA7gDwML+VhJDBCKWVkAEQWk0ObZTuYLLoBaUWJCmzFSe1ICzdICgim0K0pggqiU0jWh6sHIHVpRHkET0aawOw3nfR6U8BeEIQ2PfZjnMNgDEDuLut8qazwagrIYTSSggZQJmNEpWN0tErSGaDorG6VIK0RmDTmueGRWLjSmzUgVwFhcSqxDWP6OkEtiewj+/e3/LpTa/uvjpv2X85gGW0WgFs4jeMEEJpJYQMpMwGRWWTiKxuMFUK4QO9RBlViWo6RGiDIrFRo7BipYKgslpirVa5DqxceUAW17xCblV1Yq0Zk8YUZkwa8yCAXz658Y2Jh4+13WzZ9s0AZvbjLvSMtzyEEEJpJYRUhcyqorJhIluJ/FidjIrSmoY6KquKxAZFY1WtaFUdvXRRWAtABuE1YFXSqpNYZR7su5bPPwLgnwF845dPvPSuXL7wF176QEM/SCshhFBaCSE1K7JxKhZEqRsblA8bJfoaJRKrK8EVVGIrKAqbVkisjfDc1yCBzYcJ7PsuOv0ZAE89v3X33+zef/T9Bcv+SwBnVWi3eJzfDEIIpZUQUnMiK5QkiZMjGzUaKwttlIFbYeKqk1kT4Z29giTWxxYufYmNIrC61AGdwPZJIzhr0YyusxbNuAfAf/3mmVdObe/s/gvbdv4cQHOZPv42MJ+VEEJpJYQMBoktk8hGbXqgqygQJKm6tIKwvNigdAKxpJZ4GZYDG9a8wJfUnCSuQakEFgDrqvNP2w7gi0db2//2yY1vXFGw7Fscx3l3iR/3q2A+KyGE0koIochq82TNEIGNUhM2BX0ENmxwV1ibWpVoy+tjRhBYVfWBvEJY81EFdmzTcOsDF5/xMIDfPrnxjebDx9o+6A3emp/go93MvZsQQmklhFBkowmsrq1rKobIhkVi5fl0DIE1SxTYsPSBfIRJmQP7ruXzWwDcCeDbv3xi83ndeesvHLd5QSOllRBCKK2EkNJENmo6QZRGB3ErEojCmkH4IC9dPmwUgVXlwIbVfFUJqy6VoKiL1/suWvocgGfXv/zW53bvb9nrLW8YW7jXEkIorYQQgkgDvaKkEkRJJxClUoyeylHVKFNQE4SoAitHX1MoLqOly32VhTVKBLZnENfKJbM79hxoed1xsCjCx/Mq91BCCKWVEELKI7H+6P2wslpB6QSpAHH1o65BAptOKLC+uCaNvuoir7LMpoXnFEzTfMmy7DBp7QTQwj2SEEJpJYSQ8kqsjeDKBHGqEgTlu+oENoPoJbbkZYI079d+TSkENijvNae4FOfTAHLZdOrVTssO2/R7uPcRQiithBBSBomVWtE6iFdey3xq0/Zp3bnCeNM0TNM0TMMwDNMwTNM0Uu2d3QtsBw2mYaQMA6YBwzBMpOCgritXmG8YMAwYJgyYhmGYBmAYhvva3nXTnfXez328kStYTfl8oQmGYXgLaEirKDdz8K+41x2nZ31Tptlel00fdhzYgOPYDizAcRwHluM4dl02/bZpmq22bRcAdC2cPfnhSeNGHh01YtjWzu5WSishhNLKTUAIKYFGAAuE6w0AFgrXUwCWegLb5zYFYwDMGqwbq62z+xTtne3FV7e+ua9h0riRP108b8qb+4+0dgGoD3jpvdwVCSGUVkLIYGIBiksozfJE0WcKgInC9YnebUNCKquJzu786QB+MWbksM5UynzFsuzlQQ/nFiOEUFoJIdWEKJGicC6EG+UE3ChmSnE7qSG6c/nF3mfnNGQzm9o6u4OktZVbjBBCaSWEVAKdcC7zLsXT7E0A5nKTDS0Klj35+MmOsaNGDLNGjRz2cltnd9DDc9xihBBKKyEkiMUAsijO0xSFUzydLp96JyQIc9f+llOXjhh2/JSZE1575+AxC5omA4aBLsfhBiOEUFoJGUpMB9CM4uimH/2c690u53kSUhGOtbafAuD5caMaT6ZT5ksFyz6TW4UQQmklZPCyFG6EypfOZk9Os3AjpQBzP0kV0t6ZWwCvVuywhrqnT7R1KqXVcTCSW4sQQmklpHrxR8L7wulfLhaENMvNRGqVzlx+rietxoQxI5470db5Sc1DuZ8TQiithAwA/il6/9IftORHSv1LQgY1lmWPOXj0xOgJY0eeWDxvyus73j503HEwSvHQMdxahBBKKyHlxc8H9aOkywQR5UCl2iAHYEsFX9/vMpUFcNpQ39i79h1dMGHsyF3ZdKqQSaf+kMtb1yge1szdkhBCaSUkOv4Ien/EvB8hXeyJ6UJuoshskq4fgLrrUc/jDKO3xagBYzPcfvfqL37K3PH+i89oRd+2pEESGfe+cj0m7PnGumdfndaVL4zTPaBQsKY5jqMUO9txpsnS5ziYCSl66TjObKD/c0db27rmAfgdAGd4fd3juXyHSlqn8ytDCKG0EtKLHwld6knoAuE2udPSUKQFwE5vvhPAq8J9okRuA9Am3Lf3xsuXH4zxPkbC+w3Fn4w4jzcSvldcIY39Ppefu/AggKBtuLWE5Ta9eX8y/en5rbvn5QtWo2kaKcMwTACZE22diwzDMA0DZqFgNxcseyIMmIZhmN25/CwAWQMwbNsZnitYoRHSjq7u+d6+Y8+aOu4Px17bA0orIYTSSoY6fqR0ijfJ85TOvtK5F24UFABw4+XLjYjvpRPCpBKX5DFGRMk0Er5m0mVL8h5RZD7O4w3NZ1Mkr2ctmrHTE9iUcLnVu0wByHjH2QzcdIcsgDoA9cJlFkDq4NET4zq781kAVr5gWUeOt423LLsLhnEMgA3Anj99/JHNr7/9mu04p0rL61fFOMzDGCGE0koGC9M9CV3szfuRU3/Q02DCP3W+x/sxb/OEE56Qdnq39wldxZRPswxSGVcojTK9Tpz3ivv8Uq6XQ2LjiGqcFIbQCKzwGFuYLG8qAMh7x1//NkwYO/KQ97g8gO5508e/7O2zJ7zbHQB2OmU+kitYpyqWbyGAp3iII4RQWkktsQxuPulET07F+cEkoWI0tBQJNZD8FHkpkmjElNIo8phEcMPeq5Iim/R1koprnNSDqPJqBEwp6U+NSmIt4XXE+x3FvDOsIbsud1JZ+moppZUQQmkl1Yg/0GmuIKlz0dsytJZE1B+NLkqofwpePGUfVUQNVO50eVL5jHKfETAf5zWNEpch7vsnlemk0hpVZJP8CUlK0DYxpQmChPrSaki368TVOff0ORt++8wrBwFMUPxZJYQQSisZEBrhDnBa7AmpPy2Fpgd5FdEKYAd6R7370dEd3n1bPFmNIqJJTxXHlZ8kchckfHHF0EgosEkFM+z1S7kNJdyW5PlRBLSUgWUQpDIKjuJ1xdxX/zGOIKZypLVIVv35kcPrLdM0HrRt539L77GCh0xCCKWVVJqF6I2SLkTxKf1qxBdQPxrqC+gm9B3AFCSklcjFjCI/UcXOjCl+ceVTdz3JYxDjPVHiMsbZjnGlNer9pUZYyymtuttE4ZTl1VQ81tCJqvAaDgAnm0mv7erOy9K6AO6ArFYeUgkhlFZSKks9KfWnBai+2qWbPQHdLAiof4peWSu0BBkNE5RST1kHSWgcYYsjemYM4TQ198nPMyOKbJzrSaW01DSEqJ91kvk4whr1uVFwFNdVp/lV8uqgb8TVTxuwFfcDAM5ZPOsPT258owV9O2GtBPAwD7WEEEoricoCSU4XYuBLRvkj52UB3endJtcO1UlpOUa8h5UTiipKSeQsLKIZJpSI+Vrya0ZZprivH1Uy5fVK8oegnIJaTllNUrs26aAsJ8LtorAWIA2m8iaxwkDP/NHj7SNaTrRPsm2nu2DZnQXL6sjlrY6JY0e+Pm3i6A4AzsSxIy3DMH7lOM6HpWVYRWklhFBaiYrpCjFdiv7PN/VrhfoC6o+k34zeqCliCmlceShX7mRUqYwreVGEMU7kExHfM4o0RxVknXSWEn0utXJBnBJVSf/8xInkxxHSSg3K6omatpzoGNZ6smPE8bbOMd25QkN7Z/cEy7LrOrrzU+E4aQAo2M7IQsEaE/ai+4+0/tO0iaO/7V83TeOXltVHWlfzsEwIobQObZoVYroQ/dMBShTQTrj5o37UVFneKURM40hp3MFGUSKicYQvimQaAzQB8aOgSU7Rx7mtHBIa989KXAGN+l5J3yPqbVHeP5LMHj7WNvrI8bYJHV25ka1tnZO6c4WmXMEa2dmVmwR1Dd9EdOcLlwLokdaJY0c+sffQcTlFYJl3vYWHbUIIpXXw44/OXyZcVqrovi+dft7oq+iNmvqj7EMpg5TGGZkeJqRxo6FJZLRUWY3yfJVgBwmkbvskvUyS9xlX/MrdVSsM8ZS4P6+6Lejx/jwCnqe7Ler3Q3n9YMvJsS2t7eOOn+wc397Z3dzelZvU1Z2f6DhOv5xZsSz7zA1bd01ZsWjmmwBwwRlzO9es2/gwgJuEh6Xg5rX+hodyQgildXCxUBBTX1KbKiSl/mh7f+T9pjgvFKEUVJjUxB2YlFQ8zQrKaNL7gfBT9kFCWq6opOrzKnc7U5X4QRBEKO5Dgvcp12n5JNJdzhJofW47ePTEuCPH2yecaO9sbuvontDRne9XOQ3iwJETlwJ4s2eBDePnjuPcJD3sUkorIYTSWtssRXH0dCmAhgpIqZ9Xuinui8WsUVpK7c+gQUKlCKoZQyaj3hZFVoHwUfth81GlqFRhQ4A4ymLpxHwtxFiuUl8z6vPL0ca1FPEN/MPxzsFjEw+1nJx+vK1zWltH98zO7vy0apBTHV25/PsB/MC/Xp9NP9zZnW9DcaoS81oJIZTWGiElyak/n+SHqKxSGiCmSYVUJ2sqSS1nFDNMVk1U7lR/FPkMuz2JTEXBHoD93any72PcZhFJRTb0z93bB49NPHj0xMzWts6ZbZ252V3d+RmO42Rr6eBm287yF19/e/QZp0w7CADvfdfpXWvWbVwL4GbhYYvhpjQd5k8cIYTSWl0sg5vD5Qvq4hjP9cs+yVJ6GAEj7kuQ0ySj7ks9XR9VOM2Yz4v7/HLIaFjOZxTpNCLKnxMihlFOtTsxnh/1NeO8XhKxdUp8fpRtXsr1SPN7DrRMOnDkxJzWts45HV25eV25wmzHceoHw5/yXfuPvv+MU6b9u7DO90rSCrgpAvfyJ44QQmkdOCbCbVW40ptWIPgUf8WkNKaYAsmK0seNTkaJeIbdFldWk0RJdVIaJPFh0hlHGKM+1gl4TJz7nJD3ckJE2Ym4THHEtxyiHFdWyyWtRddPtHc1bNt1cPGxEx2LOrq6F3bnrVMcxxk+WA/a+YJ1OYB/96+PHzPi94daTh5AcQe9qyithBBKa/8iC+oshZS+CrcMVEu5pTSBnMatQZo0Z7SU2+X5OKf6gXiR0igSHyY4TgmCmVT+nAi3Bc07ITIb972TzMcVdkR8zaQkTQnoc33n3iMTdu9vWdrW0b2kM5c/y7LsuUPpoG3bzrvWv7xzzMolsw4BwOqzFlhr1m28D8AnhYddATclyuLPHCGE0lp+pgiS6l+2wI2UbgHwANwyUGWX0hA5DZNSIH57znJFRaNGTcOekyRKqhPTIAGNIqNR79PJXtj9YSIadj3qfUiwLOUU1aiyWc7Ialx5DdtfDAB4fuvuBYePt63o6s4vzxespY7jTB7ix+3sgaOtlwH4b/QO3rtHktYx3jH0Gf7MEUIorSWyZt3GlXAjp1Pgjnxt8KT0UbintTZX8v1Doqdx5LTUU/lB4mnGkM9yimkpfd7DxClptDOKXDoxhNKO+D6I+brypR1BuCshqKXmsZZbXiNVMDhw9ET9Kzv2LW/r7F6WL1grbNte7jgYwUN1MfmC9QEAPxVu2gT3TNMC4barKK2EEEprabKaBbDgxsuXrwewfs26jRV9v5in9nXzqshpmBjGyRdNehm2HED8qGkcuYkTAY0rpFHk1JfCqIJZrkhqmKhW8hR/3AFflZLZsojrtt0Hh7+x+9B5uXxhpWXZ59mOcxYPy+HYtnPRS2+8M+z0+VNPCjffA+BrwvXrAHyeWysUplEQQmnVSmQO7un+/hbUUvNN447Aj3JqX/eYOIOmwgZ16SQ9iqBEiYRGEUM7RDwdRI+YOiU8PqpMR81JTTIAq1QxjSOWpUhnJdIDjCPH21LPbH7z/HzBusC2nfMdx7mAh+FeMunUm4YQnXe8/chxHNsBbMdxbPc67F37W848ff7UpwAYN16+HGvWbbxXkta5cGu2Ps4tG4gFdxBboyew27hJCKG0DpSglqOzU1RJjXv6PmoENWppqCApVYkUYoqcSkadEiZEkFpVVDVsuZLkmIZtByDZyP+w6+UuX1VO2SzLa/38sRfPLFj2JY7jXAjgQpTe1KNqMQyj1TSNdwAgnTJ3GobRYQD5+rrMdgBOXSZ9cFh99ohhwFg4e/KbwxuytncczghTGr25qgUAOQCd0tTl3S5+33cCWA83l9XnFkprJA54l2MAXOtdroc70JcQQmktSVCjnt4vVyenUk7pRx2lH2cAlE5Oo0T3og5GCpvsEu6H9JioElrO0/dRpdMJkf4kAlpO8ay65gIP/P6FBZZtX+k4WAXgPE8ABoOQ7jUMtKRTqR2Gga66bOaVtGnkRjY2vNnU2HDs1FkTD4R8f8X9xz8GpNC37a6jOb6ZislAcSe1uyVpvQHA5wQpI8G0AFjrzV8B4FYArXDHWezg5iGE0lppQS1H/mmYiJoIP4WfdGS+/0Mmt/i0NfISJG92BEGNGj0tNcoaV0LtGOsZJKOlnKYvl5SWXTjXrNs4kPI6He5p6CsArEJxvdCawTSMNwzT2JsyjL3ZTPrVVMpsGzG8/q2Rw+uPLZk3ZX+E40E24Dsu76diKk8KvSk9kO6PIqxF/xkA3IneaHYWwKc9cSXxeNib5sKtzLDUu34P3E6JhJD+Dh44TrLfuvv/WJYBVJUQ1P44xR8l1xSIV8MUiqhMkOTEHWwUNmCp1OhpHDnVLT8Q7xR9nChpuaQz8hdmgEWykjQKknoF+tZPrmYxfckwjb2mYezPZlKvN9Rld48YXr/37NNm7lF8x3V/TE2En0kxNFIpp8PIr5ES5gE33zIPoBtuSoCfGuBPObgpBDYAx9vnfgrgJuE92wDMA6OtpdIEN/L6SW9b3uNNrdw0ZChy4+XLe+avP295v7xnf0daw3qK60pLlSqpSUpJxckzjSqkcfMfk5zCByoTFbVLWA6g9DzSOHIaJJeRRHIQC2dS5sLN9VvtTdmq/SduGDtMw9iRMo0d6XRq1/CG7OujRgw7uOzU6fs0MmoCGK4RU12EM2zgpOrY4H+PxEncJ1Wia2iWSX5vkR9J0toI4EsA/pq7cUm0Avi2N90A4OMAvgE3uv0jAE9xExFSu9JayZH8UQv0xx2dH5TbigBBDRJTJ+L9UeqHxskJLVVYgeQ1UKNIazkk1KF4VowGT04v9WR1evXJKbYbhrEtbZpvZjKpNxqH1W8/+7SZW4fVZx2N5A1XfP9TAXKaiimvQYMmxe+j5U22cCnnu0IhrrrjmJyC8BTcQVliBPw2AHehwvWvhxD3edMKuOkXT8KtOnAX3OjrYW4iQqpbWpO0OjUU0QQgfMBS1NzTUvJOgb6lo+JKV9RyS0nrlJYrnzRMlKOuUxwRpYRWH7M8Qb0UVRRNNQy8bhjGtpRp7kinUzsaG7LbL15xyhaoI5B1IdKZijAfJqxRjyMqafWFteBN/rwcfQX6RmB1si1HZy24A7K+ItyWAvBDAOfCTSkg5WEDgBsBfBnA7XAjr18H8KAnsI9yExFSxt+DMuW09vfgqbDc0qiiqlquIAkPktMgGbUDhC/paf8oUVZoHhdnPkxIE5dvooQOOGI09RoMfG5qp2EYW0zT2JxJpV5pHFb30iVnn7IV4afrdQKqutTJaZKoalh0VbwuS2vemwrCpRiBFb+L/mO6vcnPa/XzXFV5rdMBvOWtl8hXPcEilWE6gM/CzX1tgBvx/pE3MaeYDCpqNac1Sp5qFFktZaBUnJJSKqmKkv8Ytbg+AuQRSB5FBUofgR8nxzRMSCmjtcksT1D9aOpA1Uw9ZhjGy6ZpbMmmUy81DqvbcvGKU7YrZLEhRDJVQupfpjWyGhSBDRqElSSvXTzmiKkB4nsg4I8uIvwxV+W17oFbn/VS6fYvwE0fYO3WyrAHwCe8Pwe3e/L6NbhR7wfh5sOytS4hAyStUYU1rqxGLTEVRU5FGTMiiikQv4NSnJajSZ6bdBQ+hZQs80T1BhT3pu8vDhqG8WLKNLZkM+mXmhobtqxaNu/tiIKa0lxPSdfTmtujRlJLSSOKUk/Z/46m4EZNxTMmKUFk7YDvohGy7HJZvLsU0poCcD+AszGE6o76pRT78fh1GMBnPHn9ONy812u9aYMnrw+A7WMJiSedJaYHRMlZjRNRjfvDYUb40dCR5DR/0HxYV6egx8V5nzhiGllIKaODipQnK1d5P5JT+vG9Ow3D2GiaxoZMOrVhwpgRL65cMvuwRrhSAZKaCriumqJEVFMRjjVBAzCB4A50RoRjjp/Dmod7Wj8H9zS/P+/nutrCn1w/QiumCHRJl3n0TRHIAtgPdXOHLQDeBbeY/qCV1DhU+BjYCDfq+lnh+7jHk9cfwS1LRkitfc965mshPcAIuS9OOaooZaZU4mVFXJ6oZaV0khgmmqWctufpelKuH8VLAVznyWpTP73vLsMwNqZS5oZh9dnnrjxv0UvCd9aXxnqEn+JPOkXJTQ1LIUKAoMYR07D6vlFLy4nCGjXSqjpO5uCOZP+kYnkWA3gEwMUYZHVGkwir/LwKHDPbAHwHwPfhtta9HW6qzp1wUwfu8u7fy0MZIQFyWUKkNWiwVRRhjdM9Km5EI0xQg4QxTDbjiCmFlFSSiXBP+/s5qpUe7Z8zDGOjYeBP2XT6+XGjhm84/4y5YhQ1KFc0TtTUn9IIj6aG5aP217Elyp9jOWrqR05zwiRGTOU/zmKE1o+ydgmvkYcwkMs7NiwEsDVgHTYNNnHVSKuR8DOt5HH2Jrj1cxcIQZh74UZfN/PwRmrgu9YzP5iaC+hOqwUd6JOc7o8iq0HSWo7rFFJSaWbBzU31W6ZWkoOGYfwxZRob6usyz199weINCjmsQ7SBUWlpPkxQdbmpYRFUE+Ej+eP8sS3HpSytvoCKoipWExBrt/rL7ECfYiFuGxvFua2vwh14pdtXlgF4GsDVGAStSSMIa9hviaHaByqUE3uvN93iyessADd70+MA7gBLZhFSMWmNks8lYiNZm9O4ogokyx0th5Qyf5SUgxVwo6nXobIDqVoNw3jaNI2nGxvq1r37vEVvagRVd0o+jpiGSaouihq1Nqp8/IiTDx50LLBjHkegeB257JUfPRVrtzqaP/uinKu2V8+ArBsvX254x5q7Qv7gLAbwJ7j1RgdbV6co0XS5dbahmXcqlEJwtyevt8Kt7jAFvZ3n1gP4IljtgZCyS2uU0fnyY5PmjuleO27LUEopqVbO9yT1OlRuIFWnYRhPm4bxdH1d5g/vuXDxJkkMwyQ1ipTq5DVs4FTUeqiqY4Xqex1FRsvRNU53fBFv91MEfEn1xdUSJh9Vvqou3cKvQOBIsvUA3NzJ5oB9YSLcHNdPwc27HEzCGiSxut8cueqMU2GBzXnb/W643cu+BHcA3UoAj3ny+nmwVSwZ4lQipxUIL7gd9qMTpbB/1GhJKfmklFLSn6zwJPWmComqBeCPpmk8nc2k/3j+0jnPjBvV6EhiFKXElE5W0yHCKguvgeIR/WEl7KIOgtK1O47T6thG8lbIiCCtsrjq0gLE7edLkx+lzaE3p9WfxBQDRzhefR3u4J8oPAzgI6ixQUGK1ICwmuFRgiOxqriU8behEW6ZrM968z7PwI28Ul5JNXzneuZrLadV/jeqEz4HwTmuUXNe41xSSkk1sxhujurNcLvplJuXTNN4JJNOPbNgxoQ/Lpw9qUuQ0jSilZyKEkWV53Wnr80Eghr2HY8qpbZCHJ0E9yURWNXyWopJFlbxdfzuVuLnlRbkV462igL8I0+AUhH2mSvgDt76BNzqA4MiQCPNhzWCCPvjIUdegfJGX9vg1ni9C27U9TbvszsfwJOetH4RbFRAhhjlirQC4YW2k47Q1YkmpZTUKnPhRlNvgDu6u5y0GobxpGkaD40eMezRS84+5TCCW58mkdSwSGoqoqDqZCFIHILKROnKRsmXluJ23WOTCisQnCsrLqMlvbYh/KlIA8h4U1rYVlGirf7r+8e833lCGoen4KYMbK6RyE9YVRsgOB867DcoqB638vepTL83C+BGy69VfD6fh5s+QEh/f9965msh0uoooiEGgluiBkVhwyRV9TxKKakVpsONpl4HYGmZX/sV0zQeyqRTT1170dI/QD94SiWWYXIalJuqklRdTdSg/NMo3eZ0YmkrRDXu7WGyGiasQLT0AHn9ZImWo6y2cF1ukODf70utGK0V10sclHVXAmldBeBFuJHaLwI4UKPfP0ez/8VNQTFj/GkBhOhrib9L2wC8H26O651wU4n8z+dZuCkdn4FbLYKQQUu6AgeGsPSAqLJKKSW1zhS4EdXrhB+ZcuBHU3/XNLzh0ctWnnpAkJoMotVHTScQ1aB2qHKx/qB2ykGCqhNTWTKtCLeFiWrUiGqU6FrUQZ06cZWjrLKwWijObTW8z8dfb5W4Fi3L+DEjfn2o5eReJMuXvtXbl38EtxRTLeS7qtLWgogir1Gi/qoUgnLJ63q4LXhvght59VOKroBbq/nuGv9zQUjwl7TENq5h/0yjDqiilJLBwkS4p/2vg5t/Vi5eM03joXQq9dj7Vy/9A/pGNVUDqMKiqUGn+9MIr48a9fSqaiCS6ofeUsilFXLdjiCqukhtnEFaQHhUGBGENex5YjmrDNyGEXXClEVvmoBY71Vs6SqmCRQJ7H2PbPyC4+DvS9wX/U5b34QbAawqAlIEAH3jm6hnBhAirVH2qXL91jXCLZH1aRQ3Fmnz/lh8G0AnD8mkgt+1nvlaGojlBHy5Q6Ota9Zt5CdPap1GT1JvhltbsRxYAH6fSpm/aRre8JvLVp66X5DGbIiopiJIapxoqvwjr/q+24rveLnkVCWqFoJP9Yed7g+SCyBenqpOUp0IEi8/zt/Gcm6rrrKA/GdA3D6O/PmkTPOugmX/LUrrnpaFG3m9Fe5p6R8BeNCT2WojbJCw7jMAog8OlPcnE+pc6z77UonR1za4+ax3A/gu3Eirfzz6GtzBW1/E4BlMR0hZIq0lQWklNcylnqhei+KyNElpNQzjsZRp3D9l/KgnVi6ZfRJ9uyAFlaAq5yn/OPmouh9vXQTUCpm3Qp7rBEhqmKiWUq5Kd59KUJ0If/SVx2QUD8LyI6z1ABrQG23NoG+01R+UJbZ3lUtgOWvWbbzb22/LyWFPju5CFURfQ8pfyfOqaGtYlzUgOP86KN1F90eo1MjrtXDzXeUqJJvhDqZjmSxS7u9Zz/xgauNKyGBiAdx8sltRnlqqBwzDeCiTMn9z2rwpj8+fPr4AfUQ1qqimoU4JUJW50kmqKqqkOlWui3ZaGhG1AgTVUjxfJb9JB0wl7XoXR07jSIejESsxyiqXxBIj2qrGAyqJ97EAIJUyv2dZdrmltRnuaepPe5L0gCexA9Iads26jY4krvJAYUParw3pT4ON3rMKDoJrvQL6WrymdGlAnXoClB55XQs38v0FuOXN/Gj6UrhlstYC+ByAHTyMk1qFkVZCwmmCm6d6C9zRu6WyyzSN+zPp1EPXXrR0A9SlqHSymk4gqqkQUZV/gGWxChrFHxYtLUj3BaUB6MpRhdVOTdq1KoqYxh5QmjRaJkiWWIPVz2n1I60N3nyd8AfEQW9nLTHK2uldii1ibQD2mnUbny7TvhzGNk9gH8UARPpiNBzQ5bnq5qNUwwg6I6Dan+U/T6VEXufCTRmQq0Xk4Oa6fhXMdyWlf7965vsr0kppJUTPVZ6oXoPScgAB4DnTNH43rC679uoLF++AeiBV0Ch/lZyqBDaoDFXcHD0ngqBamnndbUlG9kcd3KL64S8lalqyiCaULDFFIOtNorT6k1+7FcIfhG4Upwh0qcT1Z49uusG2nf7OdWz1xPVxuEXxdwJoifkaU5CgckGEdAGduMrCmgr4PoXJqyqfWy55phy0VcL+dw3clIFZ0u074TaP+A0P86SWpJXpAYQUsxhuvt/NcCsBlMLzpmmsGTm8fu0V5y4Sy1KVctpfnk8hWkF/lZyJkqcrzi/KZkGSUZWchg2qCqqRWq6OU2GlpgZESGMgbgtV1ywbfUtipUJESry9sHDWpF++8ua+A2XYx+PQ5EnUNRUWY/H092YAh9es27gTwA7TNI782aXLtij+vMjSKqZo+I/x501p28vzKnE1hUv5T5up+dPWM5WQNvAg3Cj37XBTBhq822cBeMi7/xMYoDQOQuLCSCshbj7eTZ6oLivxtV4zTeP+xmH191x53qK9CD71nySiGkVUgeBqHrqWpboIaZCkqk75xyk/FVQ2CEheA7WapTQseuGLk1/2KgM3HcCPsA7zJjFNwBctsQRWJ4ojrv5grQKAws8e3XS7bTtfGqLf+QMANhsGngOM9cMbss9dfcHidoXgm1CnDOj+IJoB3z3dH8Og70w5I6+6lIE2AP8AN20gB0KiH6t65hlpJaSypOCe/r/Vu0yV8Fp7TNO4t6Eue997Llz8uiCTQRHVOKWo0tCf9jcCojyAeqCSKgoqymcB4VG+MFGNK6lJc05rUkwj4v+RSGk+C3FQUVrYr8Pq6ZoAjIljR/7XvsOtt6P01JdaZCKAKxwHVwAO2jq6sWbdxi2GgT8YhvFcJp167tqLlu5C3yipan+V/yiq8sXl54flhqu+S6U2KtgB4N1wS2F9C70VTxrhNiq4GcBH4aZuEFKVUFrJUGOWd9C+FW6ENXGkxjSMBzKZ1P3eYCo/1y0LdX5q1HJUQSWpwsrvBI3sjxJF1d2XRFLDiq4D4ZHToSKnOmGV0wQKwiRWVxAjgLK4aiOEF545r+Vnj276uW07f87DAgBgseNgseM4/5/uXAFr1m08YBj4vWmavxo/esRTq5bNO4Hi0f/+ZyN+R0WRNSWRFT9bU/En0gz4rhkoPgOBEuT1Lri5rD9EcdR1IYCn4VZ9+AzcMmaEVBVMDyBDgRTcPLrbEL/3ukiLYRi/yqTNte9ffcajiH7aP0hQdbmpQQM+gupEqiKpchTV0tweVCs1Tn3UOPVPh7qcKpFSBFLorSLgpwgM96Zh6K3fmpbER+yUJaYK+AOzco9teP2Uw8fanuQhIhK/N03jyWH12bVXX7B4J4JTBoJKyiHkexvlO9jnu5TwOyNHXX0Ow426ruXHTgKOUz3zTA8gpHQmAviYd2BOOuCk0zCMh9Ip877F86Y8KtRRzSK8E5VOUuOIKqCuwxn0gxcmqbrIatRuU3E6SgEBLU3ZsjkUOQKni7YCxaWybPRNJ+nzR+riFads/9mjm561bedcbupQLrFt55K2ju6vrVm3cZdpGL/KZFKPX3jmvCfHNg23UBx1lb8PcgqBIf35NFHcUcv//MTvqKmRV6C0qOujcKOuYje/ZgC/gFuu7K/BqCupEhhpJYORKzxZLWWU8nOplHnPzEljf3bWohkd6BtVFYv1yykAGUQ/9R9lEJUsheKPliyeUSQ1ySl/nahSUCsXxRCjeP6ALL/01TC4kdZG9EZc64R9D8L+0I3iUljdwmXu0T+99q6jx9v/g1s8MS2mYTxYl03/6r3vOv0x9D37Il/XDdgKi7rqcsrLNViLUVcS9xjVM89IKyHxaPYOurehbxvDqBw2DePeYQ3Z/7r6gsXbUFyiKiVFsqIMqNINphLrPRqIXqBcFU0Vp0JESbUQPSdV1QWLgtp/iH9UUugbbRUjrpD2sbBIfxpAZtWZ85/75ZObd9u2M4ObOxFjbMe5pbM7f8uadRuPpEzzlw11mV9dfeHip6XjhiNcB9RnVeSoq/+ZmyiOvJqK73GpZbL8qOuPAaySjq2/8KT1o2DUlQwglFZS66z2RPU6JKwAYBjG79Ip854Lzpj76/FjRvg/GhnEb5uqGvmviqgaih8qWQqtEFEtaK5HyU+Nc7of6NsO1KGg9ru0OsJn60956bo4MCstXKr2YT9y253NpHKjGhv+p+VEx+3c3CUzzrLtj7R1dn9kzbqNB1Mp8xeNDXVr333eohdQfNpflFdVrVdxoJYvrP7nn1KIq5zS07P/3Hj5ciPGd3QngHfBbcf7FRRHXa8FcD7cdIEH+FETSishESMbcDtVfQxu7cEk7EqZ5j1NjQ13X7by1IOIVpoqKDdVvF83EAPoO9q/lGhqXFGNMsI/MIpKQe0/1qzb6EfLxFQQOdqal+RVbDrg/4kLqgOcOdHWmcpb9mxu8bIzwbLsj7W2dX7svkc2bs+m0/81c8rY+89YMO24JK8O9AO25CoDpiCspnTd/84bKD3f9dtwI6uqqOv93n0fhtvMgRBKKyEKzkdvVLUhwfM7DcP4VTaT+u9rL1r6BMJP/4tiqstTVbVODepGpathqhtAVUDw6f+gDlSU1MGDvK+opFXcJ1Ti2kdYN2zdddHu/S0fsix7LDdxBT88B/O684Wvbdt18Cvb9xz6XWND3b1Xnn/a495nlZa+jymNvIpRV9WfWV3kNWnKgBh1/TqK6/leC2AFgA/Cbc1LSL/AgVik2mmA263qk3BbrCbhhVTKvGfi2JE/u+CMua2IPupfJaxhHamCclTluqlBA6hU11VyG9RJJ0xUKak1gFT+Ko3e8ld+Z6xGACO8y0b0dsvKojfyL+53+XcOHhv34ra3r2/vzJ3CLTxAP74GDmXS6Z9MnTDq/hWLZu5F37rMqnxX54XX98w585Tp2xCtQoj8p7XnOx/zu74MwBqoz2z9A4Cvgt20huKxqWeeA7HIUKcZ7un/jyNZE4BW0zDuravL3PPeVUteRnFUNR0iqmG1VOUfFDEnTVdQvxzRVHn0sKpuKiOpgxd5PxKjrTkUR11FSfGF1+nqzjc8t2XnxQdbTp7rOE6Km3QAP0wH43P5wv99650j/3f3vpanhjVkf3bWwhmPjB8zIo/eCHmffNdd+1r+pr0z998XnDF3PYpTA8SIqz/5+0upKQObAJwB4AdeEEHkCwAuhRt13cFPllBayVBiIdzTUTchWQrAS+mU+e8LZ0+6f+HsSd0oPv0fVvQ/HUFUgwqF2yGiGpabGhRNtRBc2J+SOviFVdUhKy9NqooCBgDj5e17l76x59DlhYLVyM1ZXVi2vepke9eqJzZuO55Jp9dOGDviZ+edPsevYCKmHcEA7H2Hj3/3hdf33OxFXOVSfPKfYQMhKQMRjwttnpg+CuC7KB6ktQLAiwA+AeBufqKE0koGO6sBfBbJOlZZhmH8or4u84P3rlrynHAAr4N+UFVQdFWWVTmaaiC4yL+uuH9QZDWoFmNYRJWSOohRDMjS5bX6Edc6cR9rOdEx+rktOz9woq1zLrdmlf8zcTAqly98+O0Dxz78s0ObtjQ21P332YtnPTS2aXge/oAtA3nHwYgdew7fNWJY/Y3zpo8/gOKKAvLgLFFeVVUG4kZd7wawHu6ALDFlqxHuwK2rAHwEHKRFKK1kkJEFcDOS56seNk3jP8ePHvGDdy2ffwTq0/9hpaminP4PiqiqioCHnfbXiWqcaColdQg6TYi45iSBzTy/dfcFO/cdea9tO1luvtrCtp3FJ9q7/un3f3rt8/XZzM/mTR//04WzJx00DKMdAGzHGb/5jXd+UJdJ3zp90pgW4c+1H201UTxASx6sZcjHlxjyug3A2QDuhDs4VuQ6uDmw18NNKyCkbHAgFhkIxsDNV/0kkuWrPp9Jp36wYtHMtdMmjvYPxGkUd6gKO/2fkp4TZzCVqlNNWERVNaAqKDeV0VRShDQgK+X9QRM7ZPUMyDrUcnL6hq27/qqto3sRt9zgIZNOPeI4zqiCZa/oiTylzFcvOGPuRyaMHXkS6jM+hYBjkjyAs+f4EuO4cguA76FvOlcngE/BbVpABucxqWeeA7HIYGQB3HzVmxE/XzVnGsYDDfXZH7znwsUvom8KQNipf1lUg07/i2Io56faESRVN5o3rNA/o6kkCnKzgbxwmXv6hR2X7DvS+r8dx6nnphpc5AvWZfJtBcte+PSLO35w0VkLbhvbNLxDOJ7Jtaf7RF3XPfvq7NMXTN0+cezIPJIP1LobwGa46QJiCkoD3IFb58PtpNXJT5BQWkktsNqT1asSPPdgKmX++6RxTT8+f+mcY95BV8xVlctSZaBPBwgqJwNJUqOIapisqvJUdfmpoKiSmMIq7l/57XsOjX7lzX3/2J0rnFPtK2EYRlc2k9qfSaVa0unU8eEN2b0p01SVTHJGjxy2N50yux3/O+HAARzHceds93bHcRx3m7R3do9s78yNcxzHdgDbcRynoys3w7adTMGyJ9q2Pcp2nEbbdqYPlp2iYNmLn3h+27+de/qcT01ubvJzScXarmIr2Lw3X+jOFxY98+KOG6675My/l45TEOU1wvFnM4DlcMtiyeMSboabLvB+uGkFhCQ/djA9gFSILIAbPFldmuBH7dlsOvWDVcvn/2rMyGGAfkCVKKtxRNVQiEBUUU1S8D/stD8llYQipAj4+3UWQN3v/rj1+hPtnf/sOBhWbctcX5fZOWJY3VujRgzbOXrEsAMzJo95O2WadkxJB9TtjlX55VEGQ1oACi2t7XVv7T0y9Whr+6lducKMfMGaaVv2XNtxptXi/pFKmduXzp/6CW9wlvhHXJUuUHj0udeWHW1t/+XI4fVXXXn+ac8o/mD3bP8Yx6SvAPiS4vY2uF202AJ28ByPeuaZHkBqlQYAtwK4HcCUmM/tNA3jvsZhdXddef5pWxGeo6oTVdXof52o+gdnXY5qAeF5YVGL/fO0PykHPfvR7v0t6ee37vr7gmX/VZUsm904rG7HmJHDtzWPbtw5a/LY3el0ypL29fqY66r6c6mabIS3Qy76Do9pGl4Y0zT8bbjdn3rua+voNje9tmdpa1vnWd35wnLLss/yjjdVjWXZ8154/e3/2X+k9W8vPHPeM+jNgRbToHqmSeOa3jna2p462dH10yc2vnHpRcvnb1f86QbipQt8GcAWAD9BcRpYI9wUgm8C+Lz3HoTEC2gx0krKRCPcUaS3I/7gqn2plPlv0yeOuefs02aeUMhqn/aTiFZTNU5EVXfaP0xUk9ZPpaiSpNENA4Dx4FMvz+zszt/rOM7ZAy2qIxsbtk8dP+rFudOa3xhWn+3S7e8xJVUl6rp5XXvkKFHXvHRZkOYL3bmC8+zLby1vbes8pztXuN5xnInVvp9k0qkNs6eM+9YZp0x7A8WNT8RjV/6+Rzb9yXGcZsMwdiyeO/mShbMnHdMc2+JGXZcC+BUAVRrGwwBuBMti1fqxqGe+vyKtlFYyYLJqGHg5k05/96Kz5j8weoQyBUA36dqqRilTpWufGkdWdaf/Q0WVkkrKIKy4//cvnG1Z9loAAyZP2XSqderE0RtOnTnx5RHD69sRodJFApyA+SjpAg761j7WRV7lKa+5vfDkxjeWt5xof0++YF3lOBhVzftMfV3moZmTxv506YKp26TjoQXAeuCxF79XKFgXAUDKNJ85Z/GsG6dNHN0GfYWBOMeziZ64rlDctwPAu8EuWpRWSivpJ1n9ONyGAGPiyarx8LD67Hfec+HiZxOKahrRo6q6OqpRJFVXT9X/IZR/KOUfU4oqKbuw3vfIpmsdx/lvJOsYV/oXf1jdOzMnj9142pzJryqE0gmQznLLq0pao+a76gQ2SFz7zJ9s7zLWv7xz1Yn2zg8ULPsiVHEKQSad2jxuVOO9q5bNe0wU198+88r/OtHe9Tf+41KmuWH5wuk3zJoyrlU6HvZpShDx+NYAt+nADYr7WuFGXB/mN5zSSmkllaDJk9VPx5TVnGka/zNqxLB/u+ycU99A9DJVQSkAclQ1yoCqQoi0BuWpUlTJgMmqK6wbP+44+Bf09qbvN8aMHPbGKbMmrp8+ccz+iEJaie9AnMirjegDtuRJThUIvdy172jj1rf2X97RmbvGsu2V1bo/mYZxqHFY3a/mTh//6/nTx7+zYeuu095658hPih5jGpsWz53ywVNnTTyCvm2mk6YL3A7g64rbLbg5rt/kt53SSmkl5ZTVT3qy2hTjecdSKfM/p00Y/W/nLJ51LERW4+aqGtIPleqHSBbUPOIV3I5y+p+iSiotrMZ9j2z8e8fB/+vvZRjeULf/tDmTnpg1ZdyeAd4cTgyRjRJ9Dcpt1/3RFUVVnIru2/jq7hnvHDx2fXe+cL3jYGy17l+ZdGrTqBENvz1yvO1zjoM6SVxfPW3O5BsWzp50UDhu6nJd5WNgE9T5qjfAHaCl6tB2N9x6rjl+8ymtlFaSOMDiierHY8rqrkw6defSBdPWzJk6Lgd1BYBMBFk1JVmVf6zkXNWwPLWwXNVYo/4pqqTCsjpgwprNpE7Mmz7+ycVzp7xaA5vMCRHZUtIH5D+9BUlcC55oyTJb6M4VnCc3vfGuk+1dNxQs++Ja2w9N09i+YMaEPz99/tS30feMVFDU9Qdwu2GpGgqsAvAQ3BQzmUfh1nNt41GA0qqCJa9ImKx+UnNwUf8LMvByNpP+zuqzFvyyqbHB8faxeuijqhn0rRTgT2GlquwQWVWNCo5SpoqiSqpBWP0c1q/0p7AaBpyp40evP2vRzGezmVShRHkcKAzFfFAUVlUBJKgMnkpc5ehrvi6bzl++cuEzAJ589a3947a/ffi6ru78DY7jTKmFfdG2nXnbdh1cC+DPTp8/dZcXPCh429QvWaVqRjAdwE89AZV5CsC5AB5B34GElwJ4FsDVAPbwaEAorSSKrH4BbkWAGLJqPN1Ql/nna1YteQrF0dJMgKjqIquqTlVRBlWVM6pKUSUDJau+aBn3PbLpbx3H+WJ/LUN9NtNy5qnTfi3krUYVUyfBY8oppqrrOnk1FAKbQt8c2LCyWWFpA370NQegsHD2pBMLZ0/6DwD//sTGN1a2tLbfmC9Yl6DK67/ajjPt9V0Hf9nZnf/LcxbP2oK+KVp9arrC7ZDl57B+XvGyWwCcDeB3ABZK9y0G8CcA7wWwgUcGQmklZZNV0zR+2Tis/ttXnrdoi3fgr08oqwaKUwAc4V+8HSHiEUVW5QFVNkWVVJmw+pfmzx7d9L8dx/lyfy3D5OamDecsnv0HKboaJJ9RL6NIqxNDTsOEVHebTmrl++MM3lKd3VGlDeTEY9NFy+dvBrDpnYPHRry8fe/72jq7P2Dbztxq3T8dx5mwe//RX5zs6PrMpWef+pBwvBajroa/zQzDeMFLPbwdwKsA7lG87B4AF8AtiXW+dN9EAE/CjdSysgChtJIeGuGmAHwW0XNWc6Zp/PfYpuHfu3jFKW8JshqWAqBqsSpHVlUVAHQlafLQVwSIMvof4IAqUl3CagAwfv7Yi6tt27mzP94/lTK7zjxl2to5U5t3KwRSlxuquq76TjkBYhr3e6aLrOouTY2YGhGe73jP1wmsFfH4JOe7iscoe+qE0dbUCaPvB3Df81t3Ld53uPW9Xbn8FdXYjtdxMOzo8fbv//oPW+a958LF34E64goAdjaTerE71/Pf54dwO449o3jZFgCXAVgD4BrpvgZPaD+ikV4yBOFArKFLCm5U9UuIXqD8RDpl/njaxDH/v7NPm3kM6hQAlaz6NVaD8lV1uaqFAFlV5aoWEK34f9GPJkWVDKCsijJlPvT0lnltHd3PABhd6WVoqM8evOCMuT8fM3JYq0Imw8pIOQiurBEmrqVIq0o0DY2gypMZ8FiVHMtiHif6moe6UYHu7I917ERHduNruy9pPdn5noJln16N+24mnXpsxaKZfzNt4uij0vr1rNeadRv3orfhzGHTNC60bed1zUtm4VYVuEFz/6cAfIdHjao7hvXMcyAWqSQ3APgagKino46lU+Z358+Y8MMl86a0o+/gqgyCI6tRaqvqohZ5BEdYg3JV5R9ViiqpNmEVo4LG+pffGtPe2f3r/hDWcaMat1545rzfCukAQfKp+k7pvme6MxlJoq5xoqumQlbNiPNmBPH1r8tRWAu9ObHyH+5swDHLVl2OHjmscOnZpz4M4MGX3nhnxq79Le/p6s5dU02dt/IF6+JnX37r4Un7Rn7qwjPnrRe2Y96btwzD+JPjOFd7T2m2bef3qZR5jmXZ7yheMgfgg3CrDdyiuP9OT4C/yKPH0IbSOrS4FG5i/LKIjz+SSae+vXD2pP86ddbEbvRNAwiSVVV9VfGgbytkNU4rxSSlqiirpNqEVRSn1NsHj/2H42B2pZdh5uSxT52zeNazCG6FakF9SlxXcUMnsFB8D+NEXONEWIMEVS6fZyomncTK7yWul4m+0VfLOx4WhPmgtCVx3h/ElTt9/tR9p8+f+p32zu5/efalt1a1tnV+oGDZF1TDfuw4zuR9h1v/58GnXv7eZStP/Zf6bKbL2zZ5AIZpGC9avdIKAFMsy/5tNp26MFewjite0gLwYbjlrj6uuP8Lnrh+lEcRSisZ3CwF8C0AqyM+fl82nfr2GadM++msKePy3n5SFyCpOlkVox8+uoFVOknNQ9+xKkhWi34MKaqkioU1BSC19vHNH7Zt5z2VfH/DgDN/+oSHzzhl2ovQR1NVI+Z118MEVieucdMEosqqLKk6OfWnlHRpBsisLh/WX35TWG8/8pqGfjCorsFBHm6Etts/pg5vqOu69JxTnwDwu83b3h6/a9/Ra7vzhb9wHIwf4F061dGV+8Svn9py+cRxIz97wRlzN/riWpdNb+zo6tMnYHGuYP28cVjdlW0d3d2a1/yEJ663K+67zdu2H+HRZGjCnNbBzUS4aQC3Rnz8rrpM+l9Wnj57zcSxIy3o81QzCE4BkBsBqFqrqgp2B0VVo+aqMqpKakVYe8Tp8ee3zT/UcvIZAMMrJ6yGtWjOpF+fNmfyVgS3PI4zhclrnIhrqdKqOuWvE9WUNK+6TZRZA31z8VU1pBHyR0An+HKk1Y+2dgPoUky5ru68/fjz2y5v6+z+sG07Z1fDPl6fTf9k6YJpd8ycPLZly469jVvf3L9D89AHxo8Z8eeHWk4G1QH+gvf7peJuT1wtHlkG9JjWM8+cVlIKDXAbA9yOCOWrDAPbs5n0ty9eccr9I4fX+/tFvUJUgwZX6WQ1rLVqHsFR1SiyWvTjR1ElNSSs6da2zrojx9ruqqSwmoZRWLpg2gPzZ4zfAX0nOVUHqILmOxkkrw4idpRLIK2QZNEMkNdUgKymFcIqt5iWJdaCOpUgLPqqywPWiW3GOxamg5azvi6Tv/L80x4F8PD6l3cuOHCk9S+684X3V3I/CqMrV/jQn17Zec3L2/f+x9IFU39gGMZOx3FmKR563aGWk9b4MSP+YvVZCyzNMfsfvHX9iuK+W+BGoz9EcR1aUFoHH9fCTVqfHkFWt2Yz6W9fe9HSXyA4TzUssqorWRV3RG2YrGqjqhRVUmPC2tPW+PHnt/2N7ThnVer9DcOwlsybsnb+jPHboR/0aEGfmpMPENgoAyCD6rcmlVYgWnqAKhUgrZFU+fim69SnSiUISx8QB3AB6uoL/vZTjQlQyXXO/2xWLpm1G8DX9h1u/c7mbW9f29bZfbNtO9MHYn93HIzq6Mp9dv3Lb/1vwOgKeOgNh1pO5h5/ftv/uvHy5Tpx/aq3vl9S3HeTd0lxpbSSGmSpJ6urIsjqi/XZzD+/912n/xbB+apyhDUVQVaj1i7Mo28TgALCmwCAskoGi7C+8NqeGd25wt9UchkWzp7461NmTXwN4Wc8VHVF89CXa4o7EDKKrDoaUVUJKzSyqMtpVQlgGvr60kEiq0ohMBGca6taf1VesQV1dDUlLWNO+ENhAXAmNzdZk5ubHgDw82dfeuucgy0nru/OFS4aKHmN8J/k5sPHTtoAPuy1f1U94ctwo6q3a8Q1C+BGiiulldQGzXArAoTmrRqG8aeGusw/XbNqyRNlllV5cEGU0/+qrlUcWEWGirBmAGR27jv6d6jg6dx508f/dvHcKS9BX05OzJ8UL2VhzYcIqxPhe1vO5gJxqwiYCsEUBTSD4prTUcr4iZfy6xuKY6WhWRdxewVVOAiTVrHMmHHu6bO3ANiya9/R5q1v7X9/W0f3NY7jjKy274nj4C/ve2SjdcNlyz8SIK6f9+T004r7roNb4/WDPOpQWkl183G4iepN/SyrURoBRBlcpRrIwRQAMhSENfvUpjfOzxes91VqGaZNHP2HZadO34C++ak5SVZzkrTmoI6yqoQ1SqkrWVBL+R4H1W1VRVtlgdVFXYO6+anmxWOknG4gv49u8JYqB9YJWWZZWv3PRj5+9jBz8ti2mZPH/mdbZ/fdz2/dvero8bZrC5Z9WpWJ6/+675GNuRsuW/7XAeL6GbjjNT6muO8KL3DzIx59KK2k+lgGtzXe0hBZfXp4Q/brV1+weH0MWdXlrPqoBnDoTjOGySpTAMiQFNauXH7YoZa2v6/UMoweOez1806f83sU55GrRLVbui7Ka5S6yHJuJqCu5KH6DpfaxjVIWhEgrXLkNRUirxnN8TKjkFc5fcCS5FWOvkJxXVdjVl7ODIrz/5XS6j+msaEuf9Hy+U8AePiF1/bM3XPg2HVdufwV3utUg7j+lSeunwoQ178WxPQAgL084lBaSfXSBOAbcGvVBcnqo43D6v7pqvNP25RQVuX8LLGFoSoFQBdZzaPvYA+dqLJcFRnswpqGe4qz7smN2//Csu1TK7EM9XWZg6vOnPcz9M1TFUW1WzEvpgfIwhq13Fy5UgGSiKxOBINquKYUAiunAIjHzKxGXlV5sHEGb6nWQ1XCS0xnyEOdpgHp0haOxxkA6TNPnb7zzFOnf3XP/pZvvrxj7zXtnbk/dxxnShWI6/+575GNTc2jR3wkYHDWJh5pKK2k+rkFboOAMQGy+uCI4fX/fOV5i7Z4B7aosqpKA4AgqmJUNImsMgWADCVUotEjrG0d3SNOtHf+dSXeOJUy2887fc499XWZdvSt9+nLaZdwvRt9c1kLCiGSu2NVOg2gFHmNI7CqSKb4menyXYMm8Xgbt/qAanmBvqkCfh1t1R8JnbQWhHUxARjTJ43pnD5pzH8BuGvd+lff1drWeetA13x1HPzloZaTzb968qXrb7x8eSd/EwiltbZYCOAHAM7XPcA0jZ+NHF7/7SvOXfQ6eiOrunysoO5Vcs6qnAagKomjSwWwERxZBWWVDCY0UdaiCCuAuvVb3rrOtp2JFTlYzJr4y+bRjQdRnAbgy2mXdJlTSGvQ4Ej/OwwERFUH6LvsSJ+Do5HYIHktQJ02kJMEVhcEyAqftaqmdVCLa13pLKC31qscvQ+qiwuNtGo7gF2+cuFTAB75wwvb5x1qOXlbwbLf663LQHBlZ3f+iQcee/HKGy9f3sLfB0JprX6yhoHPOQ7+VnfgMA3jvlEjhv3TZStPfUsjq7pBBCpZ9ZFlM6i+alApnLDOOJRVMtiFVYywZgHU5QrW8OMnOz9ciWUYO2r4pkVzJr/ofS+7JVmVhVXMZc0rhDWKrFbld1i1PELnHkchr7ZCYC2NwObRd0CUeGzNIjjyGjV9QDd4y3+cjd5WsUGfj39fWpBWVUOYnnW/8Mx5bwH4zGs7D/z967sO3Jpz28WOHYCPckWhYP3xZ49ues+Nly/fofhcp8Dt+rjUW59GAAsAbAOwBcCjPDJRWkn/sAzAjx0Hi1V3GoaxdsTw+juuPE8ZWdVJqy5nVTzQqeo4RhFVVd4bUwAIhbX3O1gHoH79S2++x7LsGeVehkw6dfzcJXN+oZHVLklcxbQAuTqA7juMWv4Oy8srSWyYwCYdtKUS2CB5TUMdBVXlvKbQWyIrbACcI0iurqZsnyoFp86a2H7qrInfOXK87d+f37r7vSc7uj5s286Cfv7oFti289x9j2z8RwCjPSmdi5BByB7vBvAwj1CUVlI5GuB2/visd+CQZfWhEcPq/vHK80/bit6c1SBZlUuymNLriikAqpzVIGENq9cIyioZQujyWH1hrQNQf/hY2/+qxJufNnfy/wxvyB5Hb85qF4BO6VKOsOrSeQb9n01xXSIIbNCgLfm0f9S816D6r1Gir1DIrBMwb0HdflZXD7anLu+4UY3Ou89b9CCAXz/70lvnHjh64kO5fOGCfvy4xjgO/jnB874LYJG3rxNKKynrL55hXOA4zn94/yTl+x4Z3pD96tUXLH7ZO6DIOVNZBOetypFVILjGqk5YVZUAVGkANR2VISQqQpQV0JS38oS1YcPWXRcULHtmuZdh/JgRf1gwY8IWFEdXOwVZFaOs8oArayjJapDASrmwYg6pjd5T8r68qtIH0uhNH8hECChEGbyVRrSBW4C6JJijkfAgaU0Lf2os8TXOPX32SwA+t33PoRlv7D50fVtn95WO4zRU6Uc7F24zgjt4pKK0kjJRl02P6M4V/tFxnI8rZPWxYfWZf3jPhUueD5HVrOJfu650la4aQNx8VQ6uIhTWYlnVCWs9gPoDR05cW/bjRyZ96LzT5zyAvpFVUVrllICC4o/nkE/jkaKv4oBUw9tWhkb+/GNtXjj2qnJfVfIaNHgrKPoq1n0NEtewjmFySou4//r7ibgdTACpedPHH5k3ffz3j53o+MkLr++5oqW14/2WbU+owo/1CwDuAeu5UlpJ6ZiGcXZ3rvDf3j9CkT8Mq89++ZpVSzaiNw0gFfKPPa35Vw4k616lGpgRVLaKokqGIqoffnHwVT2AhkMtJyd2dudWlvm97SXzp/y4Lps+KYmqHGXNScJqab7L/A6rBRbCcVROH5AHbRUQLfdVDjokSR8wYwqsLsVAlbubkfYVMfLcM4B39Mhh1sUrTvk1gLV/3PzmBQdbTr4vly8srqKPshHA9wC8l4cqSitJyPgxI9KHWk7+re04X0Bxjulz9dn0l9530dJnUXyKKUxW5faBYkRAFNaKVQLgDx0ZSmjSAsTvqi+sdQDqX31r/7sdp7zH23GjGp+ZM7X5NU9MOzTSqhpwpYyu8jscLLCa9AEHfaOvYhcsXdOCjPfZqI7pKpkNKp1lI37TAiA42qqSVnFfFwfxWgDS5y2dsx7AH17evnfurn1H39fRlbtUeK+B5BoAVwH4DfdmSiuJiWka8w61nPxvACuEm5/PZlJ/9/7VZzypkdWwigCqPCcLxXVWVTmrUSOrrARASF90P/Y9Ja48ca0/2tr+7jIfR9rPWjTjPkFQO4TLLklYcwhp98nvcXR5lQQ2aPCWnPcqRmHDcl+zmvmo0degwVuQxDNwIJa0v8iv50iBEGPJvCk7lsyb8vW9h47/20tvvHPdyY7u9zmOM3KAP7474ZbA4qAsSiuJGpm575GNt9m2889wT1kAwAvpdOqr1118xiMKWZVrq2YV/7ZTClkVo6L+QUeWU1UlAJ2sqrqs8EeODOnvsuLHXs5lrfenrW/uPyNfsCaXcxkmN4/6dVNjwxFBVMVIq0pYxYgZo6tlEtiAwVtOiMDKjQuCGhYE5cDqymdFTR2QG8uIg7FkaZX/rAHFYyOKOipOGT+qdcr4UT842dH1ow2v7Lqi5UTHjZZlzxqgj4yDsiitJOoP3AO/f6F5zbqN/w7AH4jxUjpl/sN1l5z5axS3CdTV+5NPD6kaA6hkNUhUo6YBUFYJ6Yv4Qy9GWftEWt8+2HJJWQ/a6dThFYtmPiQJqx9h7URvlYAC1NEyCmuZ5VUS2CSls9KCwAYN2ooSfRVf04J6UK4orqqarX6bWPn3QH6uLK1ySgJGDKsvXLzilF8BWPvclp1n7z/S+sHuXOGcAfi4OCiL0krChPW+Rzatdhznv+F27ngllTK/dv0lZ/5SI6vpiLIqDrCSB1mpWqrKZatUtRkpq4RE+E5L0qoS1p60AMuyG060d60o5zJMaW76RTaTOikJqxhhzQnfeVVfen6fKy+wEI6hUUpniakDOeGYn4khr3JaWQH6pgW6blvy2QNVhRi5NqwtSasqj9UBgHMWz/oTgA2vvrV/9lvvHLm+vav7KsdBXT99RI0AvgHgg9xbKa1E8cN23yMbv+A4+DsAO1Km+bnrLz3zPvSeelHJahr6LlbiqRcH6i5WYZFVVRqAtmwVf9gIURJUJsiX1joAdW/sOXSabTvDy3bAdqOsD6NvOoBKWOUIK7/T/SywEUpnqaKvYsvVPIIH42YRrXVsWM1XoG/dVt3AW5W06rp3iRT85yycPemthbMnfeP+37+wwrLsqf340dwE4F5wUBallfQK6wOPvTimULB+AmC+aRi3/dlly+6RZFVXv093mkc8sIhRk7DGAHFklVEYQiL8GVVIa0YlrADq9h9pXVbOZZg4duQDqZTZDnWVAAprlcqrt/+IoifXfFVFX3Vls4Kir2GtY+WWsWLeq6qmK6A486YInkSRVgi/YQ4AOI4zEA5yJzgoi9LKHzQ/urpppeM4/2gaxk/PWjTjnllTxtnSv9wowhoWWbUlEc0rpFW8P6waAGWVkGhEjrICyB470VG21ADTNE6cecq030Ffi5XCWgMCq4i+ivOq6KtYecDvuqUTWJW8qhoXiK+nipSqcl+huK6rKqD77pjo22mrv5kLt136F7lXUlqHurBeYwBjZ09tvvKsRTPyiB5dlU/hyHXwdLKqiqxSVgmp0HccfXNZRWEVpTW7e3/L7HzBGleuZRg1Ythvh9VnW8EI66CQV2+/EuVPrDygal4gpgsEddvKhkhsUNmsKOWydNJqhoiu/Jq242DYAH0MnwVwN4Ad3CMprUPxhwy/fGLz+KkTRj1y3ulzCtKPWlBHFHmQlSyrYtkpXSpAWKtVyioh5UEuCyR+t31h7ZHXtw8eO6OM722fNmfyA+jbmlXVlpXCWmMCG7PuqyUFRHKSjHZrhDUsdSBKySwoBFb8XUkrpFWO3vbUgTUNo9MamBquWQA/BPAu7oWU1iEZeXnfRUuPou9pQzEtQJUCoEsFkGXVln6Y8gqBZatVQvrhuw51XVYx2poFkGlpbS9bO8v6usymyc1Ne9G3cYBcJYDCOjjkFdDXffXLWInyWkDf6Gs3gqOu2QjyagfIa1DDgrA/eykAecOAVeFN+0UAH4dbvUdmFXoHZhFK66D/AZP/QZoITp5XteEz0TdvVRxkpaq5GtYQgLJKSPnR5bLKUdY6ANkT7V2jOrpyM8v15mNGDvstitMBmBIwiOVVElhV9FU3cMsXTj+NIIfgnNcoA7dU9V51NV+B4tbkOmlNA0ibptFRYW3dAOC9AJ4E0KC4/1sAHgbQwr2P0jrYIy6Auv2dTljltqviP2j/axvUIMCCPmeVskpI/4urnEfYIwBvHzg2D2Xqu24Y6F66YNojCM5htSmsg1NgpegroB64ZaK4yH9Kkk5/Pw2KvmYjyKsudcCRJNZEcaqA/L3JAyhk0+nWXL6i1mp54vphAGsU908E8AMA13OPo7QORlkVv4CqyIsZIKq68lX+QUjMW7VCRJWySkj//1E1oI6y9olaHWo5cWq5lqEum/njyOH1rSiOsooNQhhhHQLy6u2PorgGtYwNqjigir5GrToQp9uW/3so39bz/GEN2YNtnd2V+5dpYLnj4HEA9wFYCLdqgMx1YJoApXUICKsqwqpqGiB/qQF9CasgYRUf41BWCek3dKc3xR9z8Uc/3dreNadcbz5yeP2j6BthlfNY+b0fQgIbkjogiqslyauYOpAR/njFyXv1S2bJwZiUJqjjI/9WWmOahu871HKyYtvLcfBXqZR5j2XZ+wF8GcAKAFcoHvpdAE+BLV4prYNcWFPoO4pY/CKr2q6KPzRBwqqSVZWoUlYJ6T9p1UVa/R/3dGd3fnhXd35imSJF3WcsmPY7QVjzUOevk6Etr0Bx3VdVzVedvAblvYaVzBLHadhQNysw0TeVwQZgzZk6bvfrOw/YKFMqjYJZlmU/B+BqAFsAfAjAy+g7MGsMgJ8CuAxsOkBprXFhNQKiLXLyuzzJkVVxXpZVlbjalFVCBvQYEFTmStk2c8/+ltnl+hHOptPPjB457AQ48IoEyKsksGE1X+WSWWL6gJz3qst5zQp/2uRUOBvFZxiBvs0SLADpEcPqrVEjGl47frJzUQU303QAz3ri+hTc/NbfKR63CsD3AHyEexaltVaFFQmEVe4KIoumjb6lrGRppawSUj2oBpKouhGlAaQPH2+bWa43bhxW91sKK4kjsDFTB+SGBRmFxOqirlnvceJttvc8B71VBFRNB/zBW84pMyeuf27LzkUV3jyNcCsI/AhuGax7ANyseNytAF4F8G3uUZTWWhRWA+ocHVleVYnovqACfdMBdFFWyioh1Sms8lkUXZmg1Im2zhllem9r9tTm34OVAkhp8ioHUFTdtuTBW3IDnBz0NYnrvOfVea+TFd5X9RsqLg9mTh57YOe+o5sOHj2xrB82z60AbgDQFvCYbwB4HMBm7k2U1lr7sRLnZTnVtboTZVU8UNgKMaWsElK9f15VnXxUkdaifPb2rtyUcixDKmW+OGfquMPozWPtE2UlJExevf1Z/D0KalhgCvIaVDJLnPIA6r3n1EcQVvH9AQArFs34w8PPvnpKvmAN74dN0+hN2q8egDvBblmU1hr5oVJFWXTRVpWsyv8kbagjrDZllZCa+POqSglSDUpJHT/Z2WRZdll+eOsy6d+jbwURpgWQxAIbkDrg/1aJ0dewkll16I2yFuAW75dzasXfTAfFqQI9A5SHN9R1n7VoxgPPbdn557btZKtgk60CsADANu49lNZa/NEKOr0hRlKhEFY5ykpZJaS2vvuqQVhp9G3LnNp/pHVaud589Mhhj0BdLYDHBlIuefWx0LfigA19yawM+nZoFH+/5DQ6C8UDw+QzmZg+ccz+dCp1z4ZXdl3blcuPqYLN1cg9htJai6Iq3waFtNoakXUUsmpTVgmpXhQNBeScVllYe+oxt5xoL0tqgGEYey84Y+4WMC2AVFBevf1d/O1SVRxQVR0QZdVCcUqAnBPrpx6E7r+Tm5sOX3n+af/53Ja3Ltx3uHXFAG2epwB8FcAm7imU1sGCfColqGmAQ1klpCb/uPqXqqYCsrCmAKTaOrrLUp81kzLF1ACbxwlSaYENKJkl5r2K7WJtxePl74ifGyvuw2JqQh+ymVThwjPnPb57f8vrW7bvvbits3tKP2+SLwJ4hnsGpXUwiKooq7biX6NKWnWiyh8hQqpbWlXVQnRd71IAzM6ufHNZpDWTfgZsIkCqQ17974MYqElLj/G/H35lAVXXtlj78IxJY/bOmDTmv7btOjjn9d0H39XZlZvQT5viTgAXA2jlXkFprVoUg7B0Mgr0HXClElZVvitllZDaIWqb5hQAs2DZ6e58flw53nj0yGHPgTVZSXXIq/wbJ94uCqs/QEvs3NYnH1t4rbDfXADAgpkTdiyYOeGNLTv2Ldyx59BF3flCpfNdlwF4BG53LIorpbV6v6iSuKqiqDbUua1A35qsqi5YlFVCqv/Pq64TVlC7ZvNgy4nxjhP4QxwJw8D+85fO2Q0OviJVIK/e90IlmwUUt4iVB2bpBhvHxQGAxXMnv7Jo9qQtL257e+nu/S0X5PKFsRVc/RUAnobbRWsP9wZKay0SJKyynMrCSlklpLbwhdUIkNaeAVgAzOMnOsqSGmCa5vNgWgCpQoEVoq/+76FYYUDVilyWV1l8w2S16LfVNA1r2anTNyw7dfqzL2/fu2jXvqMXdnTlZlVotRcD+BOA9wLYwL2A0lrNyKdAVIIaJK2UVUJqW1jl1q2qNIGUKK1tHd2jy/LmhvEKmBZAqltegeAuj0EVc5L8HvdJu1syb8rmJfOmbHpjz6EZ23cfuvhkR9fSCqzyRLjtXz8E4AHuAZTWWhNX8R+ioxFZyiohg0dcfSlNIyDKCsDo6M6XRVrTpilKKyHV/BvpBMirXP1ClTpnlPCeAID508e/OX/6+G1vHzw2duub+959/GTn+ehtXFAOGgDcD7eqwD/wYx9YTG6Cvv8iFQKqK2WlrAiwZt1Gh8JKSG0Rks8qVw8QhdUEYHZ150eVYzmG1WeKIq08lpAaE1cLfaOuQQOy4ryP7g+mOW3C6CNXnLvoPy84c+7fNDU2PGIYKJR5Xb8Gd4DWFH7sAwcjrdG+LEmllxBSe8itmsXUgJQksT2P684Xmsrw3rkl86e+Beayktr6jdRFWeWBWX6jATFnPEqOq67Zj/86PcsypXnU8SnNo/7zUMvJ/9n02p5rWts634vyBeguBfAigI8AeJAfPaV1wJESzimphAw9YQ2qHqASVwOA0Z0rlJweYBjYP3HsyDylldSIrKqirL6o5qGuKGBJEqoTV9XthkZYDenSGT9mRMe7z1v04227Dv5u65v7/k+uYJ1WpvVuBvArAN8H8BkAndwVKK1VI6+EkCErrrKspqVLP1JkHDvZMdJxnFQZ3novOACL1Ja4qtIC8nDrtvqTMg9ckk5VnqsorqY3b0LducuvZlC0bAtmTti3YOaETzy24fXLjhxv+7jjYESZ1v1jAFYDuB7AFu4K/QNzWgkhpK+wBkVZTXk60dY5qkzvvw+MsJLaEVZVlDUvTDkA3ZLA+veJA7Xkkli676TuD6XYPjYrTHX+/MUrTvnNuafPuaYuk/51GbfBAgAbAXwLQBN3CUorIYRUHGEQlnhsNDXiKt5uADBa27rK0qXHAIoirYRUI9IZAAd9UwN8We3yLsV5UV5lcdVVzZCreciy6gtrWpLXIomdNmF027Wrl36uqbHh/wBoL9PmyAL4NIDtAG7l3kFpJYSQ/kIcIKKL6KSkxxjtnbmRZXr3VjA1gNQOcrTVj7TmJFnt9C67JHnNR5RXI4K4piR5zQhTVphPv/u8Rb+ZPXXcatMwni/jtmgG8EMAbwH4OIBG7h6UVkIIqaSw6hoLBE1Gdy5fnh8oB8f5MZAalFYHxfmsvrj6wipPosBGjbqG/ZEUJ1lcxfrKGQCpFYtm7rvy/NOuTqfMO7z3LRezAHwXwG64aQMruJtQWgkhpJLiGic9ALm8Va6oSg5MDSA1gHAmQJXXKqYHdALogHs6vt2b9yc58qoSWLkZQVDOeRr6XFc5hSDVOKwO111y5teH1WcvAbCrzJtoDNy0gT95Avt1CiyllRBCyimsQN86rdpcVn8qWFZDhYSAkFpAzmvNS9LaKYhqmzf518Xoa7ckrrK8Bv25TEHddlmOvqZlub1m1ZLnp00cvcww8LMKbZ/pAG4XBPaHAG7ybicxYMkrQggpFtagaKtSXPMFa1h5fvkdyiqpRWGVxdVQPEbXeCCP4pzTDNQlslLS9xNQNyVQnSERUwPEqUeMzzt9TieAm+97ZNMLjuP8g/e8SgnsregdtLUH7gDMzQC+DWAHdyk9jLQSQkjvD6AspYGy6v9oWrZdx81HhhohKQJBaQJt3uVJYV5MHRDzXnUDtnRpA4ZGWP1JLIkli3LqhsuW/Us6ZV4NoKWfNuN0uKkEd1NYKa2EEBKIovudaiCWakBWT7THspxySWsTUwNIjYqrKK+6NAExt9UX1rYAeRVzXrtRnDZgR5BXOa/Vr9taJ02+xKYBpK675MzH67LpcwG80g+b8C4AZwDYwL2J0koIIVHQFTDXVgxA337oJeM4GM6PgtQocltXUVzliKsvp20aeRUF1s957ZbkVdegwEHfgVpihNUX1XphEsU1AyB97UVLd40fM+IiAH+o0PbaC+DdAD4KtoKltBJCSAnyKqcIBKYH2I6dLdP7j+FHQGoNKU1A1yXLL4GlirrKwiqKqzxoyxfXnPDaqs5aYrRVbDhQD6BBmOqFyzpBXDOrz1rQdtqcyVcB+HmZN9m9ABYBeJh7D6WVEEJKEdagaGsfYQVgOE7ZIq4T+TGQQSyuYrqAKK9tkryKkyiwcs5rtyDEoryK4mpK0loniOowbxIF1pfXDIDMaXMn2zdevvyDhmF8rwyb6TCA9wP4IIBW7jWUVkIIKVVYg8roGBpxLRdT+FGQWhZXjbxaAfLaqZFX3dSOvqWyVIO1xDQBP9oqCqsvrcO9SRRYX1x75PWGy5Z9xjSNr5aweR6Hm7u6lnsKpZUQQkoRVpW8ihKrmu99kmGUq6MO6zaSQSGvkriq8lxVua5yvqsYeZXFVZRXscZrQZBkR3AdsXqALK46eRXFNftnly77Rso0/zHm5rAAfBnAZXDzWEkJsE4rIYT0FVJ5IEdQegBMwyhYjlOOuo4TATSBpw7JIBFXrzqHOEDKECTWRN9IbNoT2ownoVn0dsvyT+/nBKH0qwn4A6lsFNd4Fb/PGQSXxlJ108p58wUAhesvPfOO+3//Qp1l2Z+JsBkOA7gRbpSVUFoJISQ5inJXgLpeq/xDB1FcDaOsvcsXAljPT4cMMXm1BDlMCQIriqw/ZaXrvrz68is3KBC/u2np+6trRCB3zvLfK339JWf+wwOPvWgWCtbfBKz6pmw6dd37Lz5jN6QzMyxrlxymBxBCiDotIGwwVs9zTdMolFlaCRl08qppRhA1bUBuTCCnCogpA2Keq1/TVcxxFQdliSkCfppAozcNR9+0gXoA9dddfMbX0ylT2fbVMIxfzJg0dvX7Lz7jHdUxQ/NnmVBaCSEkkrACxSkCukvlAKx0KtVRxuVZxo+EDHF59btpqTpqdUiSqspzFXNdfXmVxTWF3pQCP8dVlFRfXEcIAltUbeDiFad8LmWaz4jrl0qZd91w2bIPrVwyKw99ahHFldJKCCFlEVdVhLVPdFW8LZ0yy1kcnNJKKK/ulFfIa5ckr20RxTWH4pJYvrj6bVz9clfDFOKqmoaPHjksu3TB1E+ahrELALKZ1L9df8mZ/w990xOUAzgprvFhTishhOjFVTcVkc2k28ssrQ1glxwyRORVEDgx59X/LspCK0qtH5mVrxfQt1tWxnstWSRTwqWc25rxZNlPJ/Dl15fpwrzp47s7u/O37Xj78Mfev3rpN7zHFbzXlHPdbWGeea2UVkIIKVlcVdHWQHnNZsqaHpACsArslkOGtrz6WN530IkgrQWFxPpTPYpLcKWhTv8R67qKZbJEWRXn80vmTTmyZN6Uv/XeQ6w4khcE1REknFBaCSGkLKKqqska2ExgeEPd8TIvE6WVUF57Bc9G32oDunxYlbDa0nwW6qirrpqAX4JLrFyQk6aU8Frdkqw6FFdKKyGE9KfEiqcsJWnNnijzMlwF4PP8KAjlVVsqS5cHGySx/n2iRPr4sgqoS2D50poXJFbMXRXPyqiWz69JKx5DKK+UVkIIKUlWEUFYi8R11Ihhx8q8LIvhdsfaw4+FUF77RF51A7hU6QO2JKy28DxZGuV0IFFeZYlNBYiq+L6qMzaU1YSwegAhZKiLqiyhQW1dlc8ZN6rxmGGU/YfoKn48hBTLK/pGMcUar7oSWWKZLLmygNj+VVUWyxfVrDBlhHkxEqtKN9CmFRFKKyGElCKwqkir6v4iwU2nTCubSR8v8/LcxI+EkGJxDZDXgkZeVeLarhBXvxGBHyX1v98pqKOtYrWBIJcS0xAYYaW0EkJI2WRVd101X8Tw+uyBMi/X+XBTBAghkrxqxFWMunajb9RV1T2rA30jrmI9Vyfg+x9WjkuVP6vKpyWUVkIIKZvMKiOsIqNHDttbgWW4mR8DIWpx1cir3FVL1Q5WjLx2CpMvrnmoa73qSm7Jk3ifnEtLKK2EEDKwjB45/GAFXvY2uKcfCSEaeRXEVRREMV1AFXUVxVVMFRA7aImv4V/mpdeUpzyKUw0K6Fu1gFBaCSFk4JjS3HSgAoOxpgO4jluXkGBx1chrUNS1QzN1SgLrR1+7hKlTuhQfK0drVWW2HEm4CaWVEEL6j4b6bHd9NlOJaOvHuHUJiSavgrjK6QJh1QVkaRXFVJ7XPa9LIa26/FhCaSWEkLKgGjwh3y9iAMCYpuFvVmBZVgFYyo+EkETi6qBvxFWMnAZFXVVpBG0Ir0TgS6uuqQGhtBJCSMUFNVBem0ePeLtCy/hJfkyEJBZXOc81SFxFEZWrDbRJl6qUAlVea5GwSukMhNJKCCGRhVV13QmZVM81Zk8Zt8swjHwFlvMGAM38uAgpWVzldAH5tL8oqP50UhBVXYTVF2FfWFVRVuaxlgjbuBJCSN9oqqqWYuiPTTaTskYOr9/V2tY5r8zL1wDgdgCf4UdFSDxxFVrA2iFPEaU2A7dyh1/eTpUbK4qqXCKLg64qACOthBCiltU4UdYeJo1rerVCy/cxABP5MRGSTF4RHnH1O2iJkVZ53o+wRq0WQGGltBJCSMXEVRRYO0BcVRjzpjdvR3hEJwl+tJUQUjlxVaUKyPmrorCqmhBQWCmthBBSMVHVtVmUxRVh8jq8oa5rxPD63RVa1o8BmMuPjJCyimteEFeVvOrKWulSAjjYitJKCCH9Jq+qnuKhUVZvwrQJo1+s0DJmAXyLHxUhZRVXubKA2OGqS7ouDrbyhZX5q5RWQgjpV2FViWuS3FbjlJkTXzdNo6tCy3oNgPP5kRFSVnEVUwXkwVY6WZX/1FJYKa2EENJvwipHV+U8NTuCuBrZTMoaN6rx5Qou8w/gRl0JIeUVV7ERQR7q6gDKUlYUVkorIYT0l7gGpQb4P2iRB2TNnz7+hQou70IAX+DHRkhZv/+yvKomDraitBJCSP8j/djIA6/kaKsj/WBBI64GAGPqhNEHGxvqdlZw8W8HsJifIiEV/f7LKQAU1gGEzQUIIUMdVb5qUJpA0KAsQ7jdmD113PqXt++dVaHlzgL4IYBzveUjhCQUV68BAQL+jAYJL6G0EkLIgIirLKvyqUFdbqshyau5cPakN97YffBQV64wvkLLvQLAJwF8mx8hIaXLK6lumB5ACCF6cRVlVTcoS4cBwJg5edwfKrzcXwFrtxJCKK2EEDKkhTVMXFVpAj31WgGYS+ZNeaW+LrOvgsveCLeaQIofIyGE0koIIUMDVS6rXwJHJ646DACGaRpYNHvS7yq83KvBFq+EEEorIYQMXqR6jWK0VRZWXX/xsIirOW/6+F0jGxter/CqfAVsOkAIobQSQsigJmwglk5cddFWQxLX1BkLpv3We3ylSAH4KYAmfpyEEEorIYQMDXmVKwfI3XDkagKhdVsnjRvZ0jx6xJ8qvPzTPXElhBBKKyGEDAFhlfuRi+Kqi7ZqhdU71ppnLZrxmGkY3RVej6vgpgoQQgillRBCBrG4qmq0qnqPhw3I6pMiMHJ4fde0iaN/3w/r8SVPXgkhhNJKCCGDBW8wlq7sVUES17wkr2EpAkXR1rNPm/Xs8Ia6N/thtX4KYBk/XUIIpZUQQgYforiK+ayysEZNEegTbTVNw1i5ZNaalGl2VHhdmgA8QnElhFBaCSFk8IqrqnpAVHEFQqKt40Y1ts2bMf6BfliXMQAeo7gSQiithBAy+IRVlR7gTzmFuPryGlSvVRTXFIDU0vlTXxk9ctjz/bBOTZ64ruTHSwihtBJCSI2jaDIgR1vzgrjmUZzbakviCgRHW1MA0ucvnfvLTDp1tJ/E9REAV/CTJoRQWgkhZPCgi7aKwupP/v1xcltNAKnhDdnC0gVT70Flmw74NAJ4CMBt/HgJIZRWQggZHMKqG4zlT768FgRxjVtJIAUgPWdq8zvTJo5+sJ/WLQXgBwC+zo+ZEEJpJYSQGkVKEVA1GRCFNYfeHNegEliisEKQVl9cM+edPuep0SOHre/HVb0dwK/Alq+EEEorIYTUPA76pgfkJWGVo65Joq0pAJnVZy24f1h9dkc/rt81ADYCWMqPmhBCaSWEkBpD02hAzmuVp7jRVkjims6kU8aFZ877j0w6dagfV3cugGcB3MJPnhBCaSWEkNpFTBNQRVq7oY62yiWwdNHWnhJYADKjRjTkVi2b9y/plHmsH9exAcCPAfwOwBR+5IQQSishhNSesIqRVjmvtVu6FMVVbjYAYd7QiGsaQGbcqMaOs0+bdadpGif6eX2vALAVwK386AkhlFZCCKkBAmq2yoOxugVpFWu3huW36gZlpQFkpk0cfXTZqdPvNE2jrZ9XvQnADwE8Cea6EkIorYQQUjMERVu7FVNOEldVxFVENSgrDSA7Z2rz/uULZ3xjACKuALAKwIuewE7kbkAIobQSQkiVoom2yikC/tSFvmkCYtOBsGirP6W9KQOgbvaUcQfPPm3W11Mp8/gAbYZbAWwH8A0AzdwrCCGUVkIIqV6i5LbK0VZRXOOmCRSJ64xJY46sXDzr79Mp8+AArX8jgM8CeAduY4K53CUIIZRWQgipIiJGW7sjiGtQi1dfWvt0y/LFdeqE0cfftXz+39Vl09sHcHNk4baA3Q63McE13nISQgillRBCqgRHkE4x2ipKa5cwqQZmJRqU5cli3bhRjV1XnLvo7xvqsy9Uwfa4xhPXd+C2hF3IXYQQQmklhJABRIi2Auq2rnlJXMXLXExxFeW1KE0AQH1DXcZ876ol/zRuVOOaKtk8E+G2hN0K4C1PYFdxryGEUFoJIWTgCOuQ1aWYRHENG5jlC6uc39oTbQVQD6DhkrNP+cWCGRP+1jSM41W0fWZ5AvskgEMAHgLwBQCXws2LJYQQSishhFSSGJUEuhXS6nfNCspvddC3moAqVaBHXM84Zdq285bO+XQ2k361CjdZM4CrAHwNwCMATgJ4Ge5ArlsALOBeRQiJS5qbgBBCYuFLq4Hi3Fax1qo8mcJkKAIHBvpGXEMDC1PGj2q/6oLTvvD4hm03t7Z1vr/Kt9tib7rNu94CYCeALQAOePPbvPlt3M0IIZRWQghJwJp1G50bL18uyqUfbfWjon5uqxkgrYY0yeIKSVxNSZYz8mPqMmm8+7xFd69/+a2tew4c+7+O4zTUyCYd403LNPfvBHAYwGbvco93uzh/AMBe7p2EUFoJIYSoxdWXSDFNwETf7lYm+kZZDekYLA/CksVVHJilfczKJbM3Tp90/NaNW3f/VWd3/sJBsLlnedOKiI/f60ksALRBH63d5t0v0wpgh+Y5m7j3E0JpJYSQWkSMtvppAnlvXiWrqiirKJ+pEHGFJK5Z1etNaR7VOeVdo/5x/cs7H377YMvf2LYzlLpYTfEmn/6oYrDDk12VOItRYHFejBQTQiithBBSGTRpAgVPHPMojrjK86poqxEirnIOrBidlcU1BcBcuWTWS4vaJ93y9Is7/vJke9ef8VOrGHJ3sGUxn+/n9cIT2cOC+PqXTIEghNJKCCFlEVdHEFdRJKNEWuWoapC4qgZrqRoTmABSI4fXd151/mn/sWXH3kde33Xwdsuy2X61+vDzeqMIry+vWzzZ3YbivF9CKK2EEEJCxRUoHpgVNqnwX8cXTyB4cJZKamVRTi2eO+WdU2dN+uhTm9644ujx9v9lO85Yfno1yURv0sntYU9iN3tiuw3Aq2CUllBaCSGESLIp5rf6AhkkrYbiNcTjcpi4OpKwiu8pNidIp1Nm18UrTnmkrbN73fqX3rqy5UTHhx3HGc2PblDR7E3ywLVWT163eEL7qjcd5iYjlFZCCBkiaKKtvkjmoY+wGhrx9UlFEFfx/jTUkdY0epsTpBsb6nKXnnPqQ8dPdv72T1t2Xnu8rfMvHMdp4ic5qGkCsNKbRA4LArvZk9pXUTywjBBKKyGEDFJx9aW1EOGpqjauDvp2ytKlC4jiqormyvVi03DryKZHjWjovvzchQ8cbW3/1YZXdn3gRHvXBx3HYavVoUUz3AoLcpWFvZ68bgKwHsAG9FZEIITSSgghg0hcxfqtolwaGnEVn+NIU1ohqUbAbbK0mpK0+u1gswC6xzYNz737vEVrjra2/2LTa3sua23rvNay7Nn8RIc0fumwS4Xbdnryul64JITSSgghNY4fJY0qrVDIqjyJtV914qrKc1VFWzPClAOQG9s0PHfZOaf+BsDaDVt3nbbvUOv7u3L5i9C3AxcZmviNHm4Q9u313vQUgGfAtAJCaSWEkNpAkd8qiqssqTpRtTWXvrgCwRUEfHn1pdWW5DWNvhHXHNz82xyA3IpFM7djEb6273Drv2zZvvfq1vbOD9i2M5GfMBFIATjfmz7r3bYewOOCxHZyMxFKKyGE1Ja4ijVcw4TVluZVKQMpSVJ19VzlaGtBkteMJ6u+uGa963kA+cnNTfnJzU0/B7Bm/cs7lx85fvLCzq78hSyZRTT4g72+4P1Ze0qaCKG0EkJIlYurODhLHmQFhbQGTWkUpwtEibqqBFZMFyh4AlvwhLXP5cols7YCeBnAv2x6bc+ig0dPrGzvzF1i2fZkfuJEQQrAam8CgDYAjwJYC+BhsNwWobQSQkhVi6tc1kq+T46yWt4ki6sjCKwsrLqoqyNIqy3Iq+W9jiXIq+XJqn9b0bTs1Ok7AewAcPfruw5O3b3v6IVtnd3n5gvWQn7yREMjgGu9CXDTBx72JPZVbh5CaSWEkOoSV3giqBt8JcuqbrI9ufTFVYy66mrChsmrLcirBTdVoCCIq6WaP2XmhJZTZk74BYCfnWjvqtu+59C8o63tCzs6uxd2563THMcZyT2BKPDzYb8GYA+ABwH8Bm5ObI6bh1BaCSGkOsTVz3EV5VWVy2qjONIqy6sorib6VhhADHl1At7LX147QKKtkcPrrWWnTn8TwBsAfgHA2vH24Sn7Dh8/pbWta0kuX5iVL1jzpOUjZDqAj3tTqyew98GNxFrcPITSSgghAyeuQRUEdIIqn6YXxdU/xe/nuopCGlVeHUFgbfRGX3XyLM8r7587rfnE3GnN6wH80V+/XfuOTjp87OTU9s7cuPau3KxCwRpVsOxxBcua4Tio4x4zpGkCcLM3tQB4wBPYx7lpCKWVEEIGRlzFqgDQiKutkVbxtqw3WYJspgR5NaFvHyvKK4THqyK/UQeK6fJve54/c/LYkzMnj93q3faE9Bhn/5HWMa1tnaPgwDnS2j7bsR3DXTinZznbO3PTbcepU/wJAJw+ucPIF6zxlm2PUj7ew7LtMbbtNHNvrRrGALjNmw548voA3HxYQmklhBBSSXEFAE1lAV0FAWUuKdyBUnWCyPriKtZhFVMGwiKvQHH01US0+rF2xPt0tWf7TJPGNeUnjWs66F0/qJF7WT5V9wc9RnebfNnz+ew9fHzs8ROdvviiYFmp4yc7ZjkOHNtxjI6u3FwAcByYuXxhnvciZsFNiSClMRHAJ71pL4B7ANwNYBs3DaWVEEJIBeU1IOoaJU0gj+LIa14QV7/TlS+w4mArsfSVasAWpNtUEdighgiq64GCqpgQcD1ISsNEVTUfR16dKc2jclOaRx2Slu9tYf6JsG209c398wqWlTp2omNWrmA15fKF8fmCNcmynRGFgjUfzPeNwhQAt3vTek9e7wM7clFaCSGE9Iu4RkkTKChkVYy45iVxzaC3uoA/mcIki6tKYP1L3XIippSqSoCFRVKjRlnjSGtUoY2yjEHrVDQtmjPpgDe/R/U5v33gWPPBlhNTTrR3Te3oys3K5QqzCpY91XacUfzWKPEbGtwJt3zW98H0AUorIYSQiourjeIopz/poq3ilPPktU4Q1yx6O1+lUFwey4++GgiPvkIjtnHFLqqYhr12mIDGva67L4o0BwlsmND3SZeYNnF017SJo7fDPe3dI7SHWk427t5/dP6xE50L2ru6T83lrVMdxxnOb1EPDQBu8qZXAdwFNwLL6CullRBCSLnEFVDmuepau8oDs3xpzUrz/nUx4urLqy+wFvpGXk1JUHUC60QU2ShCGvW+MNks521xlzUoYh4Wkdbl/fbMjx8zwh4/ZsTrALb6972198jk/Ydb5x5v61zc0ZVbaln2RH6jAAAL4UZevw7gXgD/CmAzNwullRBCSJnkVRBXsQyVLDc6aa1DccQ1K0xyuoA/iSkDftQ1LPoq15w1NKtkhEhiua+H3R71NeKmGgTdZscQWRvBkdg+FRxmTxnXOnvKuOcB/AmA9fbBY8079x45o7Wtc2lHV34JI7FoAHCrNz0O4NtwGxgQSishhJAyiassPlFLYeU8Sc1J0irLazpEXsWoqxkgr1FkVb7dCXlcXPGMe3+5BDdJVDYsGhuWSqCrzmADsKdNGN0xbcLopwE8BcDe+ub++QeOti45drLzvELBmjLEv16rvWkbgO/ATR3o5FGH0koIIaQEcQWK0gXkqKsvrGn0HaCVQW+0VRRVeT4o6qoasCWnDugEVk4bUEmrEWEzGAESaZRhM5dDbKOmF4RJbJyBbXaIyIqdzZxFcya9s2jOpD0AHty17+ikt/YeOfvYiY5z8wVr8hD+ii0A8D247WPv8gT2AI88lFZCCCHlk1egd6CWLLApFA/QEuU1oxBXOV0go5FXE+qKAyp5lSVWrgPrRBDTchM3GqyS0DiPjXJ7nBzZOCIbWD935uSxx2dOHvs7AL/Zvb9l4lvvHF5x9ETHykLBqmgerGEYm+qy6X+1bXtYwbKXOg6WOI5zhrcvDiRj4JbM+izcvNfvANjEI0/1YziOk+iJ9/9xY7kOzvwUCCFEg5AyAIUkmpJkyqf+MxEmWVyjRF5NaRmCBBbQd+Uqt8ga/fjcpCkOQTIbJLFB8hpYlQCajmWv7zwwb+e+oxeeaO9c7jgVC2K112czX3zfRaf/2H/fh/6w5dTOXH6pYzun267Engk3B3UgeRjAV+HWfiXRjk0989eft5zSSgghJFRefWmU5TUlyWtaIapBEVedvMp5r7r8V4QIrFFBaYz7uDginUS6jZhyGzW9II7IanNiT7R3NWzZvvfsgy0nLsjlKxN9TZnm4zMnj/3UWYtmvKMS6LVPbD43X7DOtW3nXADnAWiivFJaKa2EEDL45VWMwMoCqxJZXbQ1atpAlNSBKFHXUgSzFHmMKtJGCfNxJVgntUmjslFyYu1tuw/O2bn36LnHT3YsQ5k7dBkGTo4Y3vC5K89btBa9gwlVUWDn54+9uLhg2Rc5jnOOJ7H9XdLrUQBfprxSWimthBBSPnmVo5qyvJqSdKYDRFY3ic+VUxKCUgeCar+GpQwkFdgkqQhGBIkNuy0sohw3ZaJcMhsUkVXViLUAOEeOtzW99MY77zp6vP1s23HqyrnvZjPptWcvnvn/pjSPakVxNQxbEtme5Vr7xOY5uXzhvY6D1QAu8fY/yiulldJKCCE1KK+AOufV1MirLLIqodVFW1X5rinoo66mYvlKFbe4VQrKIapGyHoYAY8xAx4TJrVRJT5IZsNEVtnkoK2ju37ztrfP3X/kxAWWbQ8r135rmsaeaRNG/5+VS2a/hN6BhBZCIrAAnEfWvzr82MnOdzmOcyWAqwD0R0mvxwF8kfJKaeUnTwghlZXXIIENktlUiLCmEBx5NRTiqpK3KAJbThmNI6dhMhp0PcpkBjy3VImNK7Jaie3OF1IvvfHO8ncOHLsgV7DGlGm3zY8a0fCtK85ddDd6S7eJAmsHSGzPsj7w+xcWWrb9PsfBJQBWVfir9jCAz8BtF0tppbQSQggpo7wCwbmvqkipTmjNEFlVRVvjRFyTRF6j5pAGyaxK+MNk1YwgqWbAdTPi48otsSqRjSyxtu3gpTfeOX3n3iOryyWvddn0M2efNuv/TW5uOorihhly9FUnrz3dx+7//QsTbNu+wXHwAQDnV+hrZsGt8/pVDOE6r5RWQgghlZBXhIiVLJlBQmsGiKpOWKPUdo0imlHFNM4gqaCoapiYIqKcqgQ1yvYK234q6Y4rsIkktmDZxouvv71s1/6jF1mWXXLLWNM0Ds+eMu4LyxfO2AS3znAhosBa0LTCvf/3L0yxbfsmT2BXVOBr1gbgDrgtYjuH4DGG0koIIaSiAht2GtvUiFXQoKuwGq66U+BhoplkIFXcEf9hp+ajnt43AoRTtb1SMbZxFJktl8CGSWzR1JXLZ154/e2z3zl47DzbdupLEhIDhXGjGr9/8YpT1njimo8osKoBXEW5u/c/+sJ027FvcBz8BYDFZf6K7YE7WOtuSiullRBCSP8ILELkSye2ulqtslSZiJcSkHT0f5TXj7od4uamxhF+VcQ6KIqdivgnoVICqx3M1dbZXb/p1T0XHDh6YrnjOJlS9tHGhronLjprwTeHN2TbJHn1BTaP4hbGUaKvPct/3yObVjqO878A3ACgsYxfr80APgXgKUorpZUQQkjlBBYoLcIYp8VrkrSAqJIaR27DRu/r5k2EpwfIUhkkqOXIIQ5Kx4i7faNIq1Jej53oGLHxtd0XHz3efnop+2Y2ndq9fNGMr0yfOOYd9LYlVsmrHH0tIKB0lrj8a5/Y3NidK/w5gFtR3vSBtQA+D2AbpZXSSgghpH8FNq7QRhnIFEWkkjYSSJpWkKR6gIl4aRayaKahruAg3h5WcixKu92kAhuU36oSVwBwdu07Ou2lN965urM7n7gpgGkabfOnj79z6YJpGxTSqpLYoAoEfXJeRSFfs27jaQBuA3AzytONKwc33/UODNJ8V0orIYSQapXYKCIbNl8uWY3yuLjiWo4SWGGDsVSRV1k+09DX0FVdBjV+SAnvFZY+YAQIKxDeJtZRPAcbX9199s59Ry+xLLsh6b44aVzTmlXL5v1cI6yyvKoEVpwcjcD6TjISbuT1kwCml+GrtAPAX8NtUkBppbQSQgipApENE8AgYUwqrUjw2lEfH1VmowqsLudV17lMJ6q6jmU6mVWlE+gi4/L6qqKsfVq/6gTQf72Orlz9c1t2XnGo5eRZSNgadtSIYc+sXrHgh9l0qlMhrLkAeRXzX1Vls3TyagK4DsCnUZ7Ugfvg5rseGETHA0orIYSQQSGzpUipUYbFKiVaGybacSOwQRUGgpo+yC10VVNGeFxGI7JyJFaXPqDbHnJU1Z90dVNV29PYc6Bl6ktv7H1fe2f3zCQf6LD67Burls37blNjQ2uIuEaNvkaRVwfASk9erytxn2yFG3W9l9JKaSWEEFKbclvW37UyPzeO1EYtnxVUwipK5DUjSaruUheRlQeB6cpnAX2jrKKw6spOieLXZ703vbbn7DffOXxtkhJZ2XTq8DlLZv//Jjc37UNvJFUnsHIagTx4K668LgTwNQDXlriPrgXwUQCHKa2UVkIIIaRSMl2KxALBVRaCymLJ8qqLuGakSSexYdFXWVwdjbCqckflPNc+st5yomPUn7bs/PPWts4lcT+vlGl2LJoz6e6FsydtkURUJ666CKyuZJY2T9eT1xUAvoXSOm4d9sR1LaWV0koIIYQMpPDG6b4VpWxWWOQ1SFxVIisLrFyGS1wWOT1AHKGvKv6vShdQ5vO+9MY7y7fvOXRjwbJHxdz09rzp49csO3X6s4Jw+suiSxnoLoe8euIKAFcA+DqApSXsQncD+ATc7lqUVkorIYQQUlVSGzagK6xRQVDOq0pcsyECm5EkWEwbkMXV1khiQZJASyOu8iC01MmOrsZnX3rrpmMnOi6Mu32nTxzz63NPn/174f0KUKcN6KYo8qrqsiXK680AvgJgVsLdZBuA6wFsobRSWsnQoxHApXBP3YxB+Vv2EUJIxX6XAUD8bTaM4qitf5cBGHAcOIYngw5gmsaJtGnszWTSB0ePGPbaBcvmv6AQ2CzCI7BiyoAormKKQAHqfFJZAEXpE8W1SL5f2bFvyeu7D360ULCa42yw8WNGPLP6rAU/R3FerRj51aUMdENdfSBqzqsor1m4dV6/BKA5wefeCeAzAL5PaaW0kqFBE9wk+XIVhyaEkKpA/VvtoOhmx/FMyr/dgQHjSNOIhv9aveLUnw+rzxoKcZUlVs6BVYmrg+J8VlFcuxXyKsqfKOd90h46u3LDnt785s0tre3vibN9Ro8YtvniFQv+O51OFYTlk/NuVfLajfiR16DBWo1wKw18FslaxN4H4COogXSBgZDW1N/93d8leuKrb+8rywK88uY+Ho1IObgCwB8ArAJQz81BCBlMGIbRM4ne13u7eL13HsCwrlzh3Dd2Hbigvi7z6NimxhMKEZMjokEj6YM6ZInPV0mj6tR90ZRJp7rnTG1+viuXf/N4W+cZjhPteN6Vy0/cfaBl9vSJY17KpFMW1J3IdDVwdXm9YW2JRQHHaXMnG6+8uS8H4CkAPwAwHG6+ayrGR30agPfAbUbQUs375GlzJ/fML5o+uV/e0+ShgAwCbgXwENxUAEIIGdoCWySz7mTDmf/8K7v+c8v2d0bBjeK1ATjpTW3S1A73dLU/+dHIPIorBADFp/rTCikUI7RiSkFOeP0O7z17lmn5whmPnbtk9kfqMulXom6X9s7c3EfWv/rxk+1dDcKy+cuSAVAHoMGbhnlS6U+N0uUwb2rwAiF16I1Iy5LbI7I3Xr7c8PKYW+AOsFrkSWwcFgP4E9w0NyLASCupda4C8NOY/2QJIWTwCqx0mx99dYCmQ8dOvrtg2b+eNK6pBX1rraoGIAXVMJXbvEK6rmtIoIrA5qX5/MjGhhPzpjX/dt+RE2ZXLn9GlO1RsOymtw+0nDJxXNML9XWZnCTWypQEqDuI6SoqqBoyQL5+2tzJhhd5bYFbIeAogAs98Y1CA4CbPJFfX437HiOthMRjDNxTMBRWQggFViGwcvQVMJq37Tp4B9zophjh1E3t3uM6AXShN2e1gOLKAGK01Y9sqvJlfekTy2f5+aRdwnJ1AGhLp1OtV5y78M6Zk8f+lWkYR6Nsh65cYerjz2/75JHjbcNRnPrgi2VKWL56TxDlqGujcH2YMPlRV1XktY/QCtUj/hXAEsSLuqbg1oP9LvduSiupfW4HMIWbgRBC1AIr3NATcbUdZ+WDT750hSSusrzKaQOyuOYEIfSrApiSEPpTHYqrFKQiyGtR6sA5i2c9cfbiWe/LpFORoo65fGHyk5u2f+Zgy8nhKB4QJi6rmDbgpw4MU8irLLANkrxGTRnYCeBdcFu5xhlo9XG4ZxSzQ32/prSSWqUBbnkRQgghUeXVi7h2dOf+tyefXSjOK1VFXtvRN+ra7U2yDIo5pH4ksx7qCKVOXvOKZeuYMWnM2x+4+Iy/aBxWd6f3noEUClbz0y9s///uO9zaqBBtW/CglCCv9ZK8yrmuQeIaNer6fcSPut4Ed+xG41DenymtpFY5HyxrRQghseTVF1jHwYrf/+m1CYJ8ipHNoLSBdkFeVekCvlukURxpbRBETx7clBJ8RJbXPtHXqy9Y/K3xY0bcYhg4Hiqulj3ujy+9+cW9h443eq/RlUBeRWEVI6+ivNYj4kAt7/38qOtHET3qeimAxzCEBx1TWkktSyshhJCEAnvsRMdy9K1Z2oXgtAFdrqsogmES2AD9KXZRXv3BWvLyda4+a8EjMyaNvdI0jF1h62tZ9phnX37rS3sPH28IWGY5NzcLdeRVNcXJdRXTBQDgLrhR18cjfnwrADwLYDqllZDaYSE3ASGEJMd2MEkjhlHSBtqFSTdIC+hNFxBTBcSyU6LwiWkDhiCvYoernuU8Z/Gs1xfNmXyZaRrPRhDX5mdfeuvv9h1urdcIdx69A8vEnFcxUqwrkzUsYF3kqKsJddT1YkSPui4A8PRQ/B2ktJJahakBhBBSAo7jjEVxGSrxlLwvrrK8ijmuJ1GcLtCB4gimL4Fy1LVBEj3xNHtWI6+2Yhlzi+ZMOnDBGXPfl0qZ90YQ1yl/fOnNf9h/pDULfY6uX4tWjLyK8loPfdRVjCKL4irn76rSBQA36rocwKsRPr7pnriuGEr7bJpfW1KjNJT59V71DlyEkPLQCDciRKrcXdEbXfSjmiaKa6sWoO5qVYfiDld1ggCrTo/75Ql1XaZ0NVDF1qxifVgLgDFpXFPh+kvOvO2B37+wt2DZnw0R1+nPbH7zG+cvnfuJSeNGtqFvaS5Vhyx/2TIoruEqN1NIS+vsXxaEdRJr4AKA44ur1wZ2G4CzAfwQwA0hn90YAI8AuADAFkorIYOHJUPlS00IGbJ8D8DH4jxhzbqNvjTp2rJannzJzQdUbVlloc0KIieLKxSyakq3AX1bportZn1sAMZ1l5z5pQcee/FAoWB9K0RcZ/1x845vrVo2/6+aRze2obg8lxwd9Sd/udLo26ggrZBdcb5bWi9fYosaNtx4+XLDE9c2ADfCbSrwDQSXumqCOzjrXAA7BvsOzvQAQgghZAjjiZIsrLKg+qfkVSkDcs6rnC7gn3YX0wXEGqn+KXd/Gg71aXb5FLss14XrLj7ju5l06mZvWbUULHvBH17YfkdHV64b+kFmfqqDn+4QlDIg57zK6+HnusZJF/gO3AoDe0M+wma4EddBX7ec0kqGCq3cBIQQohdXjbzKuaRiDVWdvPoC26GQP7mmq6q6gJjnKua6iqfvxRSConaxH7j4jDXpdOoDCEn5yhess3/3x63/lMtbXdCX9ZIHa/m5umJN2qxi+YdDnbMbVtNVFtf1cPNcN4R8hLMA/M4TWEorIYQQQgb3n3OFvIq5rWHyGiSuqpH6vofIo/TF6gJypFKVciBKng3Avu7iM35rmsY1EcT14oee3vJFqCPGqm5gcnctM0S+hwesh1jmK0hcD8CNuK4N+fgWY5A3IKC0EkIIISRMXsWoqy5lwK/xKgugXBrLF1e5pqs8Ql8UV5Xs+ZFKWVwdAM6fXbrssZRpXoGQMlK5fOGGtU9s/hTUTRXk6gh+pQE56iquQz2KUx50nbRU1QWKSmIJ8toJ4HoA/xry0a0A8CsM0pavlFZCCCGEhMlrKSkDQZ20LBSfbpcjlvIkR1zlgVJFA7euv/TMpw3DuBwhUejuXOHjDz718nWCnKpKfOlKe4VFXVUlvlSR4z7i6surN2sB+IQ3BbWxXQ3gfhQPeqO0EkIIIWRoyKs3GzVlQNUWVrz0I5a6PNesQvpkaY0krjdctmy9YRhXIiRVoKMr94+//ePWs6BvZxuU8iC3hFWlPAwLkHBVxFXViABwo63vD1mfawB8i9JKCCGEkCEpriEpA7645tC3q5Ysrp3o2041Sp6rPDgrVFzXrNvoOI7zbARxzZ5o6/zhExvfmKIQb1XUVdUNTBbwLNQDtUQJF8VVla+rEtcHAbwbwakPnwRwK6WVEEIIIUNWXiVxVaUMBImrbnS+f6pdJa6i9ImyJ3fQSulkz3GcJ+FGKIPKYY071HLi3k2v7amTxDUs5UHOdRXbwWagjrqqxDUbQ1yfgtv+tSVgfb4HYBWllRBCCCFDVlw1KQNWTHlVDXAKElcxZUAU10wUcQXwMNzC/dqcUMfBKTvePvzjI8fbbPQONJPFNUzAxfUwEF4hIcpAM5W4boDbEeuAZnWycPNbp1NaCSGEEEJ57ZXXsIFaorjKOa6dkvCp6rmq0gTiiutauIOZoBdX57LHN2z7R0TL1VWJa5yoa+yBZpK4vuqJq64JQTOANRgEFQUorYQQQggpWV4FcZWjrmG5rh2SuIrpAr7wpQOETxbXKLL3fQB3BK2T7Tgf/9kjm25RLH+3Ql47oE4XEPN1VeJaHyCt8voE1XLdATdV4LBmdVZiEAzMorQSQgghpCziGiHqGiVdQBepFCOusvDJOa5K0ZP4PIB7Q8T1Oz97dNOF0jqoxFVurCCXxpKjx2Ib26CBZnEGZ20LEdePA7iB0koIIYQQAuVALT/yWgiQVzlqqaosoKrlGiaufTpnSaL3YQCPB6xO1rade9c+sXk2+qY85ALkVY4e66oLiOW9VOsiVxUISxXYAuAy6OvS/gA1nN9KaSWEEEJIf4mrKuraGSCu8il2313SkrjWo+8ofDlKqap7moM7MGtHwOo0d+cKv3jwqZdHCOuQD5FvMerqC7jYBtYOENd6FKcKiOIaJcd1syeuqvJeTQB+TGklpLpp5SYghJD+FdeI6QLyCH150uWGptG3CYFKXH3R04nrYbg1Tw8HrM7Cjq7cvegbORblVRc1luVV7AQGxbqoxDUwv1XBBrhRZBWr4dZwpbQSQgghhIjyqhBXOV3AzxOVc11V4mopxFWV46rqnKUT1x0ArkZw84Er7ntk4/+FPnIcVCVBHmjWDXX0OAN19Dhu2gMA3Ac3b1fF1wDMpbQSQgghhEQTV/9UewH6dAFZXMUoZQrqKKWcE5pB+GCmDQiv4fr3P3tk0wqNgMepkiAONvPXRR6gpUoTiJr24HMH1IPNGgH8xNt+lFZCCCGEEFFcE6YLxIlS1imkVTWYSRelfBDAFwNWI2s7zv/84rEXmxAtXzfKQDO5oYKY5yqvj6oDWJi4fhhu9yyZlQA+S2klhBBCCNHIqySujkZc5WilKK3y4Kwg0ROjlKoIpSx7d3jyqmNWrmD9e8wqCZ0hEi5WFpAlvE5Yj7jRY3jLcD3Ug82+AmAxpZUQQgghJJq4qqKVvrR2oe9ALbkBAaAf0BQpJ1TiQwiuKHADgNtiVkkIih7rarmq2tjGjR4DvYPN5EHJWQA/RI2kCVBaCSGEEFJt4qqrhSpHKHV1XDMa0YvaZaoVbnQyaGDWnQAWJmhlqxpsFtZQISusQx36Ro/lNAGViO8A8H5vm4msAHAbpZUQQgghJEBcFS1gLag7UMlRV1Fc5RJSQakCUQczbQbw1wGL3wDgfu9S18pWFXUNih7L4mqGiKsuegxpXXweB/AJxbp8DcAYSishhBBCSIi8CsInRyrFygKy7MniGtTyVZY9eTCTKuJ6N4AfBSz6QrgR1yAJj5IuoEoV0DUhkIU1g3gDs+6CWw5LZIwnrpRWQgghhJASxFWWPVH6VOIKjbjK0VZxMJNOXP8abtRVx21wc1yTSHi3JKxBOa66iKuqokDQwCx/nfYo1mMppZUQQgghpLziKk+qiGvQ4Cx5MJMuJzQHNxe0JWDRfwBgVsi6+OsT1FRBNdBMXh+duMqtXoPyW1vgDjYTa9KmIESNKa2EEEIIIfHF1Y4grr60+gX75fJRusFMsriqIpQ7PcnT0QTgxyHrIue5yi1gdakPcjmslGKdstAPMoO0Lj5PwS3vJbIKwFWUVkIIIYSQ8otrpySu3ZK4qjpN6QZmBeW3/gbANwMWexWAT6rWJcJgszARlyOuYpWErDTJ6xKU3/pVuJ3ARL6OKi2BRWklhBBCSC2Jqy97OY3syRFX33eCIq5RxfWLCM5v/RqAuTHWRyWu3QHiKq6PSlwzAeuhShPIAfgggDbhtsUArqW0EkIIIYSUJq5hVQXEaKssemHSqh2YJUmern5rIwKK9ScQVzlNIEjE5Uhr1DJYO9C3DNaXUIXRVkorGSp0chMQQgY51hAUV7Hta5dG9MTSUeLALFUprCj1W18F8LmARV4F4OMx18eGurKAKOSq9RFTH2R5lQdlBaUJ3A3gAeF6VUZb0/yOkyFCroqX7UsApiR43ucRPJq1v1gIt1RKQ8LnPwDg0Srff24C8NMSnr8cwKYqX8e5AD6b4HkPA1hbg8eEmzy5iMvdANZX6Tq1DdYD+Jp1Gx1PtHzhs4W7xWiooZjk21Pe69QJ0igPlPKFUuxO5dx4+XLDk85/BXANgEs1i/w1uDmwO2KuT0HzenLE10FvaSsxVcCSJnl9DOH5Mp8CcAXcaDEAfMX7blfNnyFKKyEDz3Xev9q4/EMVSOsKAI8JB7m4PA53BGu1c0uJz7+5BqR1IpK1cuysUWk9P+H6bq5iaR3UaETPEERPllXVKf40eqOTDtyIpCyr8qUjvKcorh8GsBVu5QCZRrjlo65OIOKFGJvFP2MuVhSwNdIqrg+E9fDZ6/2ufF0ISFyL4gjsgML0AEJIUqYA+FUJwqrrg11tTAewusTXuAlVOhpXIOnyZflVIP0prr48IvpgJnkEPlB8Wl0uGyV3mdLlt+6FG53UcZX33Y+7PnItV3nAWVBFgbS0XqrarSbUg7IA4Ntw0x98vlJNnz+llRCShEYAv4MbnUvCYQDvBtBaA+t6cxmEsxnuqcRq/0yT0MCvAxlAcQ1rkxo2Aj8tiKqY3yoPaApq8/pwwOJ+A26L1KTiKou4PO+vjyyuGUlgw6oi+OQAfFS4vhD6FAhKKyGk6knBze9cnPD5fneZHTWyvjdX2etUGzl+JUiViqs8oCkHfekoX1xVFQVSIeL6kYA/4FPg5rfGWZ8wGRfXxW88IK+PODgrjYBOWQpxfQbAvcL1j1NaCSG1yrdQWtTww95BsRZYCWBBmV7rqrCIS41i8StBBlhcfdmTC/br0gTEDlNidFIlraK46oRvL4DPBCzqbXBzqJOIq0pacxHENS2Ja5wWr4BbHaFNOHbNorQSQmqNj0HR8SUGX5X+wVc7t5TxtbIYvNFWQgYSRxK9gkJcuwPEVdV4QLyMUr/1RwF/xlMAvosIaUYR6tLK6+Svi5zfKkdc5bqtpuiAimirPyjLX/6PUVoJIbXEau/Am5R7AXy5hta3AW5lh3JCaSWkjETIB5VPq8uNB1StUcWIq67mqapY/4ehT5dZiojVKhTr5ASskyraKkeQZXkV1yFsUNZOb76UsoaUVkJIv7IQwC+QfEDSeu+AXktcg/Kfzl/mbUtCSGXF1U8VUA3MEqOU4ml1Ue6itHmVi/XvgHs2ScfXoh5TAnJ2LY245lEcPYawjGKUNYV4g7L89Wmqhj/dlFZCSBjNcEtbNSV8/g4A70XtDdi5pUKveyt3KUIqLq6ORvLkwUyy6IniKpfC0o3CF2XvmyguGSUyBhEGZcUUV3G9dOKaUoirP6nWQeQe9A6avWWgP2dKKyEkiCzcCOvchM9vhVtc+3CNrfdEVK7MS7XWbE1xdyeDSFxVkqdKE9ANzBJboga1eZXTBOSSUTK3wU0ViLtOEERcVcNVzG2Vy2CZgqTqarbqoq0WenNbV5bwW0BpJYRUnB8jwqhXDX5pq201uN7lqM06EEJcCo3c3ckgE1fVwKyg/Fa5bJSYJiA3HlAW6/ekTy4ZJf85/HqCVZPzWy2NuOaE9fW3hTwwS462hlUSuEc4jg9oigCllRCi43aEdHMJ4aNw27TWIrfEfPzemI9nigAh/SOuqg5T3QgemCUX6VcNzBKrCahOsYslo2SuiPPHNSRnV1wvcfLvF8U1heKoa5JoK6WVEFJ1XJcwGuBzB9xOMbVI3MFSnXCLi8dhsNZsJaSaiFpRQDy9Lp9WFztmqVq86tIExJJRKr6BGGdzYuTs5oX19O8HYqYJKLgXbq7uLACrKK2EkGphBYCflPD8BwB8vobX/5aYj3/KmzpjPKcBwA3c1QipDBEL9cupAnIZLDFNQMxvlcW1T5qAxzcBbNYs4tK4x4CQnF05BUJcF1vyvhT06QFB0dY7vPkBO3ZRWgkhIlPgVgpIWo9vA4AP1fD6ZxE/JcIX1ripELdwdyNkQMTVgr6agNzmNYXi/FaduKpOsVshf+C/7r1OOWU8L83LtVvFxgJB8qoLSByGe6aI0koIGVAaAfwO7kChJOyEWymgs4a3QZLT9r+RLqOyAuVrEUsIiS55QQOzVGWw5I5Z4iR3mpLF9WFvUjEdpXUYDMpvLQiTKK6QhFWU2LBoayfczl/TkXyALqWVEFIyKQA/BbA44fNb4dZiPVzj2+GWmI9vQW9Nxt/0w/sRQpILnnxaXa5zKpeOsiTJU+W3qqoJyNHKzwuvJfNZxKzcEZLfKg/KkktgAeqIq5zeoIu2ft97nwGJtlJaCSGAOyjgmoTPteCWttpS49ugOcGB+GHhx2hPgm1QydJahBAERltV3aXkaKsorqqmA2LdVl0JrM3Ql8BqRoJoa8SKAuKALDFXVxRXOdpqhrjhHgAPUloJIQPFxwB8uoTnfwK1W9pKJEnRfzm6+mDM508BsJq7ICH9Lq4O1GkCOYW42iiuJpBB31QBcTS+qgTW56FPnfo0EtRJDpFxlbj6UWZI4qqKthoADEWKAAD8K4DFa9ZtnE5pJYT0J6sB3FnC8++Ae7poMHBLzMdb6Jurdl8/vC8hpHRxFdME5FJYOYW06qoJ6NIEZPHbC+A7mkUbU2LgQNd4oCBJrCU8ThRrbV6rhsfhNhu4gtJKCOkvFsJt0ZpN+PwHAXxxkGyLpYjRWtFjPdycVpEt6O3THZVrATRxdySk35BzQYOirTkUl40S27xmUFxFQE4TkGu33qE4Zvh8OslxIEDEbYWwWgpxFWVVJa/QRFvvxQDUa6W0EjI0aYZb2iqpLG0AcCP0gwtqjSRdXnQDrx6I+ToNcJs5EEIqTEitUz/aKoqrXDrKlzpd0wG5aL8YtWwF8GXNojUhYSUBYZ3E9VLlt4opAuJzgqKtQc0G+j21idJKyNAjCzfCOjfh8/fCHXjVOUi2R6rM0soUAUJqQ1xFyVMNzApLEwgT16JBTV7E8i7oz8Z8HAlyW6V1kasJ6ORVlSYgpwsEpQjsALBnzbqNC/vzs6O0EjL0+DGS19hrBfBuT1wHC1fBjTzH4VXoKwVshjvCNg7nl/AnghBSuuSJbV5zUJfBEtME/GhrGsUpAnK01ZAEMAd9WlUzgFtLFHFdfqulmFRpAspIa0CKwEpKKyGkUtyO+B2fIBxsB0NpK5kkUdawaOq9/bQchJDSJU/VElXsliWKq9xdSlVJQI62yvJ3X8Bx9LNIOM5As07yulnS7SKqSGtQisB9cJukUFoJIWXnOrhtA5PyKQyO0lYiY5CsPm2YtK5NKK2s2UpI/4urKHrywCy54YBYqF9ME1ANygpqOPBVzWJNKcMfWFXtVkshrv7jgOKmAlFyWnHj5csPoJ/HNVBaCRkarADwkxKeP5hKW4nclCCqsRluuZcgNiB+FYFZGIDRuISQ0M5SorzKRfp1tVvDoq1r0dtNT+azSf/ABoi4HVFcdZMuRaBlzbqNDZRWQki5mAK3UkDSA8u9cAtjD0YqkRoQ93GlLg8hJCGKU+qyuIppAmJrVLkEli63VSmu3uv/g2axFqD0jlMOggdmRY24yvMyD8Mtn0hpJYSUTCOA3wGYmPD5GwB8ZJBum4VIlo8VNV81ibTegNJGDxNCkosroG86IEZcxfJRvkv5gqqLtooNB8TcVt1Zm0+XYX3ENAE5t1W8zZFeQpUqoGN9Cb8vlFZCSA8pAD8FsDjh83cAuBqDp7SVzC0JnrMe0SsDbEH8QWus2UrIwKHrKqWqJCDmtqpavMrR1j5F+733uEOzLKsQv+FJXHENqtsqC6syReDGy5dbAA5TWgkhpfINJBtkBLilra7uz4PRAAh9kioKcasCMEWAkBpAI3miuOYFYfWlVc5tTUnCKrd2LUoT8ATwHgA7NYv1yTKsmhMgrnaAuAYJrEy/lUCktBIyOPkYkp9e8ktbbRvE22c13FzfOFiI3+3qvoTLNou7MCEDKq6qNAE54ho0KEtXu1WWv6Dc1hsQv4Z0mIjrJieBrPocoLQSQkoRsjtLeP4nMPhKW8kkKeD9VIKD8w4AmxK8F6OthAwcYdFWOeIq5raq0gTEAVm6aKsq7agh4bFKtz7iYDNVlNWBOtqKIHn1UgQorYSQ2CyA26I1m/D5d8BtMziYaUJlarOW83mUVkIGAEXJKLFbllwGy++SpYq2ymWwVNLqk4M+t/U2lFC/WdMpy4I+8hqKpvQVpZUQEotmAA95UpaEBzF4S1uJXIf45b+SpAaI0ho3EjEXrNlKyECiKtAvC6s8KAtQD8pKo2/d1h5x9STwR1CPIZgF4NIyrk9QqoD8GH99REk1BvJDobQSMjjIArgfyfvXbwBw4xDZVklOtz0MoCXh++2BW3UgLoy2EjIABAzKkvNbfYkVR+KL0qpKE9B1ycpBf5brtjKvj5wmoBJXmSi5rZRWQkgkfozkkbm9cAdedQ6B7TQXwMoEz7uvxPe9N8FzkkSECSGVEVdVpyw5TSCoBFaUaOu/eq8ncw3iDxxVESXaqou4VgWUVkJqn9uRrHyTKK0Hhsi2ShK97ISbOlEKDyB+ikATWLOVkIFGzgUtKMRVrtvq+1UKwdFWeXT+Ac0f5BSS1ZUOknBHElRbuqxKKK2E1DbXAfh6ia+xAsAXhsC2Snrgfxhu3dpSOIxkFRmYIkDIAKEpgWVDnSIQ1N5VjLKKzQaKBmV50dZvaxbnljKumiraKktsUJrAgA3GorQSUrusBPCTMr3WFwAsG+TbaxWA6Qmed1+Z3j9pzdbp3NUJGVBUua2qVAG5vaufJhDUJUuOtm6GW15PJmlqU5CwqsRVFlaVvLJ6ACEkNj9B+XIes97rZQfx9koStWxD6akBPmsRP284BUZbSbz9hZQRRQksWyGsqrqtfm6rnwogR1zFLlk90irktqq4tczrostv1cnrgENpJaR2KbdgLkTpqQbVSiPc7jJxeRDlG6DWAuDRfpJtMjRp5CaoGEGVBERh1bV3VaUI+NFWuZLAWqibDZRrcKYqkqrKaw2qJkBpJYQMOJ/E4KwPmvRgf2+ZlyPJ6y1AeU4LEkISEFCgX9VwQE4RUIlrYPmrGy9fbkMdbU3aGEW1LvL6qCKuVQellRAikoJbPmuwRWySRCuTRkaDSBq5vYW7JiFVI666uq3+vCiuhiSt4iSWvvJ9zI+23gU3PUnmpjKtkhMgrU7IRGklhFQNswDcOcjWZ3WC562FumZiKXR6rxsX1mwlpDqQI5IFYYqa2yoPyEoJcuvTCvWZmUuRvOthHHkNEtUBE1dKKyFExa0Arhok65I0J/S+Ci1PkhSBMSjxtCAhpDQCGg5YUOe1irmtcgksUVh1A7J+pFiMBpQvRSAsVSCsigCllRBSFtqQLKIn8kNPloaitCatqxqFR5GsJewt3K0JqQqiRltVXbJ0lQRUA7I2AHhV8f43VGh9qjIlgNJKyOBmB4AzAFzvHfSSMhHAD2p8W6yCW98wLkk6WEUl571+XC71PhNCyABRYrTVl9aUIKtBA7J00dYryhhQcBTzQVFW5rQSQsrGw56w7vAOlh+COpk/KtehfIn/A0HS1IB7K7xcSWq/smYrIdWDKtqqKoOlajag6pKli7beg7659SlPXMsh34C+BJajkdoBI839jpBBwx0APi/dtg3A5wB8r4TX/S7cDi17a2x7NHjSnXSdrQouW9Iau7cA+CZ3dUIGjjXrNjpeFFSMtpooLoGVEUTWF1JAXUlAzGuVy2UdBvAbANdKi3FNBf5ci/m3qCZZpbQSMnjohBtR1Z1y/r53wLs04euPgVsG67Ia2y7XIfko26VVuk4L4bbb3cTdnpABR5fb6kdZdVFUOU1AF2l1brx8ubFm3cYfaaS1ASU0PxHkG3El1Xtuv29wpgcQUtvsAXA2wnMkP4Rkg398LgXwsRrbNoP1VPot3O0JGVg0ua1ymkDcSgK6DlkPo++ZrgYkK+XXZz2kVIE4605pJYREZgPc/NUtER57AMBHS3y/byDZoKaBYEo5DuhVyk0ofwtfQkgy5C5Z4oAscVCW2GVKFW1NCbfJ0mrBzW2VKVtZwjB59e8fSGEFmB5ASC3z14gXPX3AO/AljUA2AvgJgAtQ2XzPcnCLd/AfjPg1Wx/gV4CQgUPKbfWlVOyUJU5yFFXXJasgPM4BYNx4+XJ4KQK3V0paxXWq5m3OSCshtcvhBM/5BNyUgqSsBPDZGtg2g32UPasIEFI9BNVtlTtk6aKt4iTKrc8OAM9I7zsdwOKhtKEprYQMLVoBfLjE1/hKlR8oVwBYMMg/x6sANHN3JmRgkXJb/UirfylHW3XNBuR6rbqaraqzK5cOpe1NaSVk6PE4gG+X8PwsgJ+ievMqbx0CnyFrthJSfTgBwirmtooDskyENxrwI65r0Tc1a/VQ2sCUVkKGJp+Huj1gVBbDjbhWG6XUZq01KK2EVAFetFU1IEsVabWEx/nSakIdaU2hOEVgD4D1CmltoLQSQgYzOQAfRN9OK3H4LNwc12riKpSvvWG1sxTVW0+WkKGKmN8alCIAFKcImFDntMopAvcp/qivHCobl9JKyNBlM4Avl/D8FNxqAo1VtE63DrHP8BbuxoRUpbAGSauc22qgbxUBXVvXB9E3RWAVpZUQMhT4JvqOSI3DXLj1W6uBiRhigxLg1mwtV2mvVn4dCElGQLMBSxJW/9KRAgCmJKq6KgK6FIEhAeu0EjK0seB2y3oZySOmH4M7QODRGhW4nQDuGOBlnw7gCwme1ww3JeJB7sqEVAWq3FZfVsXWrpYgo4Ykq+LkP05s63ofgPOF91yGElu6UloJIbXCTgCfAvDDEl7jxwCWoLRWsaWSNDXg+wDuGuDPIAX3VP+UBM+9hdJKyMCjaTZgS/IqTr6oQiOsYiMC2xdX7/t+p/AnvQFuqb+nBvs2ZnoAIQQAflSi+EwB8N0BXP5lABYmfO59VbD9rRKWYygNPiOkFggbjCU2GpCrCMjVA6KmCJw/FDYspZUQ4vMRJOuy5XMTBq7cVNLyT8+gtA5h5eSehM/LetueEDLAKHJbVYOy5MFYopOpxFWu16r6s72C0koIGUocBvDREl/jB3AHRPUn2RKk9d4q2v6bkbx27i3cfQmpOsRoq6p2q6qKgK6la08VAS8FQT4zNiTKXlFaCSEiawHcXcLzx6C03NgkJD09Xsop+UqRNNpaSnoEIaQywupoxFWMtIrRVlOadGWvAPcM0RbhejOAWZRWQshQ41NwB2eVIpH9WS81aZT1YQzswDEV96JvDcao3Mpdl5CBR0oRUA3IEstfySkCqoYDOnH9jfTWgz5FgNJKCJFpBfDhEuQJcEe29se//mYA15QgiNXGHiQfAVzOmq2EkNJRRVrleq1yioAJfcRV7o5FaSWEEE+cvlPC8xvhlsGqtEQlFbVOuKkQ1UhSmR6KzRUIqUoUA7Lkuq26FAFdJQExyupfrkfx2aLFlFZCyFDl80g+MAhwWwt+ssLLmDQ1YC2qtxD3AyUsG1MECKk+HElQVSkCQbmt8mAsHwvFpa+WUloJIUOVHIAPepdJ+ToqN0BoMdwBSEm4t4q3eyv6nvaLCmu2ElJ9wqqq2ypHXMVIqypNQBVxhXSsaEb/V2+htBJCqobNAL5cwvOzAH7iXZabWxI+rwXuIKxqJmkVgQYMXK1cQoiApmarHHEVL4PEVbxNLH31uPS2SwfzNmUbV0JIGN+EO9gpaR3AZQC+UKL8yqSQvKD+fShtkFl/4Fc2SBI1vRX925b2OlTXAJADAK7m15ZUGbpGAwXPxWwUBxKD0gPESOs2uAM4p3vXF9fAn3JKKyGkYlgAPgTgRbgDrJLwBbinsTaUaZmuQPLTYPfUwDbPeXL9sQTPXQFggfdj1h80e1O1sIdfWVItrFm30bnx8uW+tMrRVjlFwBTEVZcmIIqrH5l9FL357HMH8/ZkegAhJAo74NZvTUoKbppAQ5mW55aEz9uJvj27q5VS5DrJALVW7uaEVAxVzVbVvFxFQJZXOdIKFJfJW0BpJYQQ4EdIPkDIP5h+vQzLMQbugKMk3FtD23s9kjd5uAWs2UpItUmrA3WagFz+CpK4isIqiquf1ypKKyOthBDi8RGU1kXqkwBWl7gMNyB5xPbeGtveSaOtU8qwnQkhZUAYkAX07Y4lpwv4Ymug7+ArU7rdZw9602KmYBBXEKG0EkLicADAR0t8jR8DaCrh+bckfN5mlFZ3tpaktZTtRAipDHKkVe6UJacIQCOscr1WoDjaOp3SSgghLg8AuLuE50+H2+Y1CQuQfKT6vTW4rXcg+eC1a0v8c0AIqYy0yikCtjSJ0VZAn9cqiuszlFZCCFHzKZQ2SvsWT6qSPC8JFtzR+LUIa7YSUuMEpAjIVQRUea2qVAFI0ir+uZ1FaSWEkF5aAXy4xNf4AeKVSkohedvWZ1C7pZBKqSt7C3dVQqoKVYqALK6OIK4qYRWjrP5grC0A2rzbGGklhBCJxwF8p4TnN3viGpXVcAcZJOHeGt7Oh5G8WPj5iD6aOMddmpB+k9YoKQJQiKucJuBjoTfaSmklhBAFn0Npg5uuRfRo4C0J3yMHNw+3lumPmq2d3J0JqRxSioAvrnK9VrGlq65mqzz5+NI6cbBuQ0orIaQUcgA+WKLw3BkhMtCIZDmwgFtbtqXGt/OD6D31l0RaWbOVkOpBlx4QFG1FiLACwCbvsnmwbji2cSVk4FkCt65eWPL8ZiTPbawkmwHMRvJT94ggvTkAFyR87b2DYB/pBLAcydvopiLsOzu89xgMf6SicAfchhlx2QlCSpdWCGKqGphlhsiqSlw3e5eDNtJKaSWkOmhBbUcDD3hTJUVk0xDfR7b1gxgPpW0sFmQnpF9Ys26j4w2cChqQlfLmZXGFRlb919sBd5BsE4AsBmGeOtMDCCGEEEL6FydAXOV6rVAIa1H5K0+Egd5o66DsikVpJYQQQggZGHG1Q6RVJiyv1ZfWQdlYhNJKCCGEENJPeFUE5Ek3KEuOtIbN+9VcGgfjtmNOKyGEEEJI/+NIcirntNrC40RBNRTzsrQy0koIIYQQQioir44kr6q8VlleZXH1pbWB0koIIYSQaqWRm6DmZFUUVl1uq05Y5dsAtwrNAUorIYQQQqoZNpGoEYTuWHErCKjkVRbYbXBLXlFaCSGEEEJIWdANynJiiCuAorJXg7b+MAdiEUIIIYQMrLjK0VU5PUBXs7VIXD0YaSWEEEIIIeVBKH0lSmlY2SsZlbjuwSDshkVpJYQQQggZWBzo0wRUEVeduPrsHKwbitJKCCGEEDKw0gqNrMrlsKKwB0ArpZUQQgghhFRCXEU5dQJuUwmsGG09MFg3EqWVDBVYv5AQQkhVIZW+EuVVV/oqSrQ1h0GaIsDqAWSowPqFhBBCqpGwfFZDIbYqDOG+vZRWQgghhBDSn/JqCEKqEldD8VqDMqd1wKX1xsuXczclsVmzbiP3NUII4XFxsAmrDTd1UzWvEtsicR3snycjrYQQQggh1SWvcqRVvl9+zpCA0koIIYQQMrCiKl/KqQFAcYpAnBJYlFZCCCGEEFJWeZVlVRZXWVhVpa8GrcxSWgkhhBBCqkdcZTmVJZaRVkIIIYTUNFlugkElrL6syvOqFIEhIbCUVkIIIWRw0MBNMCjEVY6y+ogCOyRzW9kRixBCCCFk4GVVJa1OiKgOqRQBSishhBBCSPWIKzTCKrd0tYeauDI9gAwVmOtFCCGkluRVbDAg1mtVDcZiTishgwjmehFCCKkVYRXnVWWvhmQVAUorIYQQMjhIcRP8/9k749CqrjuOfyQgCIFAIMMhpDgcDsEhGDrcHBZHaorFki2lwWHJaLGztFQslUqLoigVi2XSolMqlZaJUlepVKoLSKVZZaIsGCYVwoJhsrDQgCwsEBrcH+d3eSfXd+877933zH153w9ccvPevfede86593zP7/zO78xrAVssVqtEqxDzkJVnLt9oy2G6pns3dAypeIQQVaBZWTCvhGoxwUqCWG0I8SrRKuqV6TKP/yKn9zEKPFbJiWcu37gLtKsqCCEqZEZZUJfiNe7LKkurEDlnXFkghBB6j84zobog9jdJzCb9lWgVIofcVhYIIUQm7igL6kLAph0T8tm8QXFaRb1yRVkghBAVMwNcVzbkXrj6+0mLC2hFLCFyzjVgRNkghBAVcbF3Q8eEsiHXQhWSIwQ0lFiVaBV1Te+Gjhlgj3JCCCEq4oCyoG6EaykBW+o8iVYhcsBp4KayQQghyuJk74YOuQbUp3BNE7PzHolWUbeYtfUZYEy5IYQQQVwFtisb6ka4lnIPaCgXAYlWUe/C9R7wFC7eqRBCiGQuAU/1buiYVFbUvYhtSCRaxXwQroPAz4B+5YYQQjzEFHAEeKZ3Q8eUskPUK4rTKuaLcB0Dnjxz+UYnsAPoROtwCyEkVk8CB+wdKYREqxA5Eq/9QP+ZyzdagFXA8pwnOcsw3S601rgQojh3gAHz/RdiXrDgwYPKXCM+/esN5Z4QQgghRIPz7C868i1ahRBCCCGEeFRoIpYQQgghhJBoFUIIIYQQQqJVCCGEEEJItAohhBBCCCHRKoQQQgghhESrEEIIIYSod7S4gKhrfrP7j8oEIYQogz/v+70yQUi0CjFHLANainx+G7eMYSlagaW2P4lbSSaN1d7+EDBdhXtYDKy1tGDXvAqMlHmNJQHHjQLjRT5fRemlb6ftniv97XtAseUkW6wcQ8vOL7Nh4H6J310IrATagTa7/oT9Da1b8TQ1WZ4BzACDAfe/nMIqZmnXq6QMymWJldtqr94n1Y14PpZiKiBv43VvsZVPVEfS6oCfjlLPrJ+vacfG62C575Fiabtv9dNnEbCigvK6WeT6IfXOr3Mhz4oQEq1C1JA/ABtTvh8DTgOnUhr7r+zFPg382BrvYmwCPvcakazLgHQCu02wFmMYOGBpL0Uf8E7AcS8DxxLyoCVA8D6W4bd3AQeLfL4W+ML7/wiwPeU6XcCfbP9p4GKKYNkKvJUgqketbrxrIjatbv00Vn9mgI89AfJYSr2JxMo3JrgngR/Evm8GQpYaTCqDUNqBvcCWhE7KJdx69ecSOichaRyy/KJEfrxm5bO0yPf3gQtWNkMp6RgAfpnyO82Bx8brYJxrVldOlhCxftouWv2Md4QqWVJygddp+dAT4k8C/SllfcuE7gTwIzUXop6RT6toBBYDO4C/W0MdZ8ITUgtNRCYJoP3e/69nTNde4C8pgjVq4D4ycbSwgcrsFcKsjqV4HzhKshW4HdhM5dan097+cwEdlMiSfp7yrHfVYokJ5z6SrepdFLc4VpOllo53EgQr1oHaYp2DPLDG6tM/H0H+lGKnt5/WWdztvTcOICurqHNkaRXzjV6cdXKhiZ5V1gi3WyN91ATDZOy8I8A2a9T7TMTGh/V6KAzLXcQN31fK1pg4Pg+cwFlv7wOP2+9ts3vZYiLnpcDrv42zmBVjtMS5YzxsHYoIcYU4SHErHbih3xCagOPAzzOIlhWWf1h5v46ztE3iXATW4yzn/Rl+47TXkenBWQWTeC5B7BZj2OpypWWQ1lGKBPw1qydDFNwmNgLdhFn2B4EXE75LE+RtwNdeOsYt327i3GFarf53W7ncnoP3yDmrx5FrwTJ7L7RZJ/hD4IkKr30v4Tk+7n2/r8Q1+m3rxLl3dNs7JN7h7fOe+Q/UPAiJViHyxW0KQ4nX7G8L8K01Ns1mMYkPp02aJeKoNVS7gedjIioSJzO4Ye5KaQMOx6wmcbEzYNsF4EsTrltxQ5PXA35jhIIPXLlMZzg3aiBvZizDFSZctlLclSGELm//gHUK4ml8N2N9G7HyeNy29oROwSITyOAs+/0lrjuVMQ+T6PSu/zQFl4jIj/US8GrgtSYrTONhT7AO44brx4rU3WNz+B4Z9+4tet5O4ob1m4F1KWVdiolYXYyL1qTv4+zEjR5FnZELsc7XfgrW9F1Ux/deiDlF7gGiEbgfE3qLEo47QcG6upnZkyX6KAwJfkK2iTBbKUyMuFZCOF2JWUh2NEB57fEa3/2ETfAqRqu3f6eG6Q1xEejyyvwsczfk3eI9ExNz8PuL7dmKOn+9FJ+Yl0fuxDoby+c4PYNe3Vvp5Wv0f4933Fk1A0KiVYj6wRc+ScONvgW1CWe9gNl+rlO4IdUs+BbAEGvSKW+/swHKagTnrhEJz0MZrhPxAqUjI1SKL0K7E47pSRC5c5G3kXjsmoPf7/bK4Qq1sSbXkpmcpWcPBQvqbi9v9zLbyjqDEBKtQuSeNtwM8ChM1Tke9lX1Oec1pD04f7atuKFATEzdy5gmP2TWQMDxQxQmULQy95NAas0ia4yjfN5coVi/QMF3eSPOzWJ1DdI7RsG/eY1XV/z7icTsaGCZ14pPvP3PcVEVWh7h76/x9i/VWb1spjBpMqsLTbUYpuBKEPmwPu7Vt/46zGchJFpFw3ALeOBt/8GF1Zm0l/vzAdfwZ+YesoYdZkcZyNLw+e4JoXFY/eNChsuXmkCLb6sCzl2YcO5qnIWuFEdjZeBvoXk0yWzfyqOUHz1hHDfhJbJEdeJ8Er+0hr2apLkIbPTKPNTKujIlD7dlSOcHnohZiHO/uGt/yxWva1PSuDnhHF/Q366Td8pinD/y1179P8bcuFcU44DXOdvL7GgCO9UkCIlWIeqPQdtChsmueA17p9dQ7SN7yBjfz7Kca03GRF0p9ptAi29fBTbSNxK2vkdQVtGw5nkK8VeXeZ2HcsXkk8z2ae0C/gZ8RmVB3ovhh7CKuwiUEzWg1kzjJmAd9NLbYnl7F3iDZJ/vatCSUKfzxjZPgP8bZ5Ve5ZV1nsTgGPCe16Fd79W1Qb36xXxC0QPEfGMfs4fvV+MsXWtt22IiplSDucsEaySgRqjObOZyxWeELySmcl4Gp8kWDsznVdxM7WbgTdzw9jDlzYS+CvzEBPcbnlDttrrxLM6VIAtRRIBNFFwERq3cosUJhgifwJcW9iire0Hku33ExGqf5W8LbmShy56RUh28YZInESZFuJhKqNP1wIzVlfM5TNu7JrTbvM7JHjUHQqJViHxzrogwaAI+NZGyxl7upUIdDeKsfFGYooNUJ2TMhDV+TbYtJmz2tO8SMB5wfFKc1hBLc1qc1hB/3gHCQvaEMIIb/nwHN5x9HPhVhcL9lG2bcGGXltk1P8KtFJTVin7aqy89OOtXtyfOzpZZT07U+FkZs07BHhPzOyw/1uMs9bsCzi83jeMJdTpvXKVgFV+Hc3doIr/+5JP2TosmLUadOyHmFXIPEI3ADLPDRnUHnnevTLEWij+BI2RiUDsFF4XQNd2jWJfxbTDg3OmEc28yN+GJ3vM6IutNQGQZWr6AW2I0ysdWqjOT3p/4FdWxjTFRm0cmTKD6HZUXavRbfv3L4ldczohFJRbd2ybIT+D8oqPnf2+Oheu9Mju2Qki0CpFT8jQs6cd67As4/rnYuY0WvmYaeNn7/3AVynCK2e4eS6pUxyI3gzW4odpIDF8jfNLdXNbLqHPQRnnuK6H4biM9GX5jwnuml5Eezmx5xs5ntJpa9O44rtepEBKtQtSSTd7+6Byn5ZQnPHtIt/ItxflyRhxr0PIbwK1IBM7q/FYVrtkeE0HVILKmNuHcUFpjn+eZJk+8T1GbiVJXKAxbR+HoKiXym23GhaVL4pUE0VwOZylMClxP7SzRQgiJVtGgLMINvx/C+eyREwExHBOfn+H8CVtjad8CfON97kc1aER2euJybcDxn+NCZa0r8l2PJ2ZmLG+rwSUvja9518/DikQrcREgXuNhy3Irzrc3qmv9NUzHdm//BZy/+Yoiz25XTHDGec/bP2T35VtcFwMfU1jYYTzjs7+dgl/7IcLCvwkhJFqFSMSP0/o/a6Tf8BqzkzkREK/jJo1FDfRh4Dtc2KFvLe0few3jddySl/VAWpzWNzNcd4LCMG0IrThr51cUYvbesLz9lIKLwUGqZ333BaovAMv1MUyL03o3Q/pW46yb/7Jr3bL69p11ksBNSAtZ9S0tTuutlPMuMntmew/wD+95/d72vyTdgnrB6/w12319b/f2X1yoquiepu35yTLZbtgTyq3A+3rdCiHRKkQtGAVexE2qyAPTuPA522OCpp3ZPnjRrOAn0OQKcK4VA2WUuU+bibZIrN7D+cq+XeU0ni3x/1wxycNuECtj9e2S1bWhGqdln9V/3883GhlpiqU5jZdxk8h8MbqE2b6yN4EOqmNNP0DBL7aH2W5HQogao5BXYj7wAclxNu/gZrzfqeC6fnDuWjXiRyz963FDpNEw6QhuBvMVwn0L/aHp6xWkZTsu5FElvoyXCPMLTUrXkNehKJXXv6MQQD3t+N/iLHrr7L5WWWdhyOrEJUqHMfPrVugkngHrIPmLJIQwFdipqtTXdAT4oeXHUpwVf4nd15ilu1RkionANIbUhXO2rbN6v8rrbIzjJq+FPHcHcRbX9biIBK0UomyE3FOxOng7Je9/TfrKcn4elWPBf6mMvEt6tqJrDKpZEPORBQ8ePFAuCCGEEEKIXCP3ACGEEEIIIdEqhBBCCCGERKsQQgghhJBoFUIIIYQQQqJVCCGEEEIIiVYhhBBCCFHv/H8A9uDDt62EULQAAAAASUVORK5CYII=;" parent="1" vertex="1">
          <mxGeometry x="-810" y="257.5" width="224.48" height="175" as="geometry" />
        </mxCell>
        <mxCell id="fRJRQyjmohF1RWEmSn1R-11" value="VMNet2" style="text;html=1;align=center;verticalAlign=middle;whiteSpace=wrap;rounded=0;" parent="1" vertex="1">
          <mxGeometry x="-540" y="340" width="60" height="30" as="geometry" />
        </mxCell>
      </root>
    </mxGraphModel>
  </diagram>
</mxfile>
